<svg width="24" height="24" viewBox="0 0 24 24" fill="none" xmlns="http://www.w3.org/2000/svg">
<path d="M13.416 11.2755C14.2627 11.2755 15.0904 11.0245 15.7944 10.5541C16.4984 10.0837 17.0472 9.41505 17.3712 8.63279C17.6952 7.85054 17.78 6.98977 17.6148 6.15934C17.4496 5.3289 17.0419 4.56609 16.4432 3.96738C15.8445 3.36867 15.0816 2.96095 14.2512 2.79576C13.4208 2.63058 12.56 2.71536 11.7778 3.03938C10.9955 3.3634 10.3269 3.9121 9.85649 4.61611C9.38609 5.32012 9.13501 6.14781 9.13501 6.99452C9.13501 8.12992 9.58604 9.21881 10.3889 10.0217C11.1917 10.8245 12.2806 11.2755 13.416 11.2755ZM10.7689 6.48793C10.8353 6.42106 10.9142 6.36798 11.0011 6.33175C11.0881 6.29553 11.1813 6.27688 11.2755 6.27688C11.3697 6.27688 11.463 6.29553 11.5499 6.33175C11.6369 6.36798 11.7158 6.42106 11.7821 6.48793L12.7025 7.41549L14.6718 5.43908C14.7383 5.37256 14.8173 5.31979 14.9042 5.28378C14.9911 5.24778 15.0843 5.22925 15.1784 5.22925C15.2725 5.22925 15.3656 5.24778 15.4525 5.28378C15.5395 5.31979 15.6184 5.37256 15.685 5.43908C15.7515 5.50561 15.8043 5.58459 15.8403 5.67151C15.8763 5.75843 15.8948 5.85159 15.8948 5.94567C15.8948 6.03975 15.8763 6.13291 15.8403 6.21983C15.8043 6.30675 15.7515 6.38573 15.685 6.45226L13.2091 8.92811C13.1428 8.99499 13.0639 9.04807 12.9769 9.08429C12.89 9.12052 12.7967 9.13917 12.7025 9.13917C12.6083 9.13917 12.5151 9.12052 12.4281 9.08429C12.3412 9.04807 12.2623 8.99499 12.1959 8.92811L10.7689 7.50111C10.7021 7.43478 10.649 7.35586 10.6128 7.26892C10.5765 7.18197 10.5579 7.08871 10.5579 6.99452C10.5579 6.90033 10.5765 6.80707 10.6128 6.72012C10.649 6.63318 10.7021 6.55426 10.7689 6.48793Z" fill="#AFAFAF"/>
<path d="M8.00056 15.5566H17.9896C18.4667 15.5566 18.9301 15.3972 19.3063 15.1038C19.6824 14.8103 19.9498 14.3996 20.0659 13.9369L21.9781 6.45226C22.0048 6.34695 22.0071 6.23693 21.9849 6.13059C21.9626 6.02425 21.9164 5.9244 21.8496 5.83865C21.7803 5.75069 21.6911 5.68032 21.5895 5.63321C21.4878 5.58611 21.3765 5.5636 21.2646 5.56751H18.9386C19.0586 6.03379 19.1209 6.51305 19.1241 6.99452C19.1241 8.50838 18.5227 9.96024 17.4522 11.0307C16.3818 12.1012 14.9299 12.7025 13.416 12.7025C11.9022 12.7025 10.4503 12.1012 9.37986 11.0307C8.3094 9.96024 7.70802 8.50838 7.70802 6.99452C7.71119 6.51305 7.7735 6.03379 7.89353 5.56751H6.28102L5.81011 3.64819C5.69921 3.17897 5.43315 2.76093 5.05501 2.46179C4.67688 2.16265 4.20883 1.99993 3.72668 2H2.7135C2.52427 2 2.34279 2.07517 2.20898 2.20898C2.07517 2.34279 2 2.52427 2 2.7135C2 2.90274 2.07517 3.08422 2.20898 3.21803C2.34279 3.35183 2.52427 3.42701 2.7135 3.42701H3.72668C3.89063 3.42262 4.05109 3.47486 4.18105 3.57492C4.311 3.67499 4.40251 3.81677 4.44018 3.9764L6.92317 14.6219L6.0741 15.4709C5.77513 15.7703 5.57156 16.1515 5.48913 16.5665C5.40669 16.9815 5.44908 17.4115 5.61093 17.8024C5.77279 18.1933 6.04685 18.5275 6.39851 18.7627C6.75017 18.998 7.16365 19.1237 7.58673 19.1241C7.47991 19.4185 7.43899 19.7327 7.46685 20.0446C7.49472 20.3566 7.5907 20.6586 7.74801 20.9294C7.90533 21.2002 8.12015 21.4332 8.37732 21.6119C8.63449 21.7906 8.92774 21.9107 9.2364 21.9638C9.54505 22.0168 9.86158 22.0015 10.1637 21.9188C10.4657 21.8362 10.746 21.6883 10.9847 21.4855C11.2234 21.2828 11.4146 21.0301 11.545 20.7454C11.6754 20.4606 11.7417 20.1507 11.7393 19.8376C11.7384 19.5934 11.6925 19.3515 11.6037 19.1241H14.2366C14.1192 19.4474 14.0815 19.7942 14.1266 20.1352C14.1718 20.4762 14.2984 20.8012 14.4958 21.0829C14.6932 21.3645 14.9556 21.5945 15.2607 21.7532C15.5658 21.912 15.9047 21.9949 16.2487 21.9949C16.5926 21.9949 16.9315 21.912 17.2366 21.7532C17.5417 21.5945 17.8041 21.3645 18.0015 21.0829C18.1989 20.8012 18.3255 20.4762 18.3707 20.1352C18.4158 19.7942 18.3781 19.4474 18.2607 19.1241H19.8376C20.0268 19.1241 20.2083 19.0489 20.3421 18.9151C20.4759 18.7813 20.5511 18.5998 20.5511 18.4106C20.5511 18.2213 20.4759 18.0399 20.3421 17.906C20.2083 17.7722 20.0268 17.6971 19.8376 17.6971H7.58673C7.44501 17.6979 7.30625 17.6565 7.18816 17.5781C7.07006 17.4998 6.97796 17.3881 6.92362 17.2572C6.86927 17.1263 6.85514 16.9822 6.88301 16.8432C6.91089 16.7043 6.97952 16.5768 7.08014 16.477L8.00056 15.5566ZM16.2701 19.1241C16.4112 19.1241 16.5491 19.1659 16.6665 19.2443C16.7838 19.3227 16.8752 19.4342 16.9292 19.5645C16.9833 19.6949 16.9974 19.8384 16.9699 19.9768C16.9423 20.1152 16.8744 20.2423 16.7746 20.3421C16.6748 20.4419 16.5477 20.5098 16.4093 20.5374C16.2709 20.5649 16.1274 20.5508 15.997 20.4968C15.8666 20.4428 15.7552 20.3513 15.6768 20.234C15.5984 20.1166 15.5566 19.9787 15.5566 19.8376C15.5566 19.6483 15.6317 19.4669 15.7655 19.333C15.8993 19.1992 16.0808 19.1241 16.2701 19.1241ZM9.62021 19.1241C9.76133 19.1241 9.89928 19.1659 10.0166 19.2443C10.1339 19.3227 10.2254 19.4342 10.2794 19.5645C10.3334 19.6949 10.3475 19.8384 10.32 19.9768C10.2925 20.1152 10.2245 20.2423 10.1247 20.3421C10.0249 20.4419 9.89781 20.5098 9.75941 20.5374C9.621 20.5649 9.47754 20.5508 9.34717 20.4968C9.21679 20.4428 9.10536 20.3513 9.02696 20.234C8.94855 20.1166 8.90671 19.9787 8.90671 19.8376C8.90671 19.6483 8.98188 19.4669 9.11569 19.333C9.2495 19.1992 9.43098 19.1241 9.62021 19.1241Z" fill="#AFAFAF"/>
</svg>
