<svg width="24" height="24" viewBox="0 0 24 24" fill="none" xmlns="http://www.w3.org/2000/svg">
<path d="M5.4375 12.3667C4.95541 12.3667 4.48414 12.5319 4.0833 12.8414C3.68245 13.1509 3.37003 13.5908 3.18554 14.1055C3.00106 14.6202 2.95279 15.1865 3.04684 15.7329C3.14089 16.2792 3.37304 16.7811 3.71393 17.175C4.05482 17.569 4.48914 17.8372 4.96197 17.9459C5.4348 18.0546 5.9249 17.9988 6.37029 17.7856C6.81569 17.5724 7.19637 17.2114 7.46421 16.7482C7.73204 16.285 7.875 15.7404 7.875 15.1834C7.87427 14.4366 7.61723 13.7207 7.16027 13.1926C6.7033 12.6646 6.08374 12.3675 5.4375 12.3667ZM5.4375 16.4834C5.215 16.4834 4.99749 16.4071 4.81248 16.2643C4.62748 16.1214 4.48328 15.9184 4.39814 15.6809C4.31299 15.4433 4.29071 15.1819 4.33412 14.9297C4.37753 14.6776 4.48467 14.4459 4.64201 14.2641C4.79934 14.0823 4.9998 13.9585 5.21802 13.9083C5.43625 13.8582 5.66245 13.8839 5.86802 13.9823C6.07359 14.0807 6.24929 14.2473 6.3729 14.4611C6.49652 14.6749 6.5625 14.9262 6.5625 15.1834C6.5625 15.5281 6.44397 15.8588 6.233 16.1026C6.02202 16.3464 5.73587 16.4834 5.4375 16.4834ZM18.9375 12.3667C18.4554 12.3667 17.9841 12.5319 17.5833 12.8414C17.1825 13.1509 16.87 13.5908 16.6855 14.1055C16.5011 14.6202 16.4528 15.1865 16.5468 15.7329C16.6409 16.2792 16.873 16.7811 17.2139 17.175C17.5548 17.569 17.9891 17.8372 18.462 17.9459C18.9348 18.0546 19.4249 17.9988 19.8703 17.7856C20.3157 17.5724 20.6964 17.2114 20.9642 16.7482C21.232 16.285 21.375 15.7404 21.375 15.1834C21.3743 14.4366 21.1172 13.7207 20.6603 13.1926C20.2033 12.6646 19.5837 12.3675 18.9375 12.3667ZM18.9375 16.4834C18.715 16.4834 18.4975 16.4071 18.3125 16.2643C18.1275 16.1214 17.9833 15.9184 17.8981 15.6809C17.813 15.4433 17.7907 15.1819 17.8341 14.9297C17.8775 14.6776 17.9847 14.4459 18.142 14.2641C18.2993 14.0823 18.4998 13.9585 18.718 13.9083C18.9363 13.8582 19.1625 13.8839 19.368 13.9823C19.5736 14.0807 19.7493 14.2473 19.8729 14.4611C19.9965 14.6749 20.0625 14.9262 20.0625 15.1834C20.0625 15.5281 19.944 15.8588 19.733 16.1026C19.522 16.3464 19.2359 16.4834 18.9375 16.4834Z" fill="#4C0AE1"/>
<path d="M22.1906 10.0397L17.8125 9.11667L14.0852 5.54303C13.7158 5.19239 13.2527 5.00049 12.7747 5.00001H7.28344C6.97399 4.99916 6.66839 5.07918 6.38948 5.23408C6.11058 5.38899 5.86559 5.61476 5.67286 5.89451L3.29213 9.11667H1.6875C1.2401 9.11724 0.811166 9.32287 0.494805 9.68845C0.178445 10.054 0.000496285 10.5497 0 11.0667V13.45C0.000607946 14.0819 0.218102 14.6877 0.604764 15.1345C0.991426 15.5813 1.51568 15.8326 2.0625 15.8333H2.49117C2.40797 15.3319 2.42164 14.8154 2.53122 14.3208C2.6408 13.8262 2.84357 13.3656 3.12506 12.9721C3.40654 12.5785 3.75977 12.2616 4.15952 12.0441C4.55927 11.8266 4.99566 11.7139 5.4375 11.7139C5.87934 11.7139 6.31573 11.8266 6.71548 12.0441C7.11523 12.2616 7.46846 12.5785 7.74994 12.9721C8.03143 13.3656 8.2342 13.8262 8.34378 14.3208C8.45336 14.8154 8.46703 15.3319 8.38383 15.8333H15.9912C15.908 15.3319 15.9216 14.8154 16.0312 14.3208C16.1408 13.8262 16.3436 13.3656 16.6251 12.9721C16.9065 12.5785 17.2598 12.2616 17.6595 12.0441C18.0593 11.8266 18.4957 11.7139 18.9375 11.7139C19.3793 11.7139 19.8157 11.8266 20.2155 12.0441C20.6152 12.2616 20.9685 12.5785 21.2499 12.9721C21.5314 13.3656 21.7342 13.8262 21.8438 14.3208C21.9534 14.8154 21.967 15.3319 21.8838 15.8333H21.9375C22.3849 15.8328 22.8138 15.6271 23.1302 15.2616C23.4466 14.896 23.6245 14.4003 23.625 13.8833V11.9676C23.627 11.5004 23.483 11.0482 23.2195 10.694C22.9559 10.3398 22.5906 10.1074 22.1906 10.0397ZM8.25 8.46667C8.25 8.63906 8.19074 8.80439 8.08525 8.92629C7.97976 9.04819 7.83668 9.11667 7.6875 9.11667H5.21461C5.16083 9.11671 5.10817 9.09893 5.06288 9.06543C5.01758 9.03194 4.98154 8.98415 4.95903 8.92771C4.93651 8.87128 4.92848 8.80857 4.93587 8.74701C4.94326 8.68546 4.96576 8.62765 5.00072 8.58042L6.63741 6.36501C6.69025 6.29362 6.75585 6.23631 6.8297 6.19704C6.90355 6.15776 6.98389 6.13745 7.06519 6.13751H7.6875C7.83668 6.13751 7.97976 6.20599 8.08525 6.32789C8.19074 6.44978 8.25 6.61512 8.25 6.78751V8.46667ZM11.0625 11.5H10.3125C10.1633 11.5 10.0202 11.4315 9.91475 11.3096C9.80926 11.1877 9.75 11.0224 9.75 10.85C9.75 10.6776 9.80926 10.5123 9.91475 10.3904C10.0202 10.2685 10.1633 10.2 10.3125 10.2H11.0625C11.2117 10.2 11.3548 10.2685 11.4602 10.3904C11.5657 10.5123 11.625 10.6776 11.625 10.85C11.625 11.0224 11.5657 11.1877 11.4602 11.3096C11.3548 11.4315 11.2117 11.5 11.0625 11.5ZM15.4912 9.1326L10.1237 9.11819C9.97473 9.11779 9.83199 9.04913 9.72679 8.92727C9.62158 8.80542 9.5625 8.64032 9.5625 8.46819V6.78751C9.5625 6.61512 9.62176 6.44978 9.72725 6.32789C9.83274 6.20599 9.97582 6.13751 10.125 6.13751H12.8226C12.949 6.13752 13.0717 6.18675 13.171 6.27726L15.666 8.55225C15.712 8.5941 15.7456 8.65149 15.762 8.71642C15.7784 8.78134 15.7769 8.85057 15.7577 8.91445C15.7384 8.97834 15.7024 9.03369 15.6546 9.07279C15.6069 9.11189 15.5497 9.1328 15.4912 9.1326Z" fill="#4C0AE1"/>
</svg>
