<svg width="18" height="18" viewBox="0 0 18 18" fill="none" xmlns="http://www.w3.org/2000/svg">
<g clip-path="url(#clip0_221_90)">
<path d="M5.30888 17.6631C4.95399 17.427 4.63946 17.1352 4.37738 16.7991C4.08909 16.4521 3.82198 16.0881 3.5775 15.7089C3.0038 14.8685 2.55389 13.9499 2.24157 12.9814C1.86638 11.8564 1.68469 10.7781 1.68469 9.72337C1.68469 8.5455 1.9395 7.51725 2.43788 6.65325C2.80732 5.97793 3.35049 5.4136 4.01119 5.01862C4.65149 4.62092 5.3872 4.40328 6.14082 4.38862C6.40463 4.38862 6.68869 4.42687 6.99019 4.5C7.20675 4.56131 7.47057 4.65806 7.79288 4.77844C8.20294 4.9365 8.4285 5.03325 8.505 5.05687C8.74519 5.14462 8.94713 5.18287 9.10575 5.18287C9.22613 5.18287 9.396 5.14462 9.58894 5.08612C9.6975 5.04787 9.90225 4.98037 10.1953 4.85494C10.4856 4.74919 10.7139 4.65862 10.8956 4.59112C11.1741 4.509 11.4435 4.43306 11.6837 4.39481C11.9684 4.34992 12.2574 4.33803 12.5449 4.35937C13.043 4.39193 13.5337 4.4975 14.0012 4.67269C14.7656 4.98037 15.3838 5.46075 15.8439 6.14362C15.6495 6.26349 15.4669 6.40175 15.2989 6.5565C14.933 6.88082 14.6214 7.26157 14.3758 7.68431C14.0548 8.26203 13.8884 8.91284 13.8926 9.57375C13.9044 10.3854 14.1126 11.1004 14.5226 11.7186C14.8241 12.1767 15.2159 12.5685 15.6741 12.87C15.9086 13.0281 16.1106 13.1366 16.3041 13.2097C16.2135 13.491 16.1168 13.7632 16.0026 14.0332C15.7436 14.6387 15.4297 15.2192 15.0649 15.7674C14.7398 16.2394 14.4849 16.5909 14.2914 16.8249C13.9899 17.1821 13.6997 17.4549 13.4066 17.6451C13.0843 17.8588 12.7035 17.973 12.3165 17.973C12.0544 17.9831 11.7924 17.9514 11.5403 17.8791C11.3237 17.8059 11.1094 17.7266 10.8984 17.6361C10.6791 17.5353 10.453 17.4502 10.2218 17.3812C9.65009 17.2344 9.0507 17.2334 8.47857 17.3784C8.244 17.4459 8.01844 17.5247 7.79569 17.6214C7.48238 17.7531 7.27425 17.8414 7.15388 17.8791C6.91369 17.9494 6.6645 17.9932 6.4125 18.0079C6.02269 18.0079 5.65932 17.8965 5.29932 17.6709L5.30888 17.6631ZM10.4501 3.81712C9.9405 4.07194 9.45394 4.1805 8.97075 4.14506C8.89482 3.6585 8.97075 3.16069 9.17269 2.61562C9.34461 2.15385 9.59864 1.72698 9.9225 1.35562C10.2645 0.964698 10.6795 0.644272 11.1443 0.41231C11.6393 0.157498 12.1112 0.0196854 12.5623 -0.000564575C12.6208 0.50906 12.5623 1.01025 12.375 1.55194C12.2017 2.03078 11.9481 2.47665 11.6252 2.87044C11.2956 3.2619 10.8911 3.58357 10.4355 3.81656L10.4501 3.81712Z" fill="black"/>
</g>
<defs>
<clipPath id="clip0_221_90">
<rect width="18" height="18" fill="white"/>
</clipPath>
</defs>
</svg>
