<svg width="22" height="22" viewBox="0 0 22 22" fill="none" xmlns="http://www.w3.org/2000/svg">
<path d="M13.4176 8.58241C13.4176 9.91208 12.3297 11 11 11C9.67032 11 8.58241 9.91208 8.58241 8.58241C8.58241 7.25274 9.67032 6.16483 11 6.16483C12.3297 6.16483 13.4176 7.25274 13.4176 8.58241ZM17.0439 8.58241C17.0439 13.0852 11.5742 16.772 11.3324 16.9533C11.2417 17.0137 11.1209 17.0439 11 17.0439C10.8791 17.0439 10.7582 17.0137 10.6676 16.9533C10.4258 16.772 4.95603 13.0852 4.95603 8.58241C4.95603 5.25823 7.67581 2.53845 11 2.53845C14.3242 2.53845 17.0439 5.25823 17.0439 8.58241ZM14.6264 8.58241C14.6264 6.5879 12.9945 4.95603 11 4.95603C9.00548 4.95603 7.37362 6.5879 7.37362 8.58241C7.37362 10.5769 9.00548 12.2088 11 12.2088C12.9945 12.2088 14.6264 10.5769 14.6264 8.58241ZM19.4313 18.6758L17.6181 12.6319C17.5275 12.3599 17.3159 12.2088 17.0439 12.2088H16.6209C14.9588 15.2308 11.8461 17.3159 11.6648 17.4368C11.4835 17.5879 11.2417 17.6483 11 17.6483C10.7582 17.6483 10.5165 17.5879 10.3352 17.4368C10.1538 17.3159 7.01098 15.2308 5.37911 12.2088H4.95603C4.68406 12.2088 4.4423 12.3901 4.38186 12.6319L2.56867 18.6758C2.50823 18.8571 2.53845 19.0687 2.65933 19.2198C2.78021 19.3709 2.96153 19.4615 3.14285 19.4615H18.8571C19.0385 19.4615 19.2198 19.3709 19.3406 19.2198C19.4615 19.0687 19.4917 18.8571 19.4313 18.6758Z" fill="#4C0AE1"/>
</svg>
