<svg width="20" height="20" viewBox="0 0 20 20" fill="none" xmlns="http://www.w3.org/2000/svg">
<path d="M1.7337 17.3659L13.0533 17.3016C13.3702 18.3087 14.2486 19.0326 15.2765 19.0268C16.3044 19.021 17.1746 18.2871 17.48 17.2765L19.2469 17.2665C19.6574 17.2642 19.9881 16.8991 19.9855 16.4511C19.983 16.0031 19.6482 15.6418 19.2377 15.6441L17.4708 15.6542C17.1538 14.6471 16.2755 13.9232 15.2475 13.929C14.2196 13.9348 13.3495 14.6687 13.044 15.6793L1.72445 15.7435C1.314 15.7458 0.983301 16.1109 0.985843 16.5589C0.988385 17.0069 1.3232 17.3682 1.7337 17.3659ZM15.2568 15.5514C15.7249 15.5487 16.1081 15.9622 16.111 16.4731C16.1138 16.984 15.7354 17.4018 15.2673 17.4044C14.7992 17.4071 14.4161 16.9936 14.4132 16.4827C14.4103 15.9718 14.7887 15.554 15.2568 15.5514Z" fill="#4C0AE1"/>
<path d="M1.69427 10.415L3.46122 10.4049C3.77815 11.412 4.6566 12.1359 5.68445 12.1301C6.71231 12.1242 7.58243 11.3904 7.88791 10.3798L19.2075 10.3156C19.618 10.3132 19.9487 9.94817 19.9461 9.50018C19.9436 9.05219 19.6087 8.69089 19.1983 8.69322L7.87871 8.75745C7.56178 7.75037 6.68333 7.02646 5.65548 7.03229C4.62762 7.03813 3.75745 7.77196 3.45197 8.78256L1.68502 8.79259C1.27457 8.79492 0.943872 9.16 0.946414 9.60799C0.948956 10.056 1.28378 10.4173 1.69427 10.415ZM5.66468 8.65466C6.13276 8.652 6.51593 9.06549 6.51883 9.57637C6.52173 10.0873 6.14327 10.5051 5.6752 10.5077C5.20713 10.5104 4.82395 10.0969 4.82105 9.586C4.81815 9.07512 5.19661 8.65731 5.66468 8.65466Z" fill="#4C0AE1"/>
<path d="M1.65485 3.46402L9.79019 3.41786C10.1071 4.42494 10.9855 5.14885 12.0134 5.14301C13.0413 5.13718 13.9114 4.40335 14.2169 3.39274L19.1681 3.36465C19.5785 3.36232 19.9092 2.99724 19.9067 2.54925C19.9041 2.10126 19.5693 1.73996 19.1589 1.74229L14.2077 1.77038C13.8908 0.763309 13.0124 0.0393969 11.9845 0.0452295C10.9566 0.0510621 10.0865 0.784896 9.78098 1.7955L1.64559 1.84166C1.23514 1.84399 0.904443 2.20907 0.906985 2.65706C0.909527 3.10505 1.24435 3.46635 1.65485 3.46402ZM11.9937 1.66754C12.4618 1.66488 12.8449 2.07837 12.8478 2.58925C12.8507 3.10013 12.4723 3.51794 12.0042 3.5206C11.5361 3.52325 11.153 3.10982 11.1501 2.59894C11.1472 2.08806 11.5256 1.67019 11.9937 1.66754Z" fill="#4C0AE1"/>
</svg>
