<svg width="40" height="40" viewBox="0 0 40 40" fill="none" xmlns="http://www.w3.org/2000/svg">
<path opacity="0.08" d="M40 20C40 33.3333 33.3333 40 20 40C6.66667 40 0 33.3333 0 20C0 6.66667 6.66667 0 20 0C33.3333 0 40 6.66667 40 20Z" fill="#020202"/>
<path fill-rule="evenodd" clip-rule="evenodd" d="M14.1701 14.1701C14.3968 13.9433 14.7645 13.9433 14.9912 14.1701L20 19.1788L25.0088 14.1701C25.2355 13.9433 25.6032 13.9433 25.8299 14.1701C26.0567 14.3968 26.0567 14.7645 25.8299 14.9912L20.8212 20L25.8299 25.0088C26.0567 25.2355 26.0567 25.6032 25.8299 25.8299C25.6032 26.0567 25.2355 26.0567 25.0088 25.8299L20 20.8212L14.9912 25.8299C14.7645 26.0567 14.3968 26.0567 14.1701 25.8299C13.9433 25.6032 13.9433 25.2355 14.1701 25.0088L19.1788 20L14.1701 14.9912C13.9433 14.7645 13.9433 14.3968 14.1701 14.1701Z" fill="black"/>
</svg>
