<svg width="22" height="21" viewBox="0 0 22 21" fill="none" xmlns="http://www.w3.org/2000/svg">
<path d="M19.6012 -0.00012207H17.5452V2.05595C17.5452 2.46717 17.2025 2.74131 16.8598 2.74131C16.5171 2.74131 16.1745 2.46717 16.1745 2.05595V-0.00012207H5.20872V2.05595C5.20872 2.46717 4.86604 2.74131 4.52336 2.74131C4.18069 2.74131 3.83801 2.46717 3.83801 2.05595V-0.00012207H1.78193C0.753894 -0.00012207 0 0.890844 0 2.05595V4.52324H21.9315V2.05595C21.9315 0.890844 20.6978 -0.00012207 19.6012 -0.00012207ZM0 5.96249V18.5046C0 19.7382 0.753894 20.5606 1.85047 20.5606H19.6698C20.7664 20.5606 22 19.6697 22 18.5046V5.96249H0ZM6.09969 17.4765H4.45483C4.18069 17.4765 3.90654 17.2709 3.90654 16.9282V15.2148C3.90654 14.9407 4.11215 14.6665 4.45483 14.6665H6.16822C6.44237 14.6665 6.71651 14.8722 6.71651 15.2148V16.9282C6.64798 17.2709 6.44237 17.4765 6.09969 17.4765ZM6.09969 11.3083H4.45483C4.18069 11.3083 3.90654 11.1027 3.90654 10.76V9.04661C3.90654 8.77246 4.11215 8.49832 4.45483 8.49832H6.16822C6.44237 8.49832 6.71651 8.70393 6.71651 9.04661V10.76C6.64798 11.1027 6.44237 11.3083 6.09969 11.3083ZM11.5826 17.4765H9.86916C9.59502 17.4765 9.32087 17.2709 9.32087 16.9282V15.2148C9.32087 14.9407 9.52648 14.6665 9.86916 14.6665H11.5826C11.8567 14.6665 12.1308 14.8722 12.1308 15.2148V16.9282C12.1308 17.2709 11.9252 17.4765 11.5826 17.4765ZM11.5826 11.3083H9.86916C9.59502 11.3083 9.32087 11.1027 9.32087 10.76V9.04661C9.32087 8.77246 9.52648 8.49832 9.86916 8.49832H11.5826C11.8567 8.49832 12.1308 8.70393 12.1308 9.04661V10.76C12.1308 11.1027 11.9252 11.3083 11.5826 11.3083ZM17.0654 17.4765H15.352C15.0779 17.4765 14.8037 17.2709 14.8037 16.9282V15.2148C14.8037 14.9407 15.0093 14.6665 15.352 14.6665H17.0654C17.3396 14.6665 17.6137 14.8722 17.6137 15.2148V16.9282C17.6137 17.2709 17.4081 17.4765 17.0654 17.4765ZM17.0654 11.3083H15.352C15.0779 11.3083 14.8037 11.1027 14.8037 10.76V9.04661C14.8037 8.77246 15.0093 8.49832 15.352 8.49832H17.0654C17.3396 8.49832 17.6137 8.70393 17.6137 9.04661V10.76C17.6137 11.1027 17.4081 11.3083 17.0654 11.3083Z" fill="#4C0AE1"/>
</svg>
