<svg width="10" height="10" viewBox="0 0 10 10" fill="none" xmlns="http://www.w3.org/2000/svg">
<g clip-path="url(#clip0_171_14854)">
<path d="M9.75394 4.40658L5.59429 0.246913C5.26621 -0.0811649 4.73412 -0.0811649 4.40604 0.246913C4.07797 0.57499 4.07797 1.10708 4.40604 1.43516L7.97119 5.00029L4.40604 8.5654C4.07797 8.89348 4.07797 9.42557 4.40604 9.75364C4.73412 10.0817 5.26621 10.0817 5.59429 9.75364L9.75394 5.59399C10.082 5.26673 10.082 4.73466 9.75394 4.40658ZM4.75244 4.15469L1.45003 0.674088C1.11819 0.324786 0.580712 0.324786 0.248877 0.674088C-0.0829589 1.02339 -0.0829589 1.59004 0.248877 1.93977L2.95093 4.78753L0.248877 7.6353C-0.0829589 7.98462 -0.0829589 8.55166 0.248877 8.90098C0.580712 9.25029 1.11819 9.25029 1.45003 8.90098L4.75244 5.42037C5.08427 5.07107 5.08427 4.50442 4.75244 4.15469Z" fill="#4C0AE1"/>
</g>
<defs>
<clipPath id="clip0_171_14854">
<rect width="10" height="10" fill="white"/>
</clipPath>
</defs>
</svg>