<svg width="24" height="24" viewBox="0 0 24 24" fill="none" xmlns="http://www.w3.org/2000/svg">
<path d="M12.0582 11.7209C14.7425 11.7209 16.9186 9.54482 16.9186 6.86046C16.9186 4.1761 14.7425 2 12.0582 2C9.3738 2 7.19769 4.1761 7.19769 6.86046C7.19769 9.54482 9.3738 11.7209 12.0582 11.7209Z" fill="black"/>
<path fill-rule="evenodd" clip-rule="evenodd" d="M19.7041 13.0856L14.0801 18.7096C13.9559 18.8338 13.8861 19.0023 13.8861 19.178C13.8861 19.3537 13.9559 19.5221 14.0801 19.6463C14.2043 19.7706 14.3728 19.8404 14.5485 19.8404C14.7242 19.8404 14.8926 19.7706 15.0169 19.6463L20.6409 14.0224C20.7651 13.8981 20.8349 13.7297 20.8349 13.554C20.8349 13.3783 20.7651 13.2098 20.6409 13.0856C20.5166 12.9614 20.3482 12.8916 20.1725 12.8916C19.9968 12.8916 19.8283 12.9614 19.7041 13.0856Z" fill="black"/>
<path fill-rule="evenodd" clip-rule="evenodd" d="M17.3605 11.7266C14.7995 11.7266 12.7209 13.8051 12.7209 16.3661C12.7209 18.9271 14.7995 21.0056 17.3605 21.0056C19.9215 21.0056 22 18.9271 22 16.3661C22 13.8051 19.9215 11.7266 17.3605 11.7266ZM17.3605 13.0521C19.1898 13.0521 20.6744 14.5368 20.6744 16.3661C20.6744 18.1954 19.1898 19.68 17.3605 19.68C15.5312 19.68 14.0465 18.1954 14.0465 16.3661C14.0465 14.5368 15.5312 13.0521 17.3605 13.0521Z" fill="black"/>
<path fill-rule="evenodd" clip-rule="evenodd" d="M13.3174 20.1266C12.3647 19.1061 11.8356 17.7616 11.8372 16.3655C11.8372 14.8782 12.4267 13.527 13.3846 12.5337C12.9516 12.5001 12.5088 12.4824 12.0581 12.4824C9.12242 12.4824 6.5234 13.2168 4.90972 14.317C3.6787 15.1566 3 16.2232 3 17.3429V18.6243C2.99965 18.8217 3.03827 19.0172 3.11365 19.1996C3.18902 19.382 3.29967 19.5478 3.43924 19.6874C3.57882 19.8269 3.74457 19.9376 3.927 20.013C4.10943 20.0883 4.30494 20.127 4.50233 20.1266H13.3174Z" fill="black"/>
</svg>
