<svg width="24" height="24" viewBox="0 0 24 24" fill="none" xmlns="http://www.w3.org/2000/svg">
<path d="M19.517 3.71573H18.5965V2.18164H17.0624V3.71573H6.93744V2.18164H5.40335V3.71573H4.4829C3.21405 3.71573 2.18176 4.74802 2.18176 6.01687V19.5169C2.18176 20.7857 3.21405 21.818 4.4829 21.818H19.517C20.7858 21.818 21.8181 20.7857 21.8181 19.5169V6.01687C21.8181 4.74802 20.7858 3.71573 19.517 3.71573ZM20.284 19.5169C20.284 19.9398 19.9399 20.2839 19.517 20.2839H4.4829C4.05995 20.2839 3.71585 19.9398 3.71585 19.5169V9.39187H20.284V19.5169ZM20.284 7.85778H3.71585V6.01687C3.71585 5.59392 4.05995 5.24982 4.4829 5.24982H5.40335V6.78391H6.93744V5.24982H17.0624V6.78391H18.5965V5.24982H19.517C19.9399 5.24982 20.284 5.59392 20.284 6.01687V7.85778Z" fill="#4C0AE1"/>
<path d="M5.09656 11.0029H6.63065V12.537H5.09656V11.0029ZM8.16474 11.0029H9.69883V12.537H8.16474V11.0029ZM11.2329 11.0029H12.767V12.537H11.2329V11.0029ZM14.3011 11.0029H15.8352V12.537H14.3011V11.0029ZM17.3693 11.0029H18.9034V12.537H17.3693V11.0029ZM5.09656 14.0711H6.63065V15.6052H5.09656V14.0711ZM8.16474 14.0711H9.69883V15.6052H8.16474V14.0711ZM11.2329 14.0711H12.767V15.6052H11.2329V14.0711ZM14.3011 14.0711H15.8352V15.6052H14.3011V14.0711ZM5.09656 17.1393H6.63065V18.6734H5.09656V17.1393ZM8.16474 17.1393H9.69883V18.6734H8.16474V17.1393ZM11.2329 17.1393H12.767V18.6734H11.2329V17.1393ZM14.3011 17.1393H15.8352V18.6734H14.3011V17.1393ZM17.3693 14.0711H18.9034V15.6052H17.3693V14.0711Z" fill="#4C0AE1"/>
</svg>
