<svg width="15" height="13" viewBox="0 0 15 13" fill="none" xmlns="http://www.w3.org/2000/svg">
<path d="M7.49998 9.30774C8.82546 9.30774 9.89998 8.29751 9.89998 7.05133C9.89998 5.80515 8.82546 4.79492 7.49998 4.79492C6.17449 4.79492 5.09998 5.80515 5.09998 7.05133C5.09998 8.29751 6.17449 9.30774 7.49998 9.30774Z" fill="white"/>
<path d="M5.25 0L3.8775 1.41026H1.5C0.675 1.41026 0 2.04487 0 2.82051V11.2821C0 12.0577 0.675 12.6923 1.5 12.6923H13.5C14.325 12.6923 15 12.0577 15 11.2821V2.82051C15 2.04487 14.325 1.41026 13.5 1.41026H11.1225L9.75 0H5.25ZM7.5 10.5769C5.43 10.5769 3.75 8.99744 3.75 7.05128C3.75 5.10513 5.43 3.52564 7.5 3.52564C9.57 3.52564 11.25 5.10513 11.25 7.05128C11.25 8.99744 9.57 10.5769 7.5 10.5769Z" fill="white"/>
</svg>
