<svg width="28" height="29" viewBox="0 0 28 29" fill="none" xmlns="http://www.w3.org/2000/svg">
<g clip-path="url(#clip0_630_1158)">
<path d="M14.0003 18.0743C15.9057 18.0743 17.4503 16.5297 17.4503 14.6243C17.4503 12.7189 15.9057 11.1743 14.0003 11.1743C12.0949 11.1743 10.5503 12.7189 10.5503 14.6243C10.5503 16.5297 12.0949 18.0743 14.0003 18.0743Z" fill="black" fill-opacity="0.3"/>
<path d="M23.2002 5.42402H19.5547L18.1287 3.87152C17.7032 3.40002 17.0822 3.12402 16.4382 3.12402H11.5622C10.9182 3.12402 10.2972 3.40002 9.86024 3.87152L8.44574 5.42402H4.80024C3.53524 5.42402 2.50024 6.45902 2.50024 7.72402V21.524C2.50024 22.789 3.53524 23.824 4.80024 23.824H23.2002C24.4652 23.824 25.5002 22.789 25.5002 21.524V7.72402C25.5002 6.45902 24.4652 5.42402 23.2002 5.42402ZM14.0002 20.374C10.8262 20.374 8.25024 17.798 8.25024 14.624C8.25024 11.45 10.8262 8.87402 14.0002 8.87402C17.1742 8.87402 19.7502 11.45 19.7502 14.624C19.7502 17.798 17.1742 20.374 14.0002 20.374Z" fill="black" fill-opacity="0.3"/>
</g>
<defs>
<clipPath id="clip0_630_1158">
<rect width="27.6" height="27.6" fill="white" transform="translate(0.200195 0.824219)"/>
</clipPath>
</defs>
</svg>
