<svg width="70" height="78" viewBox="0 0 70 78" fill="none" xmlns="http://www.w3.org/2000/svg">
<g clip-path="url(#clip0_278_933)">
<path d="M42.7094 34.5573L51.8234 41.663C52.2284 41.9788 52.7717 41.9788 53.1767 41.663L62.2907 34.5573C64.1893 33.0845 65.3224 30.6987 65.3334 28.1505V13.0318C65.3341 12.5231 65.0591 12.0623 64.6334 11.8588L52.9667 6.33883C52.6718 6.19956 52.3376 6.19956 52.0427 6.33883L40.376 11.8588C39.9503 12.0623 39.6753 12.5231 39.676 13.0318V28.1505C39.6851 30.6968 40.8144 33.0821 42.7094 34.5573ZM42 13.8713L52.5 8.90461L63 13.8713V28.1505C62.9915 29.8751 62.2228 31.489 60.9362 32.4834L52.5 39.0538L44.0639 32.4758C42.7788 31.4834 42.0102 29.8726 42 28.1505V13.8713Z" fill="#A6A6A6"/>
<path d="M49.4666 31.0777C49.9707 31.492 50.684 31.393 51.0778 30.8541L60.4111 18.0763C60.8138 17.5252 60.7324 16.7208 60.2291 16.2798C59.7259 15.8387 58.9915 15.928 58.5888 16.4791L49.9554 28.2909L46.1999 25.1999C45.8665 24.926 45.425 24.8678 45.0416 25.0471C44.6583 25.2264 44.3915 25.6161 44.3416 26.0693C44.2918 26.5225 44.4665 26.9705 44.7999 27.2444L49.4666 31.0777Z" fill="#A6A6A6"/>
<path d="M2.33333 68.3884H3.5V73.4995C3.5 75.6166 5.067 77.3328 7 77.3328H14C15.933 77.3328 17.5 75.6166 17.5 73.4995V68.3884H45.5V73.4995C45.5 75.6166 47.067 77.3328 49 77.3328H56C57.933 77.3328 59.5 75.6166 59.5 73.4995V68.3884H60.6667C61.9553 68.3884 63 67.2442 63 65.8328V46.6662C63.0043 44.8143 62.267 43.0536 60.9828 41.849L64.9962 38.721C68.124 36.2882 69.9874 32.3515 70 28.1499V9.67196C70.0007 9.1632 69.7257 8.70247 69.3 8.49896L52.9667 0.770962C52.6718 0.631685 52.3375 0.631685 52.0427 0.770962L35.7 8.49896C35.2743 8.70247 34.9993 9.1632 35 9.67196V14.7217H17.3483C14.8749 14.7227 12.6708 16.432 11.8487 18.987L4.977 40.3718C2.12427 40.8317 0.00796503 43.5081 0 46.6662V65.8328C0 67.2442 1.04467 68.3884 2.33333 68.3884ZM15.1667 73.4995C15.1667 74.2052 14.6443 74.7773 14 74.7773H7C6.35567 74.7773 5.83333 74.2052 5.83333 73.4995V68.3884H15.1667V73.4995ZM10.5 65.8328H8.16667V63.2773H10.5V65.8328ZM57.1667 73.4995C57.1667 74.2052 56.6443 74.7773 56 74.7773H49C48.3557 74.7773 47.8333 74.2052 47.8333 73.4995V68.3884H57.1667V73.4995ZM54.8333 65.8328H52.5V63.2773H54.8333V65.8328ZM37.3333 10.5115L52.5 3.33546L67.6667 10.5115V28.1448C67.6551 31.5201 66.1566 34.6817 63.6428 36.6344L52.5 45.3271L41.3572 36.6382C38.8437 34.6858 37.3453 31.5248 37.3333 28.1499V10.5115ZM54.8333 47.944C55.4777 47.944 56 48.516 56 49.2217V51.7773C56 52.483 55.4777 53.0551 54.8333 53.0551H47.8333C47.189 53.0551 46.6667 52.483 46.6667 51.7773C46.6667 49.6602 48.2337 47.944 50.1667 47.944H54.8333ZM35 22.3884V24.944H26.8333V22.3884H35ZM35 19.8328H32.6667V17.2773H35V19.8328ZM14.0502 19.8328C14.5444 18.3019 15.8657 17.2781 17.3483 17.2773H30.3333V19.8328H26.8333C25.5447 19.8328 24.5 20.977 24.5 22.3884V24.944C24.5 26.3554 25.5447 27.4995 26.8333 27.4995H35V28.1499C35.0126 32.3515 36.876 36.2882 40.0038 38.721L42 40.2773H7.48067L14.0502 19.8328ZM2.33333 46.6662C2.33333 44.5491 3.90034 42.8328 5.83333 42.8328H45.2783L48.804 45.5826C46.1876 46.2711 44.3407 48.8302 44.3333 51.7773C44.3333 53.8944 45.9003 55.6106 47.8333 55.6106H54.8333C56.7663 55.6106 58.3333 53.8944 58.3333 51.7773V49.2217C58.3295 47.6433 57.4428 46.2289 56.0992 45.658L58.9878 43.4053C60.0341 44.0911 60.6723 45.3307 60.6667 46.6662L60.6667 65.8328H57.1667V63.2773C57.1667 61.8659 56.122 60.7217 54.8333 60.7217H52.5C51.2113 60.7217 50.1667 61.8659 50.1667 63.2773V65.8328H12.8333V63.2773C12.8333 61.8659 11.7887 60.7217 10.5 60.7217H8.16667C6.878 60.7217 5.83333 61.8659 5.83333 63.2773V65.8328H2.33333V46.6662Z" fill="#A6A6A6"/>
<path d="M20.9998 19.833H19.0037C17.5205 19.8348 16.1987 20.858 15.702 22.3886L11.3223 36.0199C11.1084 36.6857 11.4278 37.4154 12.0358 37.6497C12.6437 37.884 13.3099 37.5341 13.5238 36.8683L17.9035 23.2421C18.0678 22.7308 18.5088 22.3887 19.0037 22.3886H20.9998C21.6442 22.3886 22.1665 21.8165 22.1665 21.1108C22.1665 20.4051 21.6442 19.833 20.9998 19.833Z" fill="#A6A6A6"/>
<path d="M8.16675 55.6114H15.1667C17.0997 55.6114 18.6667 53.8951 18.6667 51.7781C18.6629 48.2513 16.0535 45.3934 12.8334 45.3892H8.16675C6.23375 45.3892 4.66675 47.1054 4.66675 49.2225V51.7781C4.66675 53.8951 6.23375 55.6114 8.16675 55.6114ZM7.00008 49.2225C7.00008 48.5168 7.52242 47.9447 8.16675 47.9447H12.8334C14.7664 47.9447 16.3334 49.661 16.3334 51.7781C16.3334 52.4837 15.8111 53.0558 15.1667 53.0558H8.16675C7.52242 53.0558 7.00008 52.4837 7.00008 51.7781V49.2225Z" fill="#A6A6A6"/>
<path d="M23.3333 63.2779H39.6667C40.9553 63.2779 42 62.1337 42 60.7223V55.6112C42 54.1998 40.9553 53.0557 39.6667 53.0557H23.3333C22.0447 53.0557 21 54.1998 21 55.6112V60.7223C21 62.1337 22.0447 63.2779 23.3333 63.2779ZM23.3333 55.6112H39.6667V60.7223H23.3333V55.6112Z" fill="#A6A6A6"/>
</g>
<defs>
<clipPath id="clip0_278_933">
<rect width="70" height="76.6667" fill="white" transform="translate(0 0.666504)"/>
</clipPath>
</defs>
</svg>
