<svg width="20" height="20" viewBox="0 0 20 20" fill="none" xmlns="http://www.w3.org/2000/svg">
<path d="M10 5.00049C7.25042 5.00049 5 7.25091 5 10.0005C5 12.7501 7.25042 15.0005 10 15.0005C12.7496 15.0005 15 12.7501 15 10.0005C15 7.25091 12.7496 5.00049 10 5.00049ZM10 7.00049C11.6687 7.00049 13 8.33179 13 10.0005C13 11.6692 11.6687 13.0005 10 13.0005C8.3313 13.0005 7 11.6692 7 10.0005C7 8.33179 8.3313 7.00049 10 7.00049Z" fill="#4C0AE1"/>
<path d="M4 0C1.8013 0 0 1.8013 0 4V6C0 6.26522 0.105357 6.51959 0.292893 6.70712C0.48043 6.89466 0.734784 7 1 7C1.26522 7 1.51957 6.89466 1.70711 6.70712C1.89464 6.51959 2 6.26522 2 6V4C2 2.8747 2.8747 2 4 2H6C6.26522 2 6.51957 1.89466 6.70711 1.70712C6.89464 1.51959 7 1.26522 7 1C7 0.734784 6.89464 0.480444 6.70711 0.292908C6.51957 0.105371 6.26522 0 6 0H4Z" fill="#4C0AE1"/>
<path d="M1 13C0.734784 13 0.48043 13.1054 0.292893 13.2929C0.105357 13.4804 0 13.7348 0 14V16C0 18.1987 1.8013 20 4 20H6C6.26522 20 6.51957 19.8947 6.70711 19.7071C6.89464 19.5196 7 19.2652 7 19C7 18.7348 6.89464 18.4804 6.70711 18.2929C6.51957 18.1054 6.26522 18 6 18H4C2.8747 18 2 17.1253 2 16V14C2 13.7348 1.89464 13.4804 1.70711 13.2929C1.51957 13.1054 1.26522 13 1 13Z" fill="#4C0AE1"/>
<path d="M19 13C18.7348 13 18.4804 13.1054 18.2929 13.2929C18.1054 13.4804 18 13.7348 18 14V16C18 17.1253 17.1253 18 16 18H14C13.7348 18 13.4804 18.1054 13.2929 18.2929C13.1054 18.4804 13 18.7348 13 19C13 19.2652 13.1054 19.5196 13.2929 19.7071C13.4804 19.8947 13.7348 20 14 20H16C18.1987 20 20 18.1987 20 16V14C20 13.7348 19.8946 13.4804 19.7071 13.2929C19.5196 13.1054 19.2652 13 19 13Z" fill="#4C0AE1"/>
<path d="M14 0C13.7348 0 13.4804 0.105371 13.2929 0.292908C13.1054 0.480444 13 0.734784 13 1C13 1.26522 13.1054 1.51959 13.2929 1.70712C13.4804 1.89466 13.7348 2 14 2H16C17.1253 2 18 2.8747 18 4V6C18 6.26522 18.1054 6.51959 18.2929 6.70712C18.4804 6.89466 18.7348 7 19 7C19.2652 7 19.5196 6.89466 19.7071 6.70712C19.8946 6.51959 20 6.26522 20 6V4C20 1.8013 18.1987 0 16 0H14Z" fill="#4C0AE1"/>
</svg>
