<svg width="24" height="24" viewBox="0 0 24 24" fill="none" xmlns="http://www.w3.org/2000/svg">
<path d="M19.0143 8.42115H9.76405L13.9064 4.27878C14.1352 4.04996 14.1352 3.67896 13.9064 3.4501L12.8568 2.40045C12.3228 1.86652 11.4572 1.86652 10.9232 2.40045L9.84393 3.47975L9.29145 2.92726C8.68225 2.31803 7.69092 2.31807 7.08168 2.92726L4.92714 5.0818C4.3179 5.69104 4.3179 6.68238 4.92714 7.29161L5.47959 7.8441L4.40032 8.92336C3.8664 9.45728 3.8664 10.323 4.40032 10.8569L5.44998 11.9066C5.67876 12.1354 6.0498 12.1354 6.27862 11.9066L7.76377 10.4214V19.4608C7.76377 20.8632 8.90061 22 10.3029 22H16.4751C17.8774 22 19.0143 20.8632 19.0143 19.4608V8.42115ZM6.30827 7.01537L5.75583 6.46293C5.60353 6.31063 5.60353 6.06279 5.75583 5.91045L7.91036 3.75591C8.0627 3.60357 8.31055 3.60361 8.46281 3.75591L9.01525 4.30839L6.30827 7.01537ZM11.368 18.7186C11.368 19.0422 11.1057 19.3045 10.782 19.3045C10.4584 19.3045 10.1961 19.0422 10.1961 18.7186V11.7026C10.1961 11.3789 10.4584 11.1166 10.782 11.1166C11.1057 11.1166 11.368 11.3789 11.368 11.7026V18.7186ZM13.975 18.7186C13.975 19.0422 13.7126 19.3045 13.389 19.3045C13.0654 19.3045 12.8031 19.0422 12.8031 18.7186V11.7026C12.8031 11.3789 13.0654 11.1166 13.389 11.1166C13.7126 11.1166 13.975 11.3789 13.975 11.7026V18.7186ZM16.582 18.7186C16.582 19.0422 16.3196 19.3045 15.996 19.3045C15.6724 19.3045 15.41 19.0422 15.41 18.7186V11.7026C15.41 11.3789 15.6724 11.1166 15.996 11.1166C16.3196 11.1166 16.582 11.3789 16.582 11.7026V18.7186Z" fill="black"/>
<path d="M14.0418 6.43497C13.8679 6.49572 13.7146 6.60437 13.5997 6.7484C13.4848 6.89242 13.4128 7.06598 13.3922 7.24908H19.0144V6.27521C19.0144 5.60652 18.3564 5.13591 17.7245 5.35016L14.054 6.43106C14.05 6.43219 14.0457 6.43376 14.0418 6.43497Z" fill="black"/>
</svg>
