<svg width="24" height="24" viewBox="0 0 24 24" fill="none" xmlns="http://www.w3.org/2000/svg">
<path d="M18.7407 5.03809H18.2144V17.9686C18.2144 18.8276 17.5151 19.5268 16.6561 19.5268H7.08276V20.0061C7.08276 20.555 7.52825 21.0005 8.07713 21.0005H18.7388C19.2877 21.0005 19.7331 20.555 19.7331 20.0061V6.03245C19.7332 5.48358 19.2895 5.03809 18.7407 5.03809Z" fill="black"/>
<path d="M11.3233 18.9624H16.6541C17.203 18.9624 17.6485 18.5169 17.6485 17.9681V3.99436C17.6485 3.44549 17.203 3 16.6541 3H9.55076V3.32895C9.5545 3.36278 9.5564 3.3985 9.5564 3.43421V6.1579C9.5564 6.93046 8.92858 7.55828 8.15602 7.55828H5.43233C5.40414 7.55828 5.37406 7.5564 5.34587 7.55452H5V17.9681C5 18.5169 5.44549 18.9624 5.99436 18.9624H11.3233ZM11.5244 15.5827H8.04888C7.78948 15.5827 7.57895 15.3722 7.57895 15.1128C7.57895 14.8534 7.78948 14.6429 8.04888 14.6429H11.5263C11.7857 14.6429 11.9962 14.8534 11.9962 15.1128C11.9962 15.3722 11.7838 15.5827 11.5244 15.5827ZM15.0019 13.1842H8.04888C7.78948 13.1842 7.57895 12.9737 7.57895 12.7143C7.57895 12.4549 7.78948 12.2444 8.04888 12.2444H15.0019C15.2613 12.2444 15.4718 12.4549 15.4718 12.7143C15.4718 12.9737 15.2613 13.1842 15.0019 13.1842ZM8.04888 9.69738H15.0019C15.2613 9.69738 15.4718 9.9079 15.4718 10.1673C15.4718 10.4267 15.2613 10.6372 15.0019 10.6372H8.04888C7.78948 10.6372 7.57895 10.4267 7.57895 10.1673C7.57895 9.9079 7.78948 9.69738 8.04888 9.69738Z" fill="black"/>
<path d="M5.4324 6.99398H8.1636C8.61849 6.99022 8.98691 6.6218 8.99067 6.16691V3.43382C8.99067 3.18194 8.7839 3.01465 8.56964 3.01465C8.46625 3.01465 8.36287 3.05224 8.2764 3.13871L5.1354 6.27969C4.87224 6.54285 5.05834 6.99398 5.4324 6.99398Z" fill="black"/>
</svg>
