<svg width="24" height="24" viewBox="0 0 24 24" fill="none" xmlns="http://www.w3.org/2000/svg">
<path d="M5.75003 14.4754C4.76365 14.4749 3.8126 14.8426 3.08303 15.5064C2.92156 15.6469 2.77297 15.8015 2.63903 15.9684C2.06096 16.6757 1.7467 17.5619 1.75003 18.4754C1.75131 19.2311 1.96628 19.9711 2.37011 20.6098C2.77395 21.2486 3.35019 21.7601 4.03232 22.0854C4.71445 22.4107 5.47466 22.5364 6.2252 22.4481C6.97574 22.3598 7.68601 22.0611 8.27403 21.5864C8.84315 21.1181 9.27362 20.5033 9.51903 19.8084C9.67329 19.381 9.75148 18.9298 9.75003 18.4754C9.75003 17.4145 9.3286 16.3971 8.57845 15.647C7.82831 14.8968 6.81089 14.4754 5.75003 14.4754ZM8.11503 20.2174C8.08775 20.2759 8.05167 20.3298 8.00803 20.3774L7.28803 21.0884C7.24477 21.1344 7.19233 21.1708 7.13411 21.1953C7.07588 21.2197 7.01317 21.2317 6.95003 21.2304C6.88543 21.2326 6.82111 21.2211 6.76129 21.1966C6.70148 21.1721 6.64754 21.1353 6.60303 21.0884C6.52937 21.0153 6.48168 20.9201 6.46723 20.8174C6.45279 20.7146 6.47238 20.61 6.52303 20.5194H4.51403C4.20424 20.5178 3.90773 20.3934 3.68953 20.1735C3.47132 19.9536 3.34923 19.6562 3.35003 19.3464V19.2464C3.35003 19.1167 3.40155 18.9923 3.49325 18.9006C3.58496 18.8089 3.70934 18.7574 3.83903 18.7574C3.96872 18.7574 4.0931 18.8089 4.1848 18.9006C4.27651 18.9923 4.32803 19.1167 4.32803 19.2464V19.3464C4.32668 19.3718 4.33047 19.3973 4.33916 19.4212C4.34785 19.4452 4.36128 19.4672 4.37863 19.4858C4.39598 19.5045 4.41691 19.5195 4.44017 19.5299C4.46343 19.5403 4.48855 19.5459 4.51403 19.5464H6.52303C6.46608 19.4444 6.44796 19.3252 6.47201 19.2109C6.49606 19.0965 6.56065 18.9948 6.65387 18.9243C6.74709 18.8539 6.86264 18.8196 6.9792 18.8277C7.09575 18.8358 7.20545 18.8857 7.28803 18.9684L8.00803 19.6884C8.05341 19.7345 8.08971 19.7888 8.11503 19.8484C8.1581 19.9676 8.1581 20.0982 8.11503 20.2174ZM8.15003 17.7004C8.15003 17.8301 8.09851 17.9545 8.0068 18.0462C7.9151 18.1379 7.79072 18.1894 7.66103 18.1894C7.53134 18.1894 7.40696 18.1379 7.31525 18.0462C7.22355 17.9545 7.17203 17.8301 7.17203 17.7004V17.6004C7.17337 17.5749 7.16959 17.5495 7.16089 17.5255C7.1522 17.5016 7.13878 17.4796 7.12142 17.461C7.10407 17.4423 7.08314 17.4273 7.05988 17.4169C7.03662 17.4065 7.0115 17.4009 6.98603 17.4004H4.97703C5.03397 17.5024 5.05209 17.6216 5.02804 17.7359C5.00399 17.8503 4.9394 17.952 4.84618 18.0225C4.75296 18.0929 4.63741 18.1272 4.52085 18.1191C4.4043 18.111 4.29461 18.061 4.21203 17.9784L3.49203 17.2584C3.44669 17.2124 3.4107 17.1581 3.38603 17.0984C3.34101 16.9781 3.34101 16.8457 3.38603 16.7254C3.41255 16.6667 3.44834 16.6127 3.49203 16.5654L4.21203 15.8544C4.29337 15.7711 4.40219 15.7201 4.51828 15.7109C4.63438 15.7017 4.74986 15.7349 4.84331 15.8044C4.93675 15.8739 5.00181 15.975 5.0264 16.0888C5.05099 16.2026 5.03345 16.3215 4.97703 16.4234H6.98603C7.13976 16.4242 7.29183 16.4553 7.43354 16.5148C7.57526 16.5744 7.70384 16.6614 7.81194 16.7707C7.92004 16.88 8.00554 17.0095 8.06355 17.1519C8.12156 17.2943 8.15095 17.4467 8.15003 17.6004V17.7004ZM22.25 13.9714V14.9714C22.2501 15.1019 22.199 15.2273 22.1078 15.3208C22.0167 15.4142 21.8925 15.4683 21.762 15.4714H20.306C20.0486 15.4768 19.7983 15.3865 19.6036 15.2181C19.4089 15.0496 19.2837 14.8149 19.252 14.5594C19.2407 14.4211 19.2581 14.2819 19.3032 14.1506C19.3483 14.0193 19.4201 13.8988 19.514 13.7966C19.6079 13.6944 19.722 13.6128 19.849 13.5568C19.976 13.5008 20.1132 13.4718 20.252 13.4714H21.767C21.897 13.4758 22.0202 13.5307 22.1103 13.6244C22.2005 13.7182 22.2506 13.8433 22.25 13.9734V13.9714ZM18.49 7.22539H15.6V3.42539C15.5987 2.92189 15.3981 2.43938 15.0421 2.08335C14.686 1.72731 14.2035 1.52671 13.7 1.52539C13.4714 1.52631 13.2447 1.56692 13.03 1.64539L5.09003 4.64539C4.54815 4.85045 4.08171 5.2159 3.75294 5.69296C3.42418 6.17003 3.24874 6.73602 3.25003 7.31539V12.7624C3.25487 12.8504 3.28026 12.9361 3.32415 13.0126C3.36804 13.089 3.42921 13.1542 3.50278 13.2028C3.57635 13.2514 3.66027 13.2821 3.74783 13.2924C3.83539 13.3028 3.92415 13.2925 4.00703 13.2624C4.56837 13.0717 5.15719 12.9745 5.75003 12.9744C7.2079 12.977 8.60532 13.5573 9.63619 14.5882C10.6671 15.6191 11.2474 17.0165 11.25 18.4744C11.2323 19.2353 11.0648 19.9853 10.757 20.6814C10.7197 20.7649 10.7034 20.8563 10.7093 20.9476C10.7152 21.0389 10.7432 21.1274 10.7909 21.2055C10.8387 21.2835 10.9047 21.3488 10.9833 21.3956C11.0619 21.4425 11.1507 21.4695 11.242 21.4744H18.49C19.4866 21.4723 20.4417 21.0755 21.1464 20.3708C21.8511 19.6661 22.2479 18.711 22.25 17.7144V17.5244C22.25 17.2592 22.1447 17.0048 21.9571 16.8173C21.7696 16.6297 21.5152 16.5244 21.25 16.5244H20.38C19.908 16.5371 19.4447 16.3957 19.0603 16.1214C18.6759 15.8471 18.3915 15.4549 18.25 15.0044C18.1542 14.6563 18.1537 14.2888 18.2487 13.9404C18.3438 13.592 18.5307 13.2757 18.79 13.0244C18.9774 12.8327 19.2015 12.6807 19.4489 12.5776C19.6963 12.4746 19.962 12.4224 20.23 12.4244H21.25C21.5152 12.4244 21.7696 12.319 21.9571 12.1315C22.1447 11.944 22.25 11.6896 22.25 11.4244V10.9844C22.2476 9.988 21.8507 9.03311 21.1461 8.32865C20.4414 7.62419 19.4864 7.2275 18.49 7.22539ZM4.75003 7.98539V7.31539C4.74735 7.04005 4.82938 6.77053 4.985 6.54337C5.14062 6.3162 5.36231 6.14236 5.62003 6.04539L13.55 3.05539C13.6107 3.03085 13.6764 3.02157 13.7415 3.02836C13.8066 3.03514 13.869 3.05779 13.9233 3.09431C13.9776 3.13083 14.0221 3.18012 14.0529 3.23784C14.0837 3.29556 14.0999 3.35996 14.1 3.42539V7.22539H7.01003C6.19354 7.22285 5.39907 7.49002 4.75003 7.98539ZM14.75 12.2254H9.75003C9.55111 12.2254 9.36035 12.1464 9.2197 12.0057C9.07904 11.8651 9.00003 11.6743 9.00003 11.4754C9.00003 11.2765 9.07904 11.0857 9.2197 10.9451C9.36035 10.8044 9.55111 10.7254 9.75003 10.7254H14.75C14.9489 10.7254 15.1397 10.8044 15.2804 10.9451C15.421 11.0857 15.5 11.2765 15.5 11.4754C15.5 11.6743 15.421 11.8651 15.2804 12.0057C15.1397 12.1464 14.9489 12.2254 14.75 12.2254Z" fill="#AFAFAF"/>
</svg>
