<svg width="24" height="24" viewBox="0 0 24 24" fill="none" xmlns="http://www.w3.org/2000/svg">
<path d="M16.75 7C16.75 9.619 14.619 11.75 12 11.75C9.381 11.75 7.25 9.619 7.25 7C7.25 4.381 9.381 2.25 12 2.25C14.619 2.25 16.75 4.381 16.75 7ZM10.7 16.29L13.52 13.47C13.4524 13.4005 13.3716 13.3452 13.2823 13.3074C13.193 13.2696 13.097 13.2501 13 13.25H9C5.83 13.25 3.25 15.83 3.25 19C3.25 20.52 4.48 21.75 6 21.75H10.27C9.94 21.25 9.75 20.65 9.75 20V18.59C9.75 17.72 10.09 16.9 10.7 16.29ZM14.525 14.586L11.762 17.349C11.431 17.679 11.249 18.119 11.249 18.586V20C11.249 20.965 12.034 21.75 12.999 21.75H14.413C14.88 21.75 15.32 21.568 15.65 21.237L18.413 18.474L14.524 14.585L14.525 14.586ZM20.308 14.106L18.894 12.692C18.234 12.033 17.081 12.031 16.419 12.692L15.585 13.526L19.474 17.415L20.308 16.581C20.639 16.251 20.821 15.811 20.821 15.344C20.821 14.877 20.639 14.438 20.309 14.107L20.308 14.106Z" fill="black"/>
</svg>
