<svg width="24" height="24" viewBox="0 0 24 24" fill="none" xmlns="http://www.w3.org/2000/svg">
<path d="M14.4705 9C13.4745 9 13.0357 9.71025 12.6705 10.4377C12.6009 10.5538 12.5024 10.6498 12.3846 10.7165C12.2668 10.7831 12.1338 10.8182 11.9985 10.8182C11.8632 10.8182 11.7302 10.7831 11.6124 10.7165C11.4946 10.6498 11.3961 10.5538 11.3265 10.4377C10.9628 9.71025 10.524 9 9.5265 9C8.98895 9.00139 8.47385 9.21575 8.09402 9.59614C7.71419 9.97653 7.50059 10.4919 7.5 11.0295C7.5 14.0055 11.0003 15.7545 12 16.1895C12.9983 15.75 16.5 13.9943 16.5 11.0295C16.4994 10.4914 16.2854 9.97556 15.9049 9.59508C15.5244 9.21461 15.0086 9.0006 14.4705 9Z" fill="black"/>
<path d="M12 2.25C10.0716 2.25 8.18657 2.82183 6.58319 3.89317C4.97982 4.96451 3.73013 6.48726 2.99218 8.26884C2.25422 10.0504 2.06114 12.0108 2.43735 13.9021C2.81355 15.7934 3.74215 17.5307 5.10571 18.8943C6.46928 20.2579 8.20656 21.1865 10.0979 21.5627C11.9892 21.9389 13.9496 21.7458 15.7312 21.0078C17.5127 20.2699 19.0355 19.0202 20.1068 17.4168C21.1782 15.8134 21.75 13.9284 21.75 12C21.747 9.41505 20.7188 6.93683 18.891 5.109C17.0632 3.28116 14.585 2.25298 12 2.25ZM12.2625 17.7037C12.0934 17.7678 11.9067 17.7678 11.7375 17.7037C11.5035 17.6167 6 15.5138 6 11.0287C6.0012 10.0931 6.37346 9.19613 7.03513 8.5346C7.69681 7.87306 8.59386 7.50099 9.5295 7.5C10.0047 7.4914 10.4753 7.59361 10.9042 7.79851C11.333 8.00342 11.7082 8.30539 12 8.6805C12.2918 8.30539 12.667 8.00342 13.0959 7.79851C13.5247 7.59361 13.9953 7.4914 14.4705 7.5C15.4063 7.50099 16.3034 7.87317 16.9651 8.53486C17.6268 9.19656 17.999 10.0937 18 11.0295C18 15.5138 12.4965 17.6167 12.2625 17.7037Z" fill="black"/>
</svg>
