<svg width="135" height="90" viewBox="0 0 135 90" fill="none" xmlns="http://www.w3.org/2000/svg">
<path d="M28.9778 9.74219H13.4647C12.8034 9.74219 12.2672 10.2584 12.2672 10.8951V24.4512C12.2672 25.088 12.8034 25.6042 13.4647 25.6042H28.9778C29.6392 25.6042 30.1753 25.088 30.1753 24.4512V10.8951C30.1753 10.2584 29.6392 9.74219 28.9778 9.74219Z" fill="white"/>
<path d="M26.3641 12.4141H16.0783C15.6398 12.4141 15.2843 12.7563 15.2843 13.1785V22.1669C15.2843 22.5891 15.6398 22.9314 16.0783 22.9314H26.3641C26.8026 22.9314 27.1581 22.5891 27.1581 22.1669V13.1785C27.1581 12.7563 26.8026 12.4141 26.3641 12.4141Z" fill="#4C0AE1"/>
<path d="M94.8229 40.8622C96.1581 40.8622 97.2404 39.8201 97.2404 38.5346C97.2404 37.2491 96.1581 36.207 94.8229 36.207C93.4877 36.207 92.4053 37.2491 92.4053 38.5346C92.4053 39.8201 93.4877 40.8622 94.8229 40.8622Z" fill="white"/>
<path d="M112.686 40.863C114.541 40.863 116.044 39.4156 116.044 37.6302C116.044 35.8448 114.541 34.3975 112.686 34.3975C110.832 34.3975 109.328 35.8448 109.328 37.6302C109.328 39.4156 110.832 40.863 112.686 40.863Z" fill="#4C0AE1"/>
<path d="M115.238 48.8789C114.882 48.8789 114.54 49.0151 114.289 49.2577C114.037 49.5002 113.895 49.8291 113.895 50.172C113.895 52.497 109.758 55.0858 103.822 55.0858C100.98 55.0858 98.5515 54.4936 96.7894 53.6194C94.8714 52.6677 93.7486 51.3849 93.7486 50.172C93.7486 49.8291 93.6071 49.5002 93.3552 49.2577C93.1033 49.0151 92.7617 48.8789 92.4055 48.8789C92.0493 48.8789 91.7076 49.0151 91.4558 49.2577C91.2039 49.5002 91.0624 49.8291 91.0624 50.172C91.0624 52.347 92.5613 54.2789 95.0004 55.6341C97.2756 56.9065 100.367 57.672 103.822 57.672C110.978 57.672 116.581 54.3772 116.581 50.172C116.581 49.8291 116.44 49.5002 116.188 49.2577C115.936 49.0151 115.594 48.8789 115.238 48.8789Z" fill="#4C0AE1"/>
<path d="M96.7894 53.6194C96.2038 54.2996 95.6074 54.9711 95.0004 55.6341C92.5613 54.2789 91.0624 52.347 91.0624 50.172C91.0624 49.8291 91.2039 49.5002 91.4558 49.2577C91.7076 49.0151 92.0493 48.8789 92.4055 48.8789C92.7617 48.8789 93.1033 49.0151 93.3552 49.2577C93.6071 49.5002 93.7486 49.8291 93.7486 50.172C93.7486 51.3849 94.8714 52.6677 96.7894 53.6194Z" fill="white"/>
<path d="M69.304 8.53516H38.1442C36.7101 8.53516 35.5475 9.65442 35.5475 11.0351C35.5475 12.4158 36.7101 13.5351 38.1442 13.5351H69.304C70.7381 13.5351 71.9007 12.4158 71.9007 11.0351C71.9007 9.65442 70.7381 8.53516 69.304 8.53516Z" fill="#4C0AE1"/>
<path d="M78.9746 8.53516H77.945C76.5109 8.53516 75.3483 9.65442 75.3483 11.0351C75.3483 12.4158 76.5109 13.5351 77.945 13.5351H78.9746C80.4088 13.5351 81.5714 12.4158 81.5714 11.0351C81.5714 9.65442 80.4088 8.53516 78.9746 8.53516Z" fill="#4C0AE1"/>
<path d="M124.092 0H10.2183C7.5092 0.00294338 4.9119 1.04038 2.99626 2.88471C1.08061 4.72905 0.00305719 7.22965 0 9.83793V80.1621C0.00305719 82.7703 1.08061 85.271 2.99626 87.1153C4.9119 88.9596 7.5092 89.9971 10.2183 90H12.2679C12.6241 90 12.9657 89.8638 13.2176 89.6213C13.4695 89.3788 13.611 89.0498 13.611 88.7069C13.611 88.3639 13.4695 88.035 13.2176 87.7925C12.9657 87.55 12.6241 87.4138 12.2679 87.4138H10.2183C8.22139 87.4116 6.30688 86.6469 4.89483 85.2874C3.48277 83.9279 2.68848 82.0847 2.68621 80.1621V9.83793C2.68848 7.91533 3.48277 6.07209 4.89483 4.71261C6.30688 3.35312 8.22139 2.5884 10.2183 2.58621H124.092C126.089 2.5884 128.003 3.35312 129.416 4.71261C130.828 6.07209 131.622 7.91533 131.624 9.83793V80.1621C131.622 82.0847 130.828 83.9279 129.416 85.2874C128.003 86.6469 126.089 87.4116 124.092 87.4138H18.1776C17.8214 87.4138 17.4797 87.55 17.2278 87.7925C16.976 88.035 16.8345 88.3639 16.8345 88.7069C16.8345 89.0498 16.976 89.3788 17.2278 89.6213C17.4797 89.8638 17.8214 90 18.1776 90H124.092C126.801 89.9971 129.398 88.9596 131.314 87.1153C133.23 85.271 134.307 82.7703 134.31 80.1621V9.83793C134.307 7.22965 133.23 4.72905 131.314 2.88471C129.398 1.04038 126.801 0.00294338 124.092 0Z" fill="#4C0AE1"/>
<path d="M111.478 21.724H87.7932C84.5666 21.724 81.8406 24.2311 81.8406 27.199V57.1111C81.8406 60.4711 84.4554 63.1033 87.7932 63.1033H118.865C120.443 63.1013 121.957 62.4965 123.073 61.4217C124.19 60.3469 124.818 58.8897 124.82 57.3697V27.4576C124.818 25.9376 124.19 24.4804 123.073 23.4056C121.957 22.3308 120.443 21.7261 118.865 21.724H117.387C117.031 21.724 116.689 21.8603 116.437 22.1028C116.186 22.3453 116.044 22.6742 116.044 23.0171C116.044 23.3601 116.186 23.689 116.437 23.9315C116.689 24.174 117.031 24.3102 117.387 24.3102H118.865C119.731 24.3111 120.562 24.643 121.175 25.2331C121.788 25.8231 122.133 26.6232 122.134 27.4576V57.3697C122.133 58.2042 121.788 59.0042 121.175 59.5943C120.562 60.1843 119.731 60.5162 118.865 60.5171H87.7932C85.9309 60.5171 84.5268 59.0528 84.5268 57.1111V27.199C84.5268 25.6602 86.0534 24.3102 87.7932 24.3102H111.478C111.834 24.3102 112.175 24.174 112.427 23.9315C112.679 23.689 112.821 23.3601 112.821 23.0171C112.821 22.6742 112.679 22.3453 112.427 22.1028C112.175 21.8603 111.834 21.724 111.478 21.724ZM12.2671 26.8964H30.1752C30.5314 26.8964 30.873 26.7602 31.1249 26.5177C31.3768 26.2752 31.5183 25.9463 31.5183 25.6033V9.74135C31.5183 9.39839 31.3768 9.06949 31.1249 8.82698C30.873 8.58448 30.5314 8.44824 30.1752 8.44824H12.2671C11.9108 8.44824 11.5692 8.58448 11.3173 8.82698C11.0655 9.06949 10.924 9.39839 10.924 9.74135V25.6033C10.924 25.9463 11.0655 26.2752 11.3173 26.5177C11.5692 26.7602 11.9108 26.8964 12.2671 26.8964ZM13.6102 11.0344H28.8321V24.3102H13.6102V11.0344ZM12.2671 38.2757H53.9927C54.3489 38.2757 54.6905 38.1395 54.9424 37.897C55.1943 37.6545 55.3358 37.3256 55.3358 36.9826C55.3358 36.6397 55.1943 36.3108 54.9424 36.0683C54.6905 35.8258 54.3489 35.6895 53.9927 35.6895H12.2671C11.9108 35.6895 11.5692 35.8258 11.3173 36.0683C11.0655 36.3108 10.924 36.6397 10.924 36.9826C10.924 37.3256 11.0655 37.6545 11.3173 37.897C11.5692 38.1395 11.9108 38.2757 12.2671 38.2757ZM12.2671 49.6551H53.9927C54.3489 49.6551 54.6905 49.5188 54.9424 49.2763C55.1943 49.0338 55.3358 48.7049 55.3358 48.3619C55.3358 48.019 55.1943 47.6901 54.9424 47.4476C54.6905 47.2051 54.3489 47.0688 53.9927 47.0688H12.2671C11.9108 47.0688 11.5692 47.2051 11.3173 47.4476C11.0655 47.6901 10.924 48.019 10.924 48.3619C10.924 48.7049 11.0655 49.0338 11.3173 49.2763C11.5692 49.5188 11.9108 49.6551 12.2671 49.6551ZM12.2671 61.0344H53.9927C54.3489 61.0344 54.6905 60.8981 54.9424 60.6556C55.1943 60.4131 55.3358 60.0842 55.3358 59.7413C55.3358 59.3983 55.1943 59.0694 54.9424 58.8269C54.6905 58.5844 54.3489 58.4482 53.9927 58.4482H12.2671C11.9108 58.4482 11.5692 58.5844 11.3173 58.8269C11.0655 59.0694 10.924 59.3983 10.924 59.7413C10.924 60.0842 11.0655 60.4131 11.3173 60.6556C11.5692 60.8981 11.9108 61.0344 12.2671 61.0344ZM59.9918 77.3275C59.9937 78.9045 60.6452 80.4164 61.8034 81.5316C62.9617 82.6467 64.5321 83.274 66.1701 83.2757H118.641C120.279 83.2757 121.851 82.649 123.01 81.5335C124.168 80.418 124.819 78.905 124.819 77.3275C124.819 75.7499 124.168 74.2369 123.01 73.1214C121.851 72.0059 120.279 71.3792 118.641 71.3792H66.1701C64.5321 71.381 62.9617 72.0082 61.8034 73.1234C60.6452 74.2385 59.9937 75.7504 59.9918 77.3275ZM122.133 77.3275C122.132 78.2188 121.763 79.0734 121.109 79.7037C120.454 80.334 119.566 80.6885 118.641 80.6895H66.1701C65.2439 80.6895 64.3557 80.3353 63.7008 79.7048C63.0459 79.0743 62.678 78.2191 62.678 77.3275C62.678 76.4358 63.0459 75.5806 63.7008 74.9501C64.3557 74.3196 65.2439 73.9654 66.1701 73.9654H118.641C119.567 73.9664 120.454 74.321 121.109 74.9513C121.764 75.5816 122.132 76.4361 122.133 77.3275H122.133Z" fill="#4C0AE1"/>
<path d="M94.8231 42.1552C95.5669 42.1552 96.294 41.9429 96.9124 41.545C97.5308 41.1472 98.0129 40.5817 98.2975 39.9201C98.5821 39.2585 98.6566 38.5305 98.5115 37.8282C98.3664 37.1258 98.0082 36.4807 97.4823 35.9743C96.9563 35.468 96.2862 35.1231 95.5567 34.9834C94.8272 34.8437 94.0711 34.9154 93.3839 35.1895C92.6967 35.4635 92.1094 35.9276 91.6962 36.523C91.2829 37.1184 91.0624 37.8184 91.0624 38.5345C91.0635 39.4945 91.4601 40.4148 92.1651 41.0936C92.8701 41.7723 93.826 42.1541 94.8231 42.1552ZM94.8231 37.5001C95.0356 37.5001 95.2433 37.5607 95.42 37.6744C95.5967 37.7881 95.7344 37.9496 95.8158 38.1387C95.8971 38.3277 95.9184 38.5357 95.8769 38.7364C95.8354 38.937 95.7331 39.1214 95.5828 39.266C95.4326 39.4107 95.2411 39.5092 95.0327 39.5492C94.8243 39.5891 94.6082 39.5686 94.4119 39.4903C94.2155 39.412 94.0477 39.2794 93.9297 39.1093C93.8116 38.9392 93.7486 38.7392 93.7486 38.5345C93.7486 38.2602 93.8618 37.9971 94.0633 37.8031C94.2648 37.6091 94.5381 37.5001 94.8231 37.5001ZM112.686 33.1035C111.757 33.1035 110.848 33.369 110.075 33.8663C109.302 34.3636 108.699 35.0704 108.343 35.8974C107.988 36.7244 107.894 37.6344 108.076 38.5123C108.257 39.3903 108.705 40.1967 109.362 40.8296C110.02 41.4626 110.857 41.8936 111.769 42.0683C112.681 42.2429 113.626 42.1533 114.485 41.8107C115.344 41.4682 116.078 40.8881 116.595 40.1438C117.112 39.3995 117.387 38.5245 117.387 37.6294C117.386 36.4295 116.89 35.2791 116.009 34.4306C115.128 33.5822 113.933 33.1049 112.686 33.1035ZM112.686 39.569C112.288 39.569 111.898 39.4553 111.567 39.2421C111.236 39.029 110.978 38.7261 110.825 38.3717C110.673 38.0172 110.633 37.6272 110.71 37.251C110.788 36.8747 110.98 36.5291 111.262 36.2578C111.544 35.9866 111.903 35.8018 112.293 35.727C112.684 35.6521 113.089 35.6906 113.457 35.8374C113.825 35.9842 114.14 36.2328 114.361 36.5518C114.583 36.8707 114.701 37.2457 114.701 37.6294C114.7 38.1436 114.488 38.6367 114.11 39.0003C113.733 39.364 113.22 39.5685 112.686 39.569ZM103.822 57.6725C110.977 57.6725 116.581 54.3782 116.581 50.1725C116.581 49.8295 116.44 49.5006 116.188 49.2581C115.936 49.0156 115.594 48.8794 115.238 48.8794C114.882 48.8794 114.54 49.0156 114.289 49.2581C114.037 49.5006 113.895 49.8295 113.895 50.1725C113.895 52.4964 109.758 55.0863 103.822 55.0863C97.8853 55.0863 93.7486 52.4964 93.7486 50.1725C93.7486 49.8295 93.6071 49.5006 93.3552 49.2581C93.1033 49.0156 92.7617 48.8794 92.4055 48.8794C92.0493 48.8794 91.7076 49.0156 91.4558 49.2581C91.2039 49.5006 91.0624 49.8295 91.0624 50.1725C91.0624 54.3782 96.6669 57.6725 103.822 57.6725Z" fill="#4C0AE1"/>
</svg>
