<svg width="134" height="90" viewBox="0 0 134 90" fill="none" xmlns="http://www.w3.org/2000/svg">
<path d="M125.096 0H8.85767C3.97361 0 0 3.97361 0 8.85741V81.1421C0 86.0264 3.97361 90 8.85767 90H125.096C129.98 90 133.953 86.0264 133.953 81.1423V8.85741C133.953 3.97361 129.98 0 125.096 0ZM129.767 81.1423C129.767 83.7183 127.672 85.814 125.096 85.814H8.85767C6.28169 85.814 4.18605 83.7181 4.18605 81.1423V8.85741C4.18605 6.28169 6.28169 4.18605 8.85767 4.18605H125.096C127.672 4.18605 129.767 6.28169 129.767 8.85741V81.1423ZM60.8717 19.2951H13.6478C12.4919 19.2951 11.5548 20.2322 11.5548 21.3881V68.6119C11.5548 69.7678 12.4919 70.7049 13.6478 70.7049H60.8717C62.0275 70.7049 62.9647 69.7678 62.9647 68.6119V21.3881C62.9647 20.2322 62.0275 19.2951 60.8717 19.2951ZM48.1966 66.5189H26.3232V63.5968C26.3232 57.5662 31.2292 52.6602 37.2597 52.6602C43.2903 52.6602 48.1966 57.5662 48.1966 63.5968V66.5189ZM58.7786 66.5189H52.3826V63.5968C52.3826 55.2582 45.5983 48.4742 37.2597 48.4742C28.9211 48.4742 22.1371 55.2582 22.1371 63.5968V66.5189H15.7411V23.4811H58.7789L58.7786 66.5189ZM37.26 46.6174C42.301 46.6174 46.4023 42.5161 46.4023 37.4751C46.4023 32.434 42.301 28.333 37.26 28.333C32.219 28.333 28.1177 32.4343 28.1177 37.4751C28.1177 42.5161 32.2187 46.6174 37.26 46.6174ZM37.26 32.5188C39.993 32.5188 42.2163 34.7421 42.2163 37.4748C42.2163 40.2078 39.993 42.4311 37.26 42.4311C34.527 42.4311 32.3037 40.2078 32.3037 37.4748C32.3037 34.7421 34.527 32.5188 37.26 32.5188ZM81.0285 37.711C81.0285 38.8669 80.0914 39.8041 78.9355 39.8041H71.2834C70.1275 39.8041 69.1904 38.8669 69.1904 37.711C69.1904 36.5552 70.1275 35.618 71.2834 35.618H78.9355C80.0914 35.618 81.0285 36.5552 81.0285 37.711ZM122.399 37.711C122.399 38.8669 121.462 39.8041 120.306 39.8041H86.524C85.3681 39.8041 84.431 38.8669 84.431 37.711C84.431 36.5552 85.3681 35.618 86.524 35.618H120.306C121.462 35.618 122.399 36.5552 122.399 37.711ZM81.0285 64.119C81.0285 65.2748 80.0914 66.212 78.9355 66.212H71.2834C70.1275 66.212 69.1904 65.2748 69.1904 64.119C69.1904 62.9631 70.1275 62.026 71.2834 62.026H78.9355C80.0914 62.026 81.0285 62.9631 81.0285 64.119ZM122.399 64.119C122.399 65.2748 121.462 66.212 120.306 66.212H86.524C85.3681 66.212 84.431 65.2748 84.431 64.119C84.431 62.9631 85.3681 62.026 86.524 62.026H120.306C121.462 62.026 122.399 62.9631 122.399 64.119ZM122.399 50.9149C122.399 52.0708 121.462 53.0079 120.306 53.0079H86.524C85.3681 53.0079 84.431 52.0708 84.431 50.9149C84.431 49.759 85.3681 48.8219 86.524 48.8219H120.306C121.462 48.8219 122.399 49.759 122.399 50.9149ZM81.0285 50.9149C81.0285 52.0708 80.0914 53.0079 78.9355 53.0079H71.2834C70.1275 53.0079 69.1904 52.0708 69.1904 50.9149C69.1904 49.759 70.1275 48.8219 71.2834 48.8219H78.9355C80.0914 48.8219 81.0285 49.759 81.0285 50.9149ZM122.399 24.5067C122.399 25.6626 121.462 26.5997 120.306 26.5997H86.524C85.3681 26.5997 84.431 25.6626 84.431 24.5067C84.431 23.3508 85.3681 22.4137 86.524 22.4137H120.306C121.462 22.4137 122.399 23.3508 122.399 24.5067ZM81.0285 24.5067C81.0285 25.6626 80.0914 26.5997 78.9355 26.5997H71.2834C70.1275 26.5997 69.1904 25.6626 69.1904 24.5067C69.1904 23.3508 70.1275 22.4137 71.2834 22.4137H78.9355C80.0914 22.4137 81.0285 23.3508 81.0285 24.5067Z" fill="#4C0AE1"/>
</svg>
