<svg width="90" height="90" viewBox="0 0 90 90" fill="none" xmlns="http://www.w3.org/2000/svg">
<path d="M22.7994 44.641L16.7082 50.7322L14.7979 48.8213C14.1113 48.1353 12.9989 48.1353 12.3116 48.8213C11.6256 49.5079 11.6256 50.621 12.3116 51.3076L15.4654 54.4607C15.7949 54.7903 16.2419 54.9757 16.7082 54.9757C17.1744 54.9757 17.6214 54.7903 17.951 54.4607L25.2851 47.1266C25.9717 46.4407 25.9717 45.3276 25.2851 44.641C24.5984 43.9543 23.4861 43.9543 22.7994 44.641Z" fill="#4C0AE1"/>
<path d="M32.9755 54.9507H41.2578C42.2287 54.9507 43.0156 54.1638 43.0156 53.1929C43.0156 52.2226 42.2287 51.4351 41.2578 51.4351H32.9755C32.0045 51.4351 31.2177 52.2226 31.2177 53.1929C31.2177 54.1638 32.0045 54.9507 32.9755 54.9507Z" fill="#4C0AE1"/>
<path d="M22.7994 63.8119L16.7082 69.9031L14.7979 67.9922C14.1113 67.3055 12.9989 67.3055 12.3116 67.9922C11.6256 68.6788 11.6256 69.7919 12.3116 70.4778L15.4654 73.6316C15.7949 73.9612 16.2419 74.1466 16.7082 74.1466C17.1744 74.1466 17.6214 73.9612 17.951 73.6316L25.2851 66.2975C25.9717 65.6116 25.9717 64.4985 25.2851 63.8119C24.5984 63.1252 23.4861 63.1252 22.7994 63.8119Z" fill="#4C0AE1"/>
<path d="M46.7805 72.3643C46.7805 71.3933 45.9929 70.6064 45.0227 70.6064H32.9755C32.0045 70.6064 31.2177 71.3933 31.2177 72.3643C31.2177 73.3352 32.0045 74.1221 32.9755 74.1221H45.0227C45.9929 74.1221 46.7805 73.3352 46.7805 72.3643Z" fill="#4C0AE1"/>
<path d="M32.9755 66.4121H48.7868C49.7578 66.4121 50.5447 65.6252 50.5447 64.6543C50.5447 63.6834 49.7578 62.8965 48.7868 62.8965H32.9755C32.0045 62.8965 31.2177 63.6834 31.2177 64.6543C31.2177 65.6252 32.0045 66.4121 32.9755 66.4121Z" fill="#4C0AE1"/>
<path d="M22.7994 25.4808L16.7082 31.572L14.7979 29.6611C14.1113 28.9751 12.9989 28.9751 12.3116 29.6611C11.6256 30.3477 11.6256 31.4608 12.3116 32.1474L15.4654 35.3005C15.7949 35.6301 16.2419 35.8155 16.7082 35.8155C17.1744 35.8155 17.6214 35.6301 17.951 35.3005L25.2851 27.9665C25.9717 27.2805 25.9717 26.1674 25.2851 25.4808C24.5984 24.7942 23.4861 24.7942 22.7994 25.4808Z" fill="#4C0AE1"/>
<path d="M32.9755 35.7905H40.8815C41.8517 35.7905 42.6393 35.0036 42.6393 34.0327C42.6393 33.0625 41.8517 32.2749 40.8815 32.2749H32.9755C32.0045 32.2749 31.2177 33.0625 31.2177 34.0327C31.2177 35.0036 32.0045 35.7905 32.9755 35.7905Z" fill="#4C0AE1"/>
<path d="M27.8105 86.4844C27.3464 86.4844 26.8945 86.6725 26.5656 86.9994C26.2388 87.3262 26.0507 87.7801 26.0507 88.2422C26.0507 88.7043 26.2388 89.1582 26.5656 89.485C26.8945 89.8119 27.3464 90 27.8105 90C28.2726 90 28.7245 89.8119 29.0513 89.485C29.3802 89.1582 29.5663 88.7043 29.5663 88.2422C29.5663 87.7801 29.3802 87.3262 29.0513 86.9994C28.7245 86.6725 28.2726 86.4844 27.8105 86.4844Z" fill="#4C0AE1"/>
<path d="M68.0308 27.4851L55.3745 31.4367C54.6405 31.6661 54.1406 32.3452 54.1406 33.1142V44.3841C54.1406 52.904 59.8769 60.4297 68.0891 62.6846C68.2416 62.7265 68.3981 62.7471 68.5547 62.7471C68.7112 62.7471 68.8678 62.7265 69.0202 62.6846C77.2325 60.4297 82.9688 52.904 82.9688 44.3848V33.1149C82.9688 32.3459 82.4689 31.6661 81.7348 31.4367L69.0786 27.4851C68.7373 27.3787 68.372 27.3787 68.0308 27.4851ZM79.4531 34.4072V44.3841C79.4531 51.1634 74.9954 57.1702 68.5547 59.1587C62.114 57.1702 57.6562 51.1634 57.6562 44.3841V34.4072L68.5547 31.0048L79.4531 34.4072Z" fill="#4C0AE1"/>
<path d="M88.7661 26.2656L69.1205 20.1324C68.9406 20.0713 68.7504 20.0384 68.5561 20.0384C68.5554 20.0384 68.554 20.0384 68.5533 20.0384C68.3597 20.0384 68.1688 20.0713 67.9896 20.1318L66.0938 20.7236V9.4812C66.0938 6.57326 63.7283 4.20776 60.8203 4.20776H48.0178V1.75781C48.0178 0.786896 47.2302 0 46.26 0H19.8338C18.8635 0 18.0759 0.786896 18.0759 1.75781V4.20776H5.27344C2.36549 4.20776 0 6.57326 0 9.4812V84.7266C0 87.6345 2.36549 90 5.27344 90H19.899C20.8699 90 21.6568 89.2131 21.6568 88.2422C21.6568 87.2713 20.8699 86.4844 19.899 86.4844H5.27344C4.30389 86.4844 3.51562 85.6961 3.51562 84.7266V9.4812C3.51562 8.51234 4.30389 7.72339 5.27344 7.72339H18.0759V9.56566C18.0759 11.6572 19.7781 13.3594 21.8703 13.3594H44.2234C46.3156 13.3594 48.0178 11.6572 48.0178 9.56566V7.72339H60.8203C61.7899 7.72339 62.5781 8.51234 62.5781 9.4812V21.8216L53.7891 24.5654H32.9755C32.0045 24.5654 31.2177 25.3523 31.2177 26.3232C31.2177 27.2942 32.0045 28.0811 32.9755 28.0811H47.1094V43.7256H32.9755C32.0045 43.7256 31.2177 44.5125 31.2177 45.4834C31.2177 46.4543 32.0045 47.2412 32.9755 47.2412H47.2666C48.287 56.489 54.2024 64.4437 62.5781 68.1612V75.4102H56.7773C53.8694 75.4102 51.5039 77.7757 51.5039 80.6836V86.4844H35.7207C34.7498 86.4844 33.9629 87.2713 33.9629 88.2422C33.9629 89.2131 34.7498 90 35.7207 90H53.2617C53.728 90 54.175 89.8146 54.5045 89.485L65.5788 78.4108C65.9084 78.0812 66.0938 77.6342 66.0938 77.168V69.4267C66.7914 69.6224 67.5014 69.7913 68.2237 69.9294C68.3329 69.9506 68.4441 69.9609 68.5547 69.9609C68.6652 69.9609 68.7765 69.9506 68.8857 69.9294C81.1203 67.5851 90 56.8419 90 44.3848V27.9437C90 27.1747 89.5001 26.4949 88.7661 26.2656ZM44.5022 9.56566C44.5022 9.71878 44.3772 9.84375 44.2234 9.84375H21.8703C21.7165 9.84375 21.5916 9.71878 21.5916 9.56566V3.51562H44.5022V9.56566ZM56.7773 78.9258H60.0925L55.0195 83.9987V80.6836C55.0195 79.7141 55.8078 78.9258 56.7773 78.9258ZM86.4844 44.3848C86.4844 55.0456 78.9649 64.2549 68.5547 66.411C58.1445 64.2549 50.625 55.0456 50.625 44.3848V29.2367L64.6456 24.8593C64.7932 24.8332 64.9333 24.7886 65.0658 24.7282L68.5547 23.6385L86.4844 29.236V44.3848Z" fill="#4C0AE1"/>
<path d="M66.9795 50.3579C66.5298 50.3579 66.08 50.1862 65.7367 49.8429L61.6869 45.7931C61.0002 45.1064 61.0002 43.9934 61.6869 43.3067C62.3735 42.6208 63.4859 42.6208 64.1725 43.3067L66.9795 46.1137L72.9369 40.1571C73.6235 39.4704 74.7359 39.4704 75.4232 40.1571C76.1092 40.843 76.1092 41.9561 75.4232 42.6427L68.223 49.8429C67.879 50.1862 67.43 50.3579 66.9795 50.3579Z" fill="#4C0AE1"/>
</svg>
