<svg width="24" height="24" viewBox="0 0 24 24" fill="none" xmlns="http://www.w3.org/2000/svg">
<path d="M4.77096 12.4714C4.77096 15.6137 7.32746 18.1702 10.4698 18.1702C11.5773 18.172 12.6611 17.8496 13.5875 17.2428L15.1067 19.5621C13.8288 20.3975 12.3487 20.8721 10.8232 20.9355C9.29767 20.9989 7.78336 20.6489 6.44044 19.9223C5.09752 19.1958 3.97591 18.1199 3.19425 16.8083C2.41259 15.4967 1.99994 13.9983 1.99994 12.4714C1.99994 10.9446 2.41259 9.4461 3.19425 8.13451C3.97591 6.82292 5.09752 5.74697 6.44044 5.02046C7.78336 4.29395 9.29767 3.94389 10.8232 4.00731C12.3487 4.07073 13.8288 4.54526 15.1067 5.38073L13.5875 7.7C12.6611 7.09319 11.5773 6.7708 10.4698 6.77257C7.32746 6.77257 4.77096 9.32907 4.77096 12.4714ZM15.0611 9.95373L16.1927 11.085H10.6865V13.8578H16.1927L15.0611 14.9891L17.0216 16.9496L21.4999 12.4714L17.0216 7.99302L15.0611 9.95373Z" fill="black"/>
</svg>
