<svg width="24" height="24" viewBox="0 0 24 24" fill="none" xmlns="http://www.w3.org/2000/svg">
<path d="M18.5169 14.2048C18.0819 14.4748 17.6694 14.6848 17.3019 14.8348C17.0469 14.9473 16.7694 14.9998 16.4994 14.9998C16.2295 14.9998 15.952 14.9473 15.697 14.8348C15.0445 14.5648 14.2495 14.1148 13.4771 13.4998H6.31486L7.42482 10.9499C7.54481 10.6799 7.8148 10.4999 8.10729 10.4999H11.0622C10.8522 10.035 10.6872 9.53248 10.5972 9H8.10729C7.21483 9 6.40486 9.53248 6.04488 10.3499L4.55994 13.7623C4.55244 13.7773 4.55994 13.7923 4.55244 13.8148C3.63747 14.2798 3 15.2172 3 16.3122V19.1246C3 19.6218 3.19754 20.0987 3.54915 20.4504C3.90077 20.802 4.37766 20.9995 4.87492 20.9995C5.37218 20.9995 5.84908 20.802 6.20069 20.4504C6.55231 20.0987 6.74985 19.6218 6.74985 19.1246V18.7496H15.7495V19.1246C15.7495 19.6218 15.947 20.0987 16.2986 20.4504C16.6502 20.802 17.1271 20.9995 17.6244 20.9995C18.1217 20.9995 18.5986 20.802 18.9502 20.4504C19.3018 20.0987 19.4993 19.6218 19.4993 19.1246V16.3122C19.4993 15.4647 19.1168 14.7073 18.5169 14.2048ZM7.49982 17.2497H5.99988C5.58739 17.2497 5.24991 16.9122 5.24991 16.4997C5.24991 16.0872 5.58739 15.7497 5.99988 15.7497H7.49982C7.9123 15.7497 8.24979 16.0872 8.24979 16.4997C8.24979 16.9122 7.9123 17.2497 7.49982 17.2497ZM16.4994 17.2497H14.9995C14.587 17.2497 14.2495 16.9122 14.2495 16.4997C14.2495 16.0872 14.587 15.7497 14.9995 15.7497H16.4994C16.9119 15.7497 17.2494 16.0872 17.2494 16.4997C17.2494 16.9122 16.9119 17.2497 16.4994 17.2497Z" fill="black"/>
<path d="M20.6175 4.36983L16.6802 3.03039C16.5631 2.98987 16.4358 2.98987 16.3187 3.03039L12.3814 4.36983C12.27 4.40749 12.1733 4.47913 12.1048 4.57465C12.0363 4.67018 11.9996 4.78478 11.9996 4.90231V7.91569C11.9996 11.5935 16.105 13.3815 16.2797 13.4557C16.3493 13.485 16.424 13.5002 16.4995 13.5002C16.5749 13.5002 16.6496 13.485 16.7192 13.4557C16.8939 13.3815 20.9993 11.5935 20.9993 7.91569V4.90231C20.9993 4.78478 20.9626 4.67018 20.8941 4.57465C20.8256 4.47913 20.7289 4.40749 20.6175 4.36983ZM18.9638 7.21372L16.9014 9.83861C16.839 9.91808 16.7611 9.98409 16.6724 10.0327C16.5838 10.0813 16.4862 10.1115 16.3857 10.1214C16.2851 10.1314 16.1835 10.1209 16.0871 10.0906C15.9906 10.0603 15.9013 10.0108 15.8245 9.94511L14.512 8.82015C14.4341 8.75706 14.3697 8.67899 14.3225 8.59056C14.2753 8.50213 14.2463 8.40514 14.2372 8.30532C14.2281 8.20549 14.2392 8.10486 14.2696 8.00937C14.3001 7.91387 14.3494 7.82546 14.4147 7.74935C14.4799 7.67324 14.5597 7.61098 14.6494 7.56625C14.7391 7.52151 14.8369 7.49522 14.9369 7.48891C15.0369 7.4826 15.1372 7.49641 15.2318 7.52953C15.3265 7.56264 15.4135 7.61438 15.4877 7.6817L16.2062 8.29742L17.7849 6.28825C17.8457 6.21084 17.9211 6.14616 18.0068 6.09789C18.0926 6.04963 18.187 6.01873 18.2848 6.00696C18.3825 5.99519 18.4815 6.00278 18.5763 6.0293C18.6711 6.05582 18.7597 6.10074 18.8371 6.16151C18.9145 6.22228 18.9792 6.29769 19.0275 6.38346C19.0757 6.46923 19.1066 6.56366 19.1184 6.66136C19.1302 6.75907 19.1226 6.85814 19.0961 6.95291C19.0695 7.04768 19.0246 7.13631 18.9638 7.21372Z" fill="black"/>
</svg>
