<svg width="20" height="20" viewBox="0 0 20 20" fill="none" xmlns="http://www.w3.org/2000/svg">
<path d="M7.10782 3.02969C7.94341 3.02969 8.62079 2.35147 8.62079 1.51484C8.62079 0.678219 7.94341 0 7.10782 0C6.27223 0 5.59485 0.678219 5.59485 1.51484C5.59485 2.35147 6.27223 3.02969 7.10782 3.02969Z" fill="black"/>
<path d="M0.276081 5.38571C0.550729 5.55727 0.912331 5.47313 1.08346 5.19821C1.75221 4.12418 2.69592 3.24504 3.81256 2.65586C4.09893 2.50477 4.20874 2.14989 4.0578 1.86317C3.9069 1.57645 3.55241 1.46649 3.26612 1.61762C1.966 2.30364 0.867292 3.32707 0.0888541 4.57731C-0.082435 4.85231 0.00139315 5.21426 0.276081 5.38571ZM10.4034 2.65586C11.5201 3.24512 12.4638 4.12426 13.1324 5.19821C13.3037 5.47317 13.6651 5.55715 13.9399 5.38574C14.2146 5.2143 14.2984 4.85235 14.1272 4.57731C13.3487 3.32711 12.2501 2.30364 10.9499 1.61762C10.6635 1.46649 10.3091 1.57645 10.1582 1.86317C10.0072 2.14989 10.117 2.50477 10.4034 2.65586ZM15.5503 14.3218C15.0374 14.3218 14.6201 14.7397 14.6201 15.2533C14.6201 15.7668 15.0374 16.1847 15.5503 16.1847C16.0632 16.1847 16.4805 15.7668 16.4805 15.2533C16.4806 14.7397 16.0633 14.3218 15.5503 14.3218Z" fill="black"/>
<path d="M19.6154 13.8217L20.0001 13.4768L19.312 12.2835L18.8213 12.4447C17.7348 12.8016 16.5789 12.1323 16.3445 11.0129L16.2385 10.5068H14.8624L14.7563 11.0131C14.522 12.1327 13.3658 12.8019 12.2791 12.4448L11.7888 12.2836L11.1008 13.4767L11.4856 13.8215C12.3376 14.5849 12.3376 15.922 11.4856 16.6855L11.1008 17.0302L11.7888 18.2234L12.2794 18.0621C13.3662 17.7051 14.5224 18.3744 14.7566 19.4942L14.8624 20.0002H16.2384L16.3442 19.4944C16.5784 18.3748 17.7344 17.7054 18.8211 18.0623L19.312 18.2235L20.0001 17.0302L19.6154 16.6852C18.7637 15.9218 18.7637 14.5852 19.6154 13.8217ZM15.5504 17.3679C14.386 17.3679 13.4386 16.4194 13.4386 15.2535C13.4386 14.0875 14.386 13.139 15.5504 13.139C16.7149 13.139 17.6622 14.0875 17.6622 15.2535C17.6623 16.4194 16.7149 17.3679 15.5504 17.3679Z" fill="black"/>
<path d="M11.7013 11.0091L12.6476 11.3202C12.7663 11.3595 12.8931 11.3678 13.0159 11.3441V8.94449C13.0159 5.68285 10.3656 3.0293 7.10805 3.0293C3.85047 3.0293 1.20024 5.68285 1.20024 8.94391L1.19645 12.719L0.120786 14.3041C0.0542225 14.4022 0.0186495 14.518 0.0186768 14.6365V16.4371H9.99039L10.6975 15.8034C11.0256 15.5095 11.0256 14.9964 10.6975 14.7025L9.9552 14.0373C9.8541 13.9466 9.78724 13.824 9.76582 13.6899C9.74441 13.5558 9.76974 13.4184 9.83758 13.3007L11.0055 11.2754C11.1452 11.033 11.4357 10.9218 11.7013 11.0091ZM4.74301 17.6201C4.74301 17.6239 4.74286 17.6277 4.74286 17.6314C4.74286 18.9373 5.80387 19.9996 7.10805 19.9996C8.41223 19.9996 9.47325 18.9373 9.47325 17.6314C9.47325 17.6277 9.47309 17.6239 9.47309 17.6201H4.74301Z" fill="black"/>
</svg>
