<svg width="20" height="16" viewBox="0 0 20 16" fill="none" xmlns="http://www.w3.org/2000/svg">
<path d="M18.2422 0H1.75781C0.789766 0 0 0.828351 0 1.8457V14.1504C0 15.1643 0.78625 15.9961 1.75781 15.9961H18.2422C19.2078 15.9961 20 15.1705 20 14.1504V1.8457C20 0.831797 19.2138 0 18.2422 0ZM17.9995 1.23047L10.0373 9.59081L2.00621 1.23047H17.9995ZM1.17188 13.8956V2.09463L6.81559 7.96971L1.17188 13.8956ZM2.00051 14.7656L7.64777 8.836L9.62656 10.8959C9.85563 11.1343 10.2253 11.1336 10.4534 10.894L12.3828 8.86811L17.9995 14.7656H2.00051ZM18.8281 13.8956L13.2114 7.99805L18.8281 2.10049V13.8956Z" fill="#4C0AE1"/>
</svg>
