<svg width="281" height="304" viewBox="0 0 281 304" fill="none" xmlns="http://www.w3.org/2000/svg">
<path d="M34.282 135.852C34.282 135.852 25.852 129.504 21.9629 130.647C18.0739 131.791 13.1115 137.688 13.1115 137.688C13.1115 137.688 22.9408 134.648 25.9082 135.256C28.8755 135.864 34.282 135.852 34.282 135.852Z" fill="#EBEBEB"/>
<path d="M37.092 138.156C35.8668 141.16 33.72 143.671 32.5567 146.668C31.2095 150.167 31.1893 154.098 32.5005 157.612C34.7485 155.071 36.0804 151.715 36.7998 148.286C37.5191 144.856 37.6371 142.041 37.7833 138.558L37.092 138.156Z" fill="#EBEBEB"/>
<path d="M35.8106 137.366C36.1984 136.15 26.6444 136.673 23.604 140.661C20.5636 144.65 17.5175 148.961 20.0803 159.023C20.0803 159.023 25.8464 148.134 25.8464 148.292C25.8464 148.45 35.0463 139.792 35.8106 137.366Z" fill="#EBEBEB"/>
<path d="M35.8836 137.244C35.0013 137.615 43.673 140.473 47.6856 140.819C51.6983 141.166 54.1093 139.725 54.1093 139.725C54.1093 139.725 48.287 132.04 35.8836 137.244Z" fill="#EBEBEB"/>
<path d="M79.7085 176.782C79.7085 176.782 83.8842 174.958 85.0587 176.217C86.2333 177.475 91.044 184.406 95.63 184.832C95.63 184.832 91.4543 175.232 87.672 173.675C85.1824 172.672 79.7085 176.782 79.7085 176.782Z" fill="#EBEBEB"/>
<path d="M80.7819 176.265C80.7819 176.265 80.6133 172.873 79.0453 171.091C77.4774 169.31 71.7843 168.082 71.7843 168.082C71.7843 168.082 73.83 171.638 75.9319 173.365C77.4372 174.535 79.0652 175.509 80.7819 176.265Z" fill="#EBEBEB"/>
<path d="M80.7763 176.071C80.7763 176.071 77.8708 176.022 75.8138 179.956C73.7569 183.89 72.6385 188.833 72.8128 188.504C72.987 188.176 78.2979 185.659 79.6973 182.473C80.5407 180.468 80.9114 178.269 80.7763 176.071Z" fill="#EBEBEB"/>
<path d="M81.4395 176.071C81.4395 176.071 81.9621 183.561 83.1255 184.832C84.2888 186.103 85.9973 190.76 85.9973 190.76C85.9973 190.76 88.6049 183.987 87.1718 180.734C85.7387 177.481 81.4395 176.071 81.4395 176.071Z" fill="#EBEBEB"/>
<path d="M56.0707 190.535C55.7335 191.076 49.0345 196.694 48.0285 199.418C47.0225 202.142 47.8599 206.301 48.0285 207.571C48.1971 208.842 54.0587 205.942 55.076 201.047C55.7106 197.585 56.0437 194.065 56.0707 190.535Z" fill="#EBEBEB"/>
<path d="M57.3745 186.328C57.3745 187.234 57.4757 196.111 59.6225 199.212C61.7693 202.312 65.8045 205.602 65.8045 205.602C65.8045 205.602 67.2207 194.378 64.2309 190.912C62.339 188.784 59.9805 187.207 57.3745 186.328Z" fill="#EBEBEB"/>
<path d="M56.3911 187.873C55.9021 187.751 49.8382 187.131 46.9607 190.864C45.1355 193.291 43.623 195.974 42.4647 198.841C42.4647 198.841 51.6253 193.922 53.3057 191.745C54.9861 189.569 56.3911 187.873 56.3911 187.873Z" fill="#EBEBEB"/>
<path d="M60.5555 183.793C61.3153 183.228 62.2103 182.913 63.132 182.887C64.0537 182.861 64.9626 183.125 65.7484 183.647C68.4741 185.471 72.9982 192.609 72.9982 192.609C72.9982 192.609 67.4625 192.213 64.5682 189.216C62.9613 187.662 61.6052 185.829 60.5555 183.793Z" fill="#EBEBEB"/>
<path d="M56.6215 184.887C56.6215 184.887 53.1034 181.652 50.4395 180.935C47.7756 180.217 39.8851 182.339 39.8851 182.339C42.5665 184.298 45.7895 185.197 49.012 184.887C54.4409 184.382 56.6215 184.887 56.6215 184.887Z" fill="#EBEBEB"/>
<path d="M44.96 217.798C44.96 217.798 42.4479 223.057 44.96 225.951C47.4722 228.845 48.8266 234.652 48.8266 234.652C48.8266 234.652 53.1708 230.122 50.9903 225.045C49.703 222.026 47.6006 219.499 44.96 217.798Z" fill="#EBEBEB"/>
<path d="M40.9249 217.914C40.2505 218.272 35.9006 224.602 35.5634 229.149C35.2262 233.697 34.8946 241.474 35.5634 240.926C36.2322 240.379 41.0935 235.491 42.431 230.779C43.7686 226.067 40.9249 217.914 40.9249 217.914Z" fill="#EBEBEB"/>
<path d="M39.2838 217.415C38.6151 217.597 32.2476 216.327 28.7295 221.221C25.2114 226.116 22.5475 233.181 22.5475 233.181C22.5475 233.181 31.7587 228.085 33.9336 225.277C36.1085 222.468 39.2838 217.415 39.2838 217.415Z" fill="#EBEBEB"/>
<path d="M75.235 208.721C75.235 208.721 73.3242 214.88 75.235 220.315C76.329 223.469 77.699 226.503 79.3263 229.374C79.3263 229.374 82.1363 218.503 80.3267 215.603C78.5171 212.703 75.235 208.721 75.235 208.721Z" fill="#EBEBEB"/>
<path d="M76.2859 208.064C76.9603 208.745 84.817 220.941 90.156 222.048C95.495 223.154 90.9934 221.592 90.9934 221.592C90.9934 221.592 89.3074 213.365 86.9189 209.961C84.5304 206.556 76.2859 208.064 76.2859 208.064Z" fill="#EBEBEB"/>
<path d="M75.0889 207.851C75.0889 207.851 80.8887 203.498 83.1536 202.379C85.4184 201.26 92.9155 202.725 92.9155 202.725C92.9155 202.725 83.8111 207.857 81.6193 207.31C79.4275 206.763 75.0889 208.866 75.0889 208.866" fill="#EBEBEB"/>
<path d="M95.2421 148.517C95.2421 148.517 90.2178 154.28 90.881 158.78C91.3639 161.78 92.084 164.729 93.0334 167.596L95.2421 159.692V148.517Z" fill="#EBEBEB"/>
<path d="M95.9222 147.367C95.9222 147.367 94.7588 156.183 97.0855 159.783C99.4122 163.382 102.576 170.222 102.908 169.681C103.239 169.14 108.067 164.464 104.594 157.807C102.403 153.715 99.4499 150.16 95.9222 147.367Z" fill="#EBEBEB"/>
<path d="M94.2362 148.96C94.2362 148.96 86.2108 146.437 85.0587 150.577L82.9062 158.317C84.6027 156.382 86.5042 154.67 88.5712 153.216C90.5346 151.918 92.4262 150.497 94.2362 148.96Z" fill="#EBEBEB"/>
<path d="M58.2456 151.265C58.2456 151.265 58.4873 151.027 58.8975 150.657C60.7915 148.899 66.3159 144.096 69.1259 144.82C71.8917 145.667 74.5965 146.732 77.2187 148.006C77.2187 148.006 65.0908 154.821 58.2456 151.265Z" fill="#EBEBEB"/>
<path d="M59.8698 151.326C59.8698 150.669 56.2224 149.611 53.0022 153.21C49.7819 156.81 49.2817 159.023 49.2817 159.023C49.2817 159.023 59.645 157.533 59.8698 151.326Z" fill="#EBEBEB"/>
<path d="M59.2966 152.049C59.2966 152.049 55.638 156.639 58.448 161.12C61.258 165.601 63.7251 169.936 63.7251 169.936C64.5929 167.025 64.5929 163.892 63.7251 160.98C62.6958 157.768 61.2009 154.753 59.2966 152.049Z" fill="#EBEBEB"/>
<path d="M73.088 163.473C72.9194 162.379 74.2626 153.386 63.2699 154.28H62.2639C62.2639 154.28 67.5242 163.455 68.7213 166.337C69.4439 168.3 70.6158 170.032 72.127 171.371C73.4196 172.636 73.251 164.567 73.088 163.473Z" fill="#EBEBEB"/>
<path d="M75.2124 208.344C75.2829 206.94 75.088 205.536 74.6396 204.216C74.1912 202.897 73.4988 201.69 72.6048 200.671C72.4362 200.482 72.1945 200.281 71.9753 200.391C71.9043 200.436 71.8433 200.498 71.7966 200.571C71.75 200.645 71.7189 200.729 71.7056 200.817C71.3037 202.485 71.5237 204.258 72.3181 205.753C73.1136 207.23 74.1166 208.563 75.2911 209.705" fill="#EBEBEB"/>
<path d="M44.2462 216.63C42.2574 212.71 39.1254 209.613 35.3385 207.82C35.1131 207.683 34.8537 207.626 34.5967 207.656C34.4066 207.723 34.2397 207.85 34.1182 208.022C33.9967 208.193 33.9264 208.401 33.9167 208.617C33.9083 209.506 34.2138 210.365 34.7709 211.018C37.1921 214.44 40.7307 216.73 44.6621 217.421" fill="#EBEBEB"/>
<path d="M88.2733 203.364C88.2733 203.4 87.7113 203.4 86.6997 203.534C85.279 203.736 83.8862 204.124 82.5522 204.689C80.5777 205.542 78.7178 206.677 77.0221 208.064C74.9585 209.789 73.0058 211.664 71.1773 213.676C67.1871 217.877 63.669 221.774 61.2299 224.711C60.0047 226.17 59.0381 227.38 58.3749 228.213L57.5994 229.174C57.4195 229.392 57.324 229.502 57.3127 229.49C57.3742 229.357 57.4496 229.233 57.5375 229.119C57.7005 228.882 57.9366 228.541 58.2513 228.11C58.8807 227.24 59.8193 226 61.0163 224.51C63.4048 221.519 66.9005 217.567 70.8963 213.366C72.7396 211.34 74.7155 209.46 76.8085 207.742C78.5388 206.351 80.4398 205.227 82.4566 204.404C83.8161 203.856 85.2376 203.508 86.6829 203.37C87.0752 203.332 87.4692 203.318 87.8631 203.328C88.0007 203.32 88.1387 203.332 88.2733 203.364Z" fill="#E0E0E0"/>
<path d="M57.0992 226.882C57.0318 226.93 56.3799 225.702 54.9524 224.061C53.1005 221.91 50.8267 220.235 48.2981 219.16C45.7695 218.085 43.0503 217.636 40.3404 217.847C38.2554 218.005 37.0077 218.425 36.9684 218.339C37.2425 218.193 37.5336 218.086 37.8339 218.023C38.6394 217.793 39.4606 217.632 40.2898 217.543C43.0501 217.244 45.8367 217.66 48.4187 218.757C51.0007 219.855 53.304 221.602 55.1378 223.854C55.6947 224.527 56.1985 225.249 56.644 226.012C56.83 226.28 56.9831 226.572 57.0992 226.882Z" fill="#E0E0E0"/>
<path d="M59.2573 151.198C59.266 151.285 59.266 151.372 59.2573 151.459C59.2573 151.654 59.2236 151.903 59.1955 152.213C59.1336 152.906 59.0437 153.879 58.9313 155.119C58.6953 157.636 58.3693 161.284 57.9815 165.796C57.2397 174.812 56.3686 187.301 56.3855 201.121C56.4023 214.94 57.324 227.429 57.9703 236.458C58.3075 240.951 58.5829 244.593 58.774 247.146C58.8639 248.362 58.9369 249.359 58.9819 250.059C58.9819 250.369 59.0156 250.618 59.0269 250.812C59.0415 250.899 59.0415 250.988 59.0269 251.074C59.0077 250.99 58.9946 250.905 58.9875 250.819C58.9875 250.624 58.9369 250.375 58.9032 250.065C58.8358 249.372 58.7402 248.399 58.6222 247.164C58.3862 244.641 58.0602 240.993 57.6893 236.482C56.9699 227.459 56.0033 214.965 56.0033 201.121C56.0033 187.276 56.9025 174.782 57.6893 165.765C58.0996 161.26 58.4817 157.612 58.7627 155.101C58.9088 153.885 59.0269 152.894 59.1055 152.207C59.1449 151.891 59.1786 151.648 59.2067 151.453C59.215 151.366 59.232 151.281 59.2573 151.198Z" fill="#E0E0E0"/>
<path d="M84.3 175.523C83.9165 175.625 83.5252 175.688 83.131 175.712C82.3723 175.803 81.2877 175.961 79.9501 176.192C72.9628 177.394 66.2319 179.943 60.0778 183.719C58.8976 184.443 57.9591 185.051 57.3184 185.495C56.9935 185.736 56.6515 185.95 56.2955 186.133C56.5858 185.843 56.8999 185.583 57.2341 185.355C57.8467 184.868 58.7683 184.218 59.9373 183.458C66.0544 179.506 72.8461 176.932 79.9052 175.888C81.2596 175.694 82.3555 175.584 83.1142 175.548C83.5081 175.502 83.9048 175.494 84.3 175.523Z" fill="#E0E0E0"/>
<path d="M57.1891 171.505C57.1336 171.351 57.0977 171.189 57.0824 171.025C57.0205 170.66 56.9475 170.198 56.8576 169.626C56.7592 168.889 56.6241 168.159 56.4529 167.437C56.2506 166.592 56.0989 165.613 55.7617 164.574C55.6043 164.051 55.4469 163.504 55.2783 162.932C55.1097 162.361 54.8737 161.795 54.6658 161.193C54.2611 159.977 53.6766 158.761 53.0978 157.442C51.7461 154.658 50.1502 152.022 48.332 149.568C44.9446 145.171 41.0041 141.309 36.6256 138.095C35.805 137.445 35.007 136.952 34.3326 136.466C33.6582 135.979 33.0625 135.603 32.5735 135.292L31.4495 134.557C31.3142 134.475 31.1863 134.379 31.0674 134.271C31.2145 134.323 31.3559 134.392 31.4889 134.478L32.6466 135.147C33.1468 135.432 33.7706 135.791 34.445 136.259C35.1194 136.727 35.9399 137.208 36.7773 137.846C41.234 141.003 45.2307 144.862 48.6355 149.295C50.4735 151.768 52.0812 154.432 53.435 157.247C53.997 158.567 54.559 159.813 54.9805 161.041C55.1828 161.649 55.4245 162.257 55.5762 162.804C55.7279 163.352 55.8909 163.935 56.037 164.47C56.3574 165.516 56.4923 166.513 56.6777 167.364C56.8352 168.095 56.9479 168.837 57.0149 169.584L57.1667 170.994C57.1889 171.163 57.1965 171.334 57.1891 171.505Z" fill="#E0E0E0"/>
<path d="M96.4953 148.103C96.3656 148.191 96.2258 148.261 96.0795 148.31L94.8487 148.808C93.7753 149.228 92.2298 149.866 90.3527 150.687C80.4796 154.953 71.1304 160.52 62.5168 167.261C60.8589 168.55 59.5382 169.62 58.639 170.374L57.5881 171.231C57.4718 171.34 57.3434 171.431 57.2059 171.505C57.3034 171.377 57.4147 171.263 57.5375 171.164L58.5379 170.246C59.4146 169.444 60.7128 168.337 62.3482 167.012C70.9015 160.117 80.2905 154.528 90.2515 150.401C92.1623 149.611 93.7247 149.021 94.815 148.65L96.0682 148.225C96.2068 148.17 96.3498 148.129 96.4953 148.103Z" fill="#E0E0E0"/>
<path d="M70.014 281.699L47.0451 281.632L41.1384 251.269L74.5606 251.469L70.014 281.699Z" fill="#E0E0E0"/>
<path d="M76.6174 249.913H39.7783C38.8378 249.913 38.0754 250.737 38.0754 251.755V253.086C38.0754 254.104 38.8378 254.929 39.7783 254.929H76.6174C77.5579 254.929 78.3203 254.104 78.3203 253.086V251.755C78.3203 250.737 77.5579 249.913 76.6174 249.913Z" fill="#E0E0E0"/>
<path d="M74.5606 254.941C74.5606 255.032 66.9455 255.111 57.5545 255.111C48.1634 255.111 40.5427 255.032 40.5427 254.941C40.5427 254.85 48.1578 254.771 57.5545 254.771C66.9511 254.771 74.5606 254.85 74.5606 254.941Z" fill="#EBEBEB"/>
<path d="M236.653 173.888L220.023 156.341C219.472 155.714 219.174 154.876 219.193 154.011C219.212 153.146 219.547 152.325 220.124 151.726L244.256 124.974C244.523 124.657 244.844 124.399 245.202 124.217C245.561 124.034 245.949 123.929 246.344 123.909C246.74 123.889 247.136 123.953 247.508 124.098C247.881 124.243 248.224 124.467 248.516 124.755L259.082 135.894L258.424 154.292L240.929 173.681C240.662 174 240.339 174.259 239.979 174.443C239.619 174.626 239.228 174.73 238.831 174.75C238.433 174.769 238.036 174.703 237.662 174.555C237.288 174.407 236.945 174.18 236.653 173.888Z" fill="#EBEBEB"/>
<path d="M259.082 135.895L252.287 143.422C251.75 143.978 251.439 144.743 251.422 145.548C251.405 146.352 251.684 147.131 252.197 147.714L258.424 154.293L259.082 135.895Z" fill="#F5F5F5"/>
<path d="M251.776 144.175C251.268 144.725 250.945 145.442 250.857 146.213C250.77 146.984 250.923 147.765 251.293 148.431C251.34 148.524 251.392 148.613 251.45 148.699C252.108 149.726 256.463 156.487 256.592 156.347L258.419 154.323L252.181 147.744C252.181 147.744 250.68 146.011 251.776 144.175Z" fill="#E0E0E0"/>
<path d="M251.158 141.664C251.068 141.756 249.275 140.017 247.151 137.773C245.026 135.53 243.374 133.633 243.464 133.517C243.554 133.402 245.341 135.159 247.465 137.402C249.59 139.646 251.242 141.549 251.158 141.664Z" fill="#E0E0E0"/>
<path d="M252.282 151.143C252.198 151.24 249.292 148.328 245.796 144.637C242.301 140.946 239.536 137.876 239.614 137.779C239.693 137.681 242.604 140.594 246.1 144.284C249.595 147.975 252.372 151.051 252.282 151.143Z" fill="#E0E0E0"/>
<path d="M250.219 155.904C250.129 156.001 246.971 152.815 243.161 148.796C239.35 144.777 236.327 141.427 236.417 141.33C236.506 141.233 239.665 144.418 243.475 148.443C247.286 152.468 250.304 155.806 250.219 155.904Z" fill="#E0E0E0"/>
<path d="M247.196 159.26C247.106 159.357 243.947 156.171 240.137 152.146C236.327 148.121 233.303 144.783 233.393 144.686C233.483 144.588 236.636 147.768 240.452 151.793C244.268 155.818 247.28 159.162 247.196 159.26Z" fill="#E0E0E0"/>
<path d="M244.167 162.61C244.082 162.707 240.918 159.521 237.108 155.502C233.297 151.483 230.279 148.133 230.364 148.036C230.448 147.939 233.612 151.124 237.423 155.149C241.233 159.174 244.256 162.512 244.167 162.61Z" fill="#E0E0E0"/>
<path d="M241.143 165.984C241.053 166.081 237.895 162.895 234.084 158.871C230.274 154.846 227.256 151.508 227.34 151.41C227.425 151.313 230.589 154.493 234.399 158.518C238.209 162.543 241.227 165.869 241.143 165.984Z" fill="#E0E0E0"/>
<path d="M198.313 102.753L181.324 112.031C180.729 112.325 180.05 112.352 179.437 112.107C178.823 111.862 178.323 111.365 178.047 110.723L165.296 83.3999C165.136 83.0918 165.035 82.7525 164.997 82.4017C164.96 82.0509 164.987 81.6955 165.078 81.3562C165.168 81.0169 165.32 80.7004 165.524 80.425C165.728 80.1496 165.981 79.9208 166.268 79.7519L177.03 73.8604L190.035 79.2898L199.285 99.1045C199.443 99.413 199.543 99.7522 199.58 100.103C199.617 100.453 199.589 100.808 199.499 101.147C199.408 101.486 199.257 101.802 199.054 102.077C198.85 102.353 198.599 102.582 198.313 102.753Z" fill="#EBEBEB"/>
<path d="M177.03 73.8604L180.621 81.5455C180.878 82.1436 181.343 82.6074 181.915 82.8353C182.487 83.0632 183.119 83.0366 183.673 82.7615L190.035 79.2837L177.03 73.8604Z" fill="#F5F5F5"/>
<path d="M181.031 82.1776C181.291 82.7422 181.717 83.1978 182.242 83.4728C182.766 83.7478 183.361 83.8269 183.931 83.6976C184.009 83.6858 184.086 83.6675 184.162 83.6428C185.078 83.3571 191.069 81.5027 191.001 81.3567L190.04 79.2896L183.679 82.7673C183.679 82.7673 182.088 83.5699 181.031 82.1776Z" fill="#E0E0E0"/>
<path d="M179.059 82.0136C179.104 82.1109 177.373 83.1506 175.209 84.3362C173.045 85.5218 171.247 86.4034 171.196 86.3061C171.146 86.2088 172.882 85.163 175.046 83.9774C177.21 82.7918 179.008 81.9102 179.059 82.0136Z" fill="#E0E0E0"/>
<path d="M186.162 83.588C186.207 83.6853 183.352 85.3451 179.778 87.2968C176.204 89.2485 173.276 90.7502 173.231 90.653C173.186 90.5557 176.041 88.8898 179.61 86.9381C183.178 84.9864 186.118 83.4907 186.162 83.588Z" fill="#E0E0E0"/>
<path d="M189.023 86.5799C189.068 86.6771 185.949 88.4829 182.054 90.6109C178.16 92.7389 174.967 94.3805 174.922 94.2589C174.878 94.1373 177.997 92.3559 181.891 90.2279C185.786 88.0999 188.972 86.4826 189.023 86.5799Z" fill="#E0E0E0"/>
<path d="M190.619 89.9842C190.664 90.0815 187.545 91.8873 183.656 94.0092C179.767 96.1311 176.569 97.7849 176.524 97.6572C176.479 97.5295 179.593 95.7542 183.487 93.6322C187.382 91.5103 190.574 89.9052 190.619 89.9842Z" fill="#E0E0E0"/>
<path d="M192.204 93.4314C192.249 93.5287 189.13 95.3345 185.235 97.4625C181.341 99.5905 178.148 101.232 178.104 101.11C178.059 100.989 181.178 99.2074 185.072 97.0794C188.967 94.9514 192.17 93.3341 192.204 93.4314Z" fill="#E0E0E0"/>
<path d="M193.817 96.8548C193.862 96.9581 190.743 98.7578 186.854 100.886C182.965 103.014 179.767 104.655 179.722 104.534C179.677 104.412 182.79 102.631 186.685 100.503C190.58 98.3748 193.772 96.7575 193.817 96.8548Z" fill="#E0E0E0"/>
<path d="M103.689 19.3833H43.9259V86.7801H103.689V19.3833Z" fill="#E0E0E0"/>
<path d="M99.6426 19.3833H39.8795V86.7801H99.6426V19.3833Z" fill="#EBEBEB"/>
<path d="M91.606 28.4424H47.9105V77.7208H91.606V28.4424Z" fill="#FAFAFA"/>
<path d="M47.9105 78.0493C47.5913 78.5353 47.2259 78.9836 46.8202 79.3869C46.1177 80.1773 45.1342 81.2535 44.0102 82.4269C42.8862 83.6004 41.9027 84.6461 41.1608 85.3879C40.7819 85.8173 40.3639 86.2043 39.9132 86.5431C40.2389 86.0573 40.612 85.6109 41.026 85.2116C41.7285 84.4151 42.712 83.3389 43.836 82.1716C44.96 81.0042 45.9491 79.9463 46.6909 79.2045C47.0585 78.7738 47.4673 78.3866 47.9105 78.0493Z" fill="#E0E0E0"/>
<path d="M91.606 77.9277C92.0535 78.2753 92.4677 78.6704 92.8424 79.1073C93.573 79.8673 94.5677 80.9313 95.6524 82.1169C96.737 83.3024 97.7037 84.3969 98.3893 85.1994C98.7862 85.6094 99.144 86.0616 99.4571 86.5492C99.0095 86.2063 98.597 85.813 98.2263 85.3757C97.4901 84.6157 96.4954 83.5517 95.4163 82.3357C94.3373 81.1197 93.3594 80.0497 92.6738 79.2471C92.2756 78.8495 91.9177 78.4072 91.606 77.9277Z" fill="#E0E0E0"/>
<path d="M91.4879 28.5765C91.8213 28.0919 92.1978 27.6439 92.6119 27.2389C93.3088 26.4485 94.2979 25.3723 95.3938 24.1989C96.4897 23.0254 97.5013 21.9797 98.2431 21.2379C98.6145 20.8014 99.027 20.4081 99.4739 20.0645C99.157 20.5486 98.7934 20.995 98.3893 21.396C97.6868 22.1925 96.7033 23.2686 95.5793 24.436C94.4553 25.6033 93.4718 26.6613 92.7299 27.403C92.3585 27.844 91.9418 28.2377 91.4879 28.5765Z" fill="#E0E0E0"/>
<path d="M47.7699 28.692C47.3224 28.3444 46.9082 27.9493 46.5335 27.5125C45.8029 26.7525 44.8082 25.6885 43.7235 24.4725C42.6389 23.2565 41.6947 22.2229 41.0259 21.4203C40.6211 21.0111 40.2575 20.5566 39.9413 20.0645C40.3848 20.4151 40.7968 20.81 41.1721 21.244C41.9027 22.004 42.903 23.068 43.9821 24.284C45.0611 25.5 46.039 26.5701 46.7246 27.3726C47.1129 27.7735 47.4631 28.2155 47.7699 28.692Z" fill="#E0E0E0"/>
<path d="M91.488 77.7211C91.488 77.7211 91.488 77.636 91.488 77.484C91.488 77.332 91.488 77.0888 91.488 76.7969C91.488 76.1889 91.488 75.2952 91.488 74.14C91.488 71.8053 91.488 68.4126 91.4487 64.0958C91.4487 55.4683 91.4037 43.1684 91.3756 28.4427L91.5161 28.5947H47.9442L48.1128 28.4184C48.1128 46.5064 48.1128 63.427 48.1128 77.6968L47.9667 77.5448L79.5286 77.6177L88.3914 77.6603H90.7349H91.3363H91.5442H91.3531H90.7911H88.4757L79.6467 77.7029L47.9948 77.7819H47.77V77.6299C47.77 63.3601 47.77 46.4395 47.77 28.3819V28.2056H47.9386H91.5105H91.6566V28.3636C91.6229 43.132 91.6004 55.4622 91.5835 64.1201C91.5835 68.4187 91.5835 71.7992 91.5442 74.1217C91.5442 75.2648 91.5442 76.1464 91.5442 76.7483C91.5442 77.0401 91.5442 77.259 91.5442 77.4171C91.5442 77.5752 91.488 77.7211 91.488 77.7211Z" fill="#E0E0E0"/>
<path d="M59.4428 49.0293C59.4428 49.0293 58.5099 61.2258 70.7221 61.2258C70.7221 54.7202 65.754 49.5765 59.4428 49.0293Z" fill="#EBEBEB"/>
<path d="M81.7935 49.0355C81.7935 49.0355 70.5142 48.0323 70.5142 61.2381C76.5332 61.2381 81.2877 55.8634 81.7935 49.0355Z" fill="#EBEBEB"/>
<path d="M70.1826 42.3594C70.1826 42.3594 60.9658 51.3091 70.6884 61.2074C75.2068 56.0455 74.8247 47.9226 70.1826 42.3594Z" fill="#E0E0E0"/>
<path d="M234.663 231.478C237.153 230.086 240.086 229.904 242.851 230.402C244.335 230.664 245.886 231.15 246.898 232.354C247.909 233.558 248.101 235.686 246.937 236.725C246.188 237.273 245.285 237.52 244.386 237.424C242.222 237.394 239.822 236.987 238.091 238.391C237.102 239.2 236.45 240.537 235.281 240.933C234.69 241.078 234.071 241.013 233.517 240.746C232.963 240.48 232.504 240.027 232.207 239.455C231.648 238.28 231.526 236.919 231.864 235.649C232.002 234.768 232.326 233.932 232.812 233.209C233.297 232.485 233.931 231.893 234.663 231.478Z" fill="#EBEBEB"/>
<path d="M228.953 219.555C230.476 221.908 233.449 221.13 234.809 219.695C236.169 218.26 236.765 216.175 237.293 214.223C238.496 209.681 239.715 204.927 238.816 200.306C238.604 198.905 238.036 197.596 237.175 196.524C236.74 195.994 236.184 195.598 235.563 195.373C234.941 195.149 234.276 195.106 233.635 195.247C232.145 195.673 231.218 197.254 230.544 198.762C228.571 203.205 227.537 208.066 227.514 212.995C227.514 215.287 227.756 217.695 228.953 219.586" fill="#EBEBEB"/>
<path d="M224.8 222.936C226.452 220.814 226.767 217.713 226.031 215.032C225.295 212.35 223.631 210.107 221.715 208.259C219.461 206.085 216.836 204.409 213.987 203.328C212.884 202.856 211.699 202.649 210.514 202.72C209.921 202.756 209.345 202.949 208.836 203.282C208.328 203.615 207.902 204.077 207.597 204.629C206.788 206.307 207.563 208.338 208.406 209.998C209.889 212.922 211.58 215.717 213.464 218.358C214.987 220.479 216.73 222.577 219.051 223.532C221.372 224.486 223.772 224.377 225.002 222.638" fill="#EBEBEB"/>
<path d="M228.852 255.062C228.931 254.712 228.976 254.353 228.987 253.992C229.06 253.214 229.144 252.235 229.251 251.074C229.386 249.645 229.588 248.224 229.858 246.818C230.214 245.095 230.695 243.406 231.297 241.766C231.886 240.127 232.689 238.587 233.68 237.193C234.488 236.059 235.519 235.133 236.698 234.482C237.496 234.051 238.354 233.761 239.238 233.624C239.57 233.612 239.9 233.561 240.221 233.472C239.889 233.433 239.553 233.433 239.221 233.472C238.305 233.549 237.408 233.803 236.574 234.22C235.331 234.852 234.242 235.789 233.393 236.956C232.356 238.367 231.522 239.939 230.92 241.62C230.306 243.281 229.828 244.999 229.493 246.751C229.235 248.183 229.058 249.631 228.964 251.086C228.88 252.302 228.846 253.33 228.83 254.023C228.805 254.369 228.812 254.718 228.852 255.062Z" fill="#E0E0E0"/>
<path d="M229.037 252.819C229.053 252.653 229.053 252.486 229.037 252.32C229.037 251.949 229.037 251.475 229.037 250.904C229.037 249.688 229.037 247.864 229.094 245.687C229.195 241.285 229.549 236.567 230.218 229.879C230.858 223.598 231.718 216.29 232.629 211.542C232.82 210.459 233.016 209.487 233.191 208.635C233.365 207.784 233.517 207.049 233.663 206.453L233.966 205.073C234.01 204.912 234.039 204.747 234.05 204.58C233.977 204.727 233.922 204.885 233.888 205.048C233.786 205.407 233.663 205.857 233.505 206.41C233.348 206.963 233.168 207.73 232.943 208.581C232.719 209.432 232.522 210.405 232.308 211.475C231.186 217.097 230.341 222.779 229.779 228.499C229.099 235.187 228.796 241.267 228.768 245.699C228.768 247.906 228.768 249.694 228.841 250.922C228.874 251.499 228.897 251.968 228.919 252.345C228.94 252.508 228.979 252.667 229.037 252.819Z" fill="#E0E0E0"/>
<path d="M229.066 241.066C229.101 240.572 229.101 240.076 229.066 239.583C228.988 238.236 228.847 236.895 228.644 235.564C228.346 233.591 227.945 231.638 227.441 229.715C226.855 227.348 226.103 225.033 225.193 222.79C223.617 218.647 221.357 214.85 218.522 211.584C218.033 211.026 217.511 210.502 216.96 210.016C216.718 209.797 216.51 209.578 216.291 209.408L215.684 208.958C215.332 208.656 214.956 208.39 214.56 208.161C214.493 208.252 216.196 209.335 218.343 211.809C221.067 215.103 223.25 218.876 224.8 222.966C225.691 225.195 226.442 227.486 227.048 229.824C227.567 231.731 227.996 233.665 228.335 235.618C228.616 237.29 228.779 238.658 228.897 239.595C228.916 240.089 228.972 240.581 229.066 241.066Z" fill="#E0E0E0"/>
<path d="M218.562 261.793L219.652 277.929H238.811L239.901 261.793H218.562Z" fill="#E0E0E0"/>
<path d="M242.188 255.439H216.713V261.799H242.188V255.439Z" fill="#E0E0E0"/>
<path d="M216.713 277.315V279.079H217.91H241.767V277.315H216.713Z" fill="#EBEBEB"/>
<path d="M219.084 282.179L217.91 279.079H240.851L239.485 282.179H219.084Z" fill="#E0E0E0"/>
<path d="M239.547 267.07C239.519 267.121 239.489 267.169 239.457 267.216C239.378 267.326 239.283 267.459 239.17 267.63L238.046 269.174L237.996 269.241L237.951 269.168L235.214 265.088H235.371L232.674 269.223L232.584 269.35L232.494 269.229L229.296 265.088H229.481L229.302 265.325C228.312 266.675 227.351 267.976 226.441 269.21L226.345 269.338L226.256 269.204L223.558 265.07H223.715L220.388 269.174L220.326 269.247L220.281 269.162L219.242 267.271C219.135 267.064 219.045 266.9 218.972 266.766C218.938 266.71 218.912 266.648 218.893 266.584C218.936 266.634 218.974 266.689 219.006 266.748L219.298 267.228L220.394 269.089H220.304L223.58 264.936L223.659 264.833L223.738 264.942C224.564 266.195 225.48 267.581 226.463 269.058H226.278L229.133 265.173L229.313 264.93L229.403 264.809L229.493 264.93L232.69 269.058H232.511L235.236 264.948L235.315 264.827L235.394 264.948L238.08 269.095H237.979L239.142 267.593L239.451 267.204C239.511 267.111 239.543 267.066 239.547 267.07Z" fill="#F5F5F5"/>
<path d="M240.165 261.689C240.165 261.762 235.366 261.817 229.448 261.817C223.53 261.817 218.725 261.762 218.725 261.689C218.725 261.616 223.524 261.562 229.448 261.562C235.371 261.562 240.165 261.616 240.165 261.689Z" fill="#F5F5F5"/>
<path d="M241.137 279.248C241.137 279.321 235.916 279.376 229.481 279.376C223.047 279.376 217.831 279.321 217.831 279.248C217.831 279.175 223.047 279.121 229.481 279.121C235.916 279.121 241.137 279.181 241.137 279.248Z" fill="#F5F5F5"/>
<path d="M259.459 281.753C259.459 281.838 206.192 281.911 140.506 281.911C74.8191 281.911 21.5415 281.838 21.5415 281.753C21.5415 281.668 74.7966 281.595 140.506 281.595C206.215 281.595 259.459 281.662 259.459 281.753Z" fill="#263238"/>
<path d="M62.7473 241.065C63.5903 237.271 64.7874 233.326 67.53 230.796C70.6715 227.896 75.1057 227.477 79.2308 227.246C102.099 225.963 125.017 226.248 147.913 226.528C151.729 226.502 155.543 226.705 159.338 227.136C163.154 227.641 167.133 228.741 169.825 231.702C171.35 233.526 172.499 235.679 173.197 238.019C177.339 250.118 177.558 271.271 164.992 281.467L72.262 281.497C65.8833 277.624 63.5398 272.31 61.9212 264.595C60.3026 256.879 61.0445 248.763 62.7473 241.065Z" fill="#6C8997"/>
<g opacity="0.3">
<path opacity="0.3" d="M151.942 222.084C152.389 221.804 152.918 221.723 153.419 221.857C153.92 221.991 154.354 222.329 154.629 222.801C158.922 227.795 163.218 232.789 167.515 237.782C167.767 238.031 167.96 238.342 168.077 238.688C168.141 239.17 168.058 239.661 167.841 240.087L157.989 265.769C157.512 266.763 157.274 267.871 157.298 268.991C157.416 270.25 158.169 271.314 158.889 272.305L164.402 279.88C160.642 280.342 156.86 280.61 153.078 280.689L153.606 280.859C151.246 280.377 148.971 279.499 146.862 278.257C146.059 277.849 145.369 277.22 144.861 276.433C143.917 274.749 144.659 272.597 145.384 270.791C148.663 262.614 151.321 254.161 153.331 245.516C151.179 244.178 149.402 242.234 148.188 239.892C148.057 239.545 147.827 239.253 147.531 239.059C147.196 238.953 146.837 238.972 146.513 239.114C140.965 240.816 135.356 242.247 129.687 243.406C122.28 244.926 114.71 245.978 107.207 245.164C99.7045 244.349 92.2243 241.546 86.5986 236.116C108.835 234.4 130.786 229.686 151.942 222.084Z" fill="#4C0AE1"/>
</g>
<path d="M65.4056 236.597C65.4837 236.62 65.5591 236.652 65.6304 236.694L66.2711 237.022C66.8331 237.32 67.6705 237.734 68.7552 238.238C71.819 239.705 74.9605 240.974 78.163 242.038C82.9161 243.615 87.7919 244.72 92.7301 245.34C98.2995 246.057 104.487 246.063 110.956 245.808C117.424 245.553 123.601 245.273 129.204 244.896C134.807 244.519 139.837 243.99 144.041 243.358C148.244 242.725 151.622 242.032 153.938 241.479C155.101 241.217 155.994 240.968 156.601 240.816L157.298 240.646L157.534 240.597C157.46 240.633 157.383 240.659 157.304 240.676L156.618 240.883C156.011 241.047 155.123 241.321 153.966 241.594C151.65 242.202 148.278 242.938 144.069 243.583C139.859 244.227 134.824 244.799 129.221 245.188C123.618 245.577 117.419 245.85 110.961 246.124C104.504 246.398 98.2883 246.361 92.702 245.632C87.7462 245.002 82.8548 243.878 78.09 242.275C74.8844 241.191 71.7459 239.887 68.6933 238.372C67.6199 237.831 66.7882 237.393 66.2374 237.077L65.6023 236.724C65.5341 236.687 65.4684 236.644 65.4056 236.597Z" fill="#263238"/>
<path d="M82.7658 255.129C82.6565 254.565 82.6224 253.988 82.6646 253.414C82.6952 252.023 82.8974 250.643 83.2659 249.31C83.627 247.974 84.1545 246.698 84.8339 245.516C85.037 245.131 85.3626 244.839 85.75 244.695C86.0478 244.635 86.194 244.75 86.1827 244.762C86.0482 244.763 85.9142 244.782 85.7837 244.817C85.4486 244.991 85.176 245.279 85.0081 245.638C84.394 246.83 83.9039 248.092 83.5469 249.401C83.1901 250.713 82.9622 252.062 82.8669 253.426C82.8618 253.995 82.828 254.564 82.7658 255.129Z" fill="#263238"/>
<path d="M78.0843 249.335C77.9448 249 77.872 248.638 77.8708 248.271C77.7406 246.496 78.2143 244.732 79.2027 243.309C79.3873 243.002 79.6283 242.739 79.9108 242.537C79.2681 243.524 78.759 244.605 78.3991 245.747C78.1346 246.92 78.0286 248.129 78.0843 249.335Z" fill="#263238"/>
<path d="M139.713 254.569C139.977 252.941 140.109 251.291 140.107 249.638C140.002 247.997 139.763 246.37 139.393 244.774C139.621 245.201 139.788 245.662 139.887 246.142C140.491 248.438 140.57 250.859 140.118 253.195C140.048 253.673 139.911 254.136 139.713 254.569Z" fill="#263238"/>
<path d="M142.855 251.523C142.891 250.307 142.865 249.089 142.776 247.875C142.584 246.676 142.334 245.489 142.029 244.318C143.123 246.523 143.417 249.09 142.855 251.517V251.523Z" fill="#263238"/>
<path d="M159.046 171.845L162.418 187.045L169.089 194.08L158.209 196.512C158.209 196.512 150.515 195.527 149.127 193.472C147.739 191.417 145.755 175.068 145.755 175.068L159.046 171.845Z" fill="#FFBE9D"/>
<path d="M135.892 129.017L146.041 133.073L145.659 190.304C145.659 190.304 129.563 205.504 128.591 205.364C127.619 205.224 88.6106 218.606 87.5652 221.087C87.5652 221.087 82.7433 220.29 82.7433 217.195C82.7433 212.106 87.2393 209.224 87.2393 209.224C85.5196 204.294 87.9474 195.447 87.9474 195.113C87.9474 192.742 88.0148 179.779 88.0148 179.779C88.0148 179.779 90.1504 141.955 97.0462 134.088C105.656 124.317 135.892 129.017 135.892 129.017Z" fill="#6C8997"/>
<g opacity="0.3">
<path opacity="0.3" d="M104.465 211.383C102.217 211.541 99.7382 211.651 97.8611 210.277C96.1751 209.061 95.3096 206.848 94.6352 204.756C92.6597 198.607 91.463 192.198 91.0778 185.701C91.0863 185.3 90.9909 184.904 90.8024 184.558C90.5533 184.284 90.2717 184.047 89.965 183.853C89.0602 183.069 89.0771 181.597 89.2232 180.351C89.2272 180.145 89.2944 179.946 89.4143 179.786C89.5632 179.651 89.7489 179.574 89.9425 179.567L94.9331 178.77C95.1089 178.72 95.2956 178.744 95.4558 178.837C95.5541 178.93 95.6245 179.053 95.6581 179.19C99.3167 189.526 99.4628 201.345 104.684 210.903" fill="#4C0AE1"/>
</g>
<path d="M162.418 170.799C162.418 170.799 152.634 132.702 144.316 132.379L145.226 177.906C145.226 177.906 160.131 175.14 162.418 170.799Z" fill="#6C8997"/>
<g opacity="0.3">
<path opacity="0.3" d="M133.261 176.32C133.767 177.803 133.295 179.36 132.57 180.722C131.794 182.072 130.716 183.189 129.434 183.968C126.276 186.017 122.179 186.546 118.857 184.826C118.724 184.775 118.601 184.695 118.497 184.59C118.394 184.486 118.312 184.359 118.256 184.218C118.23 184.02 118.273 183.818 118.377 183.653C118.481 183.488 118.638 183.37 118.818 183.324C119.172 183.239 119.538 183.239 119.891 183.324C124.5 183.853 130.305 181.099 133.29 176.332" fill="#4C0AE1"/>
</g>
<path d="M118.644 183.16C118.644 183.087 119.656 183.269 121.274 183.16C121.716 183.137 122.157 183.089 122.595 183.014C123.067 182.953 123.561 182.825 124.084 182.704C126.35 182.109 128.469 180.989 130.294 179.42C130.686 179.08 131.061 178.719 131.418 178.338C131.74 178.011 132.045 177.666 132.334 177.304C133.402 175.979 133.885 175.012 133.942 175.043C133.854 175.284 133.743 175.514 133.61 175.73C133.48 175.996 133.329 176.25 133.16 176.49C132.955 176.822 132.732 177.141 132.492 177.444C132.214 177.826 131.911 178.185 131.587 178.52C131.233 178.919 130.858 179.294 130.463 179.645C128.626 181.279 126.463 182.43 124.146 183.008C123.645 183.131 123.138 183.226 122.629 183.293C122.183 183.357 121.735 183.394 121.285 183.403C120.911 183.425 120.536 183.425 120.161 183.403C119.882 183.398 119.604 183.369 119.33 183.318C119.097 183.289 118.867 183.236 118.644 183.16Z" fill="#263238"/>
<path d="M113.799 163.071C113.9 162.992 114.007 162.923 114.12 162.865C114.328 162.737 114.648 162.567 115.07 162.366C116.262 161.79 117.527 161.411 118.824 161.241C119.726 161.128 120.639 161.159 121.533 161.333C122.557 161.539 123.537 161.952 124.421 162.549C125.36 163.157 126.259 163.935 127.231 164.658C128.191 165.44 129.292 165.995 130.463 166.288C131.648 166.492 132.861 166.392 134.003 165.996C135.076 165.636 136.121 165.185 137.128 164.646C138.112 164.154 139.05 163.679 139.966 163.327C140.815 162.981 141.704 162.764 142.608 162.682C143.926 162.546 145.249 162.888 146.367 163.655C146.661 163.872 146.928 164.129 147.16 164.421C147.243 164.52 147.315 164.631 147.373 164.749C147.057 164.372 146.698 164.039 146.306 163.758C145.195 163.053 143.905 162.752 142.624 162.901C141.743 162.999 140.877 163.224 140.05 163.57C139.151 163.929 138.224 164.409 137.24 164.914C136.217 165.465 135.156 165.929 134.065 166.3C132.88 166.715 131.62 166.819 130.39 166.604C129.18 166.303 128.042 165.729 127.051 164.92C126.079 164.184 125.191 163.412 124.275 162.804C122.657 161.702 120.74 161.23 118.841 161.466C117.559 161.612 116.302 161.954 115.109 162.482C114.682 162.658 114.356 162.816 114.137 162.925C114.03 162.987 113.916 163.036 113.799 163.071Z" fill="white"/>
<path d="M113.799 166.963C113.9 166.883 114.007 166.814 114.12 166.756C114.328 166.628 114.648 166.452 115.07 166.251C116.262 165.678 117.528 165.301 118.824 165.133C119.726 165.017 120.638 165.046 121.533 165.218C122.557 165.425 123.537 165.837 124.421 166.434C125.36 167.042 126.259 167.82 127.231 168.537C128.191 169.321 129.292 169.878 130.463 170.173C131.648 170.374 132.86 170.274 134.003 169.881C135.075 169.521 136.12 169.071 137.128 168.537C138.112 168.045 139.05 167.565 139.966 167.212C140.816 166.869 141.704 166.652 142.608 166.567C143.927 166.432 145.25 166.777 146.367 167.546C146.661 167.763 146.928 168.02 147.16 168.312C147.245 168.41 147.317 168.521 147.373 168.641C147.057 168.263 146.698 167.93 146.306 167.65C145.195 166.944 143.905 166.644 142.624 166.792C141.743 166.89 140.877 167.115 140.05 167.461C139.151 167.82 138.224 168.3 137.24 168.799C136.219 169.355 135.157 169.821 134.065 170.191C132.879 170.602 131.62 170.706 130.39 170.495C129.179 170.195 128.041 169.618 127.051 168.805C126.079 168.075 125.191 167.303 124.275 166.695C122.658 165.59 120.74 165.118 118.841 165.358C117.559 165.505 116.303 165.845 115.109 166.367C114.682 166.549 114.356 166.701 114.137 166.811C114.029 166.872 113.916 166.923 113.799 166.963Z" fill="white"/>
<path d="M113.799 170.848C113.901 170.772 114.008 170.705 114.12 170.647C114.328 170.52 114.648 170.343 115.07 170.143C116.262 169.569 117.528 169.192 118.824 169.024C119.725 168.905 120.639 168.934 121.533 169.109C122.558 169.313 123.538 169.726 124.421 170.325C125.36 170.933 126.259 171.711 127.231 172.429C128.191 173.211 129.292 173.766 130.463 174.058C131.648 174.265 132.861 174.165 134.003 173.766C135.076 173.411 136.121 172.963 137.128 172.429C138.112 171.93 139.05 171.456 139.966 171.103C140.816 170.76 141.704 170.543 142.608 170.459C143.926 170.325 145.248 170.667 146.367 171.432C146.662 171.65 146.928 171.91 147.16 172.204C147.245 172.302 147.317 172.412 147.373 172.532C147.057 172.154 146.698 171.819 146.306 171.535C145.194 170.834 143.904 170.536 142.624 170.684C141.743 170.781 140.877 171.006 140.05 171.352C139.151 171.705 138.224 172.185 137.24 172.69C136.219 173.247 135.157 173.711 134.065 174.076C132.88 174.493 131.62 174.599 130.39 174.386C129.179 174.083 128.042 173.507 127.051 172.696C126.079 171.96 125.191 171.194 124.275 170.586C122.659 169.48 120.741 169.005 118.841 169.243C117.559 169.392 116.303 169.733 115.109 170.258C114.682 170.44 114.356 170.592 114.137 170.702C114.031 170.767 113.918 170.816 113.799 170.848Z" fill="white"/>
<path d="M111.051 137.268C110.613 135.942 109.909 134.737 108.989 133.74C108.069 132.743 106.957 131.979 105.732 131.503C104.507 131.027 103.199 130.851 101.903 130.986C100.607 131.122 99.3556 131.567 98.2376 132.288C96.3223 133.474 94.6736 135.104 93.41 137.061C89.476 143.591 87.9698 179.895 87.9698 179.895L113.428 178.806C113.428 178.806 114.215 156.517 113.428 146.443C113.058 141.664 111.962 139.955 111.051 137.268Z" fill="#6C8997"/>
<path d="M111.051 137.268C111.084 137.325 111.111 137.386 111.13 137.45L111.338 137.997L112.164 140.119C112.594 141.26 112.921 142.443 113.142 143.652C113.415 145.283 113.584 146.932 113.648 148.589C114.019 155.994 113.934 166.494 113.563 178.812V178.946H113.44L88.9646 180.004L87.9811 180.047H87.8237V179.876C88.2509 170.55 88.8915 161.691 89.7907 153.672C90.1932 149.874 90.7765 146.101 91.5386 142.369C91.7296 141.493 91.9432 140.642 92.1848 139.815C92.2972 139.396 92.449 138.995 92.5782 138.599C92.7244 138.204 92.8914 137.819 93.0784 137.444C93.8414 136.058 94.834 134.836 96.0065 133.839C97.042 132.906 98.1919 132.132 99.4234 131.54C100.544 131.044 101.748 130.806 102.958 130.841C104.897 130.92 106.761 131.67 108.275 132.981C109.221 133.814 109.997 134.849 110.557 136.021C110.702 136.322 110.83 136.633 110.939 136.952C111.017 137.164 111.051 137.274 111.051 137.274C111.051 137.274 111.001 137.171 110.911 136.964C110.791 136.652 110.656 136.348 110.506 136.052C109.768 134.568 108.681 133.322 107.354 132.439C106.028 131.556 104.51 131.068 102.953 131.024C101.768 131.002 100.591 131.244 99.4965 131.735C98.2793 132.325 97.1443 133.097 96.1245 134.027C94.9762 135.007 94.0062 136.209 93.2639 137.572C93.0826 137.938 92.9212 138.316 92.7806 138.703C92.6569 139.098 92.5052 139.493 92.3928 139.919C92.1567 140.739 91.9488 141.591 91.7633 142.46C91.0117 146.185 90.4396 149.949 90.0492 153.739C89.1613 161.746 88.5319 170.604 88.1047 179.919L87.953 179.755L88.9365 179.712L113.412 178.679L113.282 178.819C113.676 166.507 113.794 156.012 113.473 148.619C113.422 146.97 113.267 145.326 113.007 143.7C112.797 142.494 112.483 141.311 112.068 140.168C111.731 139.244 111.467 138.532 111.287 138.034C111.107 137.535 111.051 137.268 111.051 137.268Z" fill="#263238"/>
<path d="M145.744 181.47C145.732 181.365 145.732 181.259 145.744 181.153C145.772 180.91 145.805 180.612 145.845 180.254L146.227 176.94C146.53 174.143 146.901 170.252 147.143 165.996C147.385 161.74 147.396 157.812 147.289 155.003C147.259 154.306 147.231 153.674 147.205 153.106C147.165 152.559 147.132 152.085 147.104 151.678C147.075 151.27 147.059 151.015 147.042 150.772C147.027 150.667 147.027 150.56 147.042 150.456C147.074 150.555 147.093 150.66 147.098 150.766C147.132 151.003 147.171 151.301 147.216 151.665C147.261 152.03 147.323 152.535 147.368 153.094C147.413 153.654 147.452 154.31 147.497 154.991C147.671 158.664 147.65 162.344 147.435 166.014C147.193 170.313 146.789 174.186 146.429 176.958C146.249 178.351 146.086 179.481 145.957 180.26C145.895 180.649 145.845 180.947 145.805 181.147C145.801 181.258 145.78 181.366 145.744 181.47Z" fill="#263238"/>
<path d="M181.492 174.113C182.116 173.128 183.021 171.711 183.645 170.72C183.711 170.608 183.794 170.509 183.892 170.428C184.03 170.348 184.186 170.312 184.342 170.325C185.323 170.421 186.269 170.769 187.101 171.34L189.394 172.672C189.461 172.703 189.523 172.749 189.574 172.805C189.642 172.91 189.668 173.038 189.648 173.164C189.628 173.289 189.563 173.401 189.467 173.474C189.271 173.619 189.041 173.699 188.804 173.705C186.511 174.015 184.201 174.216 181.891 174.313C181.74 174.313 181.543 174.313 181.498 174.137" fill="#FFBE9D"/>
<path d="M198.588 249.65L213.689 264.565C213.689 264.565 232.904 252.958 235.826 255.445L210.154 286.86L186.708 264.662L198.588 249.65Z" fill="#4C0AE1"/>
<path d="M204.855 272.384C204.693 272.768 204.668 273.202 204.784 273.605C204.9 274.008 205.149 274.35 205.484 274.566C205.832 274.755 206.233 274.793 206.606 274.67C206.978 274.548 207.293 274.276 207.485 273.91C207.652 273.503 207.675 273.044 207.551 272.619C207.427 272.195 207.163 271.834 206.81 271.605C206.091 271.289 204.973 271.721 204.793 272.536" fill="#E0E0E0"/>
<path d="M210.154 286.842L207.873 284.501L233.342 255.256C233.342 255.256 235.028 254.393 235.826 255.427L210.154 286.842Z" fill="#263238"/>
<path d="M214.319 263.781C214.459 263.927 213.897 264.753 213.757 265.945C213.616 267.137 213.864 268.104 213.689 268.195C213.515 268.286 212.886 267.271 213.127 265.83C213.369 264.389 214.218 263.623 214.319 263.781Z" fill="#263238"/>
<path d="M218.275 261.142C218.438 261.239 218.135 262.133 218.309 263.227C218.483 264.322 218.995 265.051 218.871 265.228C218.747 265.404 217.859 264.705 217.668 263.337C217.477 261.969 218.135 261.014 218.275 261.142Z" fill="#263238"/>
<path d="M223.446 262.753C223.361 262.923 222.479 262.461 222.024 261.324C221.568 260.187 221.849 259.172 222.024 259.22C222.198 259.269 222.248 260.108 222.636 261.044C223.024 261.981 223.558 262.589 223.446 262.753Z" fill="#263238"/>
<path d="M140.955 212.702C141.006 212.702 140.719 213.31 140.562 214.374C140.384 215.744 140.48 217.14 140.843 218.466C141.219 219.796 141.714 221.083 142.321 222.309C142.594 222.811 142.827 223.338 143.018 223.883C142.681 223.428 142.387 222.937 142.141 222.418C141.47 221.204 140.94 219.905 140.562 218.551C140.18 217.183 140.111 215.735 140.36 214.332C140.441 213.913 140.566 213.505 140.73 213.116C140.854 212.83 140.938 212.696 140.955 212.702Z" fill="#4C0AE1"/>
<path d="M176.867 253.268L169.606 272.754C169.606 272.754 185.449 289.438 184.218 293.22L148.553 276.804L160.603 245.723L176.867 253.268Z" fill="#4C0AE1"/>
<path d="M159.535 266.79C159.147 266.747 158.759 266.86 158.443 267.106C158.127 267.353 157.906 267.716 157.821 268.128C157.772 268.541 157.87 268.958 158.094 269.297C158.318 269.635 158.652 269.869 159.029 269.952C159.439 269.995 159.85 269.874 160.184 269.612C160.517 269.35 160.75 268.965 160.839 268.529C160.889 267.69 160.159 266.705 159.383 266.754" fill="#E0E0E0"/>
<path d="M148.542 276.798L149.869 273.715L183.589 290.612C183.589 290.612 184.881 292.089 184.229 293.22L148.542 276.798Z" fill="#263238"/>
<path d="M170.561 273.6C170.483 273.788 169.578 273.472 168.482 273.679C167.386 273.886 166.616 274.475 166.487 274.323C166.358 274.171 167.049 273.211 168.375 272.98C169.702 272.749 170.668 273.454 170.561 273.6Z" fill="#263238"/>
<path d="M173.658 277.011C173.624 277.211 172.742 277.181 171.837 277.704C170.932 278.227 170.432 278.993 170.258 278.92C170.084 278.847 170.398 277.704 171.534 277.096C172.669 276.488 173.709 276.828 173.658 277.011Z" fill="#263238"/>
<path d="M173.866 282.829C173.692 282.798 173.815 281.741 174.67 280.92C175.524 280.099 176.502 280.056 176.513 280.245C176.524 280.433 175.805 280.756 175.114 281.461C174.422 282.166 174.046 282.89 173.866 282.829Z" fill="#263238"/>
<path d="M195.273 174.295L179.975 190.96L146.918 199.102L156.006 179.871C156.335 179.163 156.819 178.554 157.415 178.095C158.012 177.637 158.703 177.342 159.428 177.238C166.138 176.259 185.477 173.414 194.076 171.863C194.353 171.813 194.638 171.858 194.891 171.993C195.143 172.128 195.35 172.345 195.483 172.613C195.615 172.882 195.666 173.189 195.628 173.491C195.59 173.793 195.466 174.074 195.273 174.295Z" fill="#E0E0E0"/>
<path d="M195.273 174.295C195.273 174.295 195.34 174.204 195.441 174.021C195.59 173.744 195.644 173.419 195.593 173.103C195.557 172.849 195.459 172.61 195.309 172.411C195.158 172.213 194.962 172.061 194.739 171.972C194.447 171.881 194.137 171.881 193.845 171.972L192.8 172.167C189.844 172.702 185.561 173.383 180.267 174.24C174.973 175.098 168.662 176.034 161.654 177.074C160.783 177.213 159.872 177.311 159.007 177.487C158.135 177.712 157.35 178.224 156.759 178.952C156.459 179.317 156.209 179.727 156.017 180.168L155.376 181.53L154.078 184.284L148.66 195.776L147.047 199.186L146.884 198.955L179.947 190.851L179.896 190.887C184.6 185.792 188.433 181.64 191.102 178.758L194.182 175.444L194.992 174.593C195.171 174.398 195.273 174.307 195.273 174.307C195.273 174.307 195.188 174.417 195.014 174.617L194.227 175.499L191.192 178.849L180.054 191.058H180.02L146.974 199.235L146.671 199.314L146.811 199.01C147.34 197.891 147.879 196.755 148.419 195.605L153.848 184.126L155.151 181.372L155.798 180.01C155.998 179.543 156.259 179.109 156.573 178.721C157.206 177.952 158.041 177.411 158.967 177.171C159.883 176.976 160.754 176.891 161.637 176.751L180.262 173.991C185.561 173.182 189.844 172.507 192.8 172.015L193.851 171.839C194.157 171.743 194.483 171.743 194.789 171.839C195.024 171.937 195.229 172.102 195.385 172.316C195.54 172.53 195.639 172.785 195.672 173.055C195.719 173.385 195.653 173.722 195.486 174.003C195.431 174.113 195.359 174.212 195.273 174.295Z" fill="#263238"/>
<path d="M170.41 185.768C170.505 186.528 171.534 186.984 172.658 186.838C173.782 186.692 174.681 185.932 174.591 185.172C174.501 184.412 173.467 183.956 172.343 184.102C171.219 184.248 170.32 185.014 170.41 185.768Z" fill="white"/>
<path d="M172.231 186.887C171.258 186.887 170.477 186.437 170.398 185.774C170.389 185.564 170.43 185.355 170.518 185.168C170.606 184.98 170.737 184.82 170.899 184.704C171.326 184.375 171.822 184.164 172.342 184.09C172.862 184.016 173.391 184.08 173.883 184.278C174.075 184.329 174.248 184.442 174.38 184.601C174.512 184.76 174.597 184.959 174.623 185.171C174.649 185.383 174.615 185.599 174.526 185.79C174.437 185.981 174.297 186.138 174.125 186.242C173.702 186.58 173.203 186.79 172.68 186.85C172.531 186.874 172.381 186.886 172.231 186.887ZM172.793 184.084C172.64 184.084 172.488 184.096 172.337 184.12C171.82 184.18 171.326 184.39 170.91 184.728C170.75 184.839 170.62 184.993 170.533 185.176C170.446 185.358 170.405 185.563 170.415 185.768C170.505 186.516 171.539 186.984 172.663 186.826C173.182 186.763 173.677 186.554 174.096 186.218C174.255 186.106 174.384 185.951 174.47 185.769C174.555 185.586 174.595 185.383 174.585 185.178C174.547 184.976 174.46 184.79 174.332 184.637C174.205 184.484 174.042 184.371 173.86 184.309C173.526 184.157 173.167 184.08 172.804 184.084H172.793Z" fill="#4C0AE1"/>
<path d="M156.798 182.868C156.822 182.717 156.866 182.569 156.927 182.43C157.066 182.016 157.226 181.61 157.405 181.214C157.674 180.583 158.034 180.002 158.473 179.494C159.157 178.93 159.98 178.598 160.839 178.539C164.514 177.858 169.589 176.904 175.22 175.986L179.323 175.305C180.655 175.116 181.942 174.976 183.167 174.824L189.681 174.052C191.524 173.833 192.997 173.444 194.031 173.286C194.548 173.195 194.947 173.134 195.222 173.11C195.36 173.092 195.5 173.092 195.638 173.11C195.504 173.151 195.366 173.18 195.228 173.195C194.958 173.244 194.559 173.323 194.047 173.432C193.025 173.633 191.563 174.04 189.703 174.301L183.212 175.141C181.987 175.299 180.706 175.445 179.374 175.633L175.271 176.326C169.651 177.238 164.593 178.15 160.884 178.758C160.06 178.8 159.265 179.1 158.597 179.621C158.161 180.107 157.797 180.663 157.517 181.269C157.27 181.768 157.107 182.163 156.989 182.43C156.936 182.582 156.872 182.728 156.798 182.868Z" fill="#263238"/>
<path d="M139.938 185.172C139.938 185.172 146.03 181.098 147.997 180.241C149.964 179.384 153.589 179.815 154.46 178.964C155.331 178.113 157.27 176.155 157.27 176.155C157.27 176.155 158.844 177.943 157.832 179.56C156.82 181.177 152.948 183.305 152.948 183.305L166.498 182.339C166.498 182.339 167.521 183.141 166.97 184.078C166.97 184.078 167.926 185.184 167.133 186.291C166.341 187.397 156.708 196.238 153.684 196.505C150.661 196.773 141.883 195.028 141.883 195.028L139.938 185.172Z" fill="#FFBE9D"/>
<path d="M109.523 178.989L110.787 193.66C110.787 193.66 135.706 186.972 139.932 185.148L141.916 195.004C141.916 195.004 110.928 211.73 103.408 211.225C95.8884 210.721 91.1339 179.895 91.1339 179.895L109.523 178.989Z" fill="#FFBE9D"/>
<path d="M101.402 199.551C101.365 199.375 101.365 199.193 101.402 199.016C101.451 198.53 101.578 198.057 101.778 197.618C102.076 196.962 102.491 196.375 102.998 195.891C103.616 195.314 104.326 194.863 105.094 194.56C106.496 194.069 107.947 193.763 109.416 193.648C110.016 193.538 110.623 193.481 111.231 193.478C110.648 193.659 110.052 193.789 109.45 193.867C108.007 194.048 106.584 194.38 105.201 194.858C104.459 195.152 103.769 195.582 103.161 196.128C102.672 196.582 102.262 197.128 101.952 197.74C101.685 198.31 101.499 198.921 101.402 199.551Z" fill="#EB996E"/>
<path d="M152.639 186.528C153.369 186.563 154.097 186.639 154.82 186.753C156.555 187.002 158.316 186.934 160.03 186.552C160.955 186.267 161.864 185.92 162.75 185.513L164.998 184.582C165.627 184.321 166.122 184.114 166.498 183.974C166.679 183.891 166.867 183.83 167.06 183.792C166.898 183.914 166.723 184.014 166.538 184.09C166.195 184.26 165.689 184.497 165.065 184.783L162.873 185.774C161.981 186.206 161.06 186.568 160.119 186.856C158.375 187.25 156.577 187.288 154.82 186.966C154.145 186.862 153.606 186.759 153.235 186.68C153.031 186.662 152.83 186.611 152.639 186.528Z" fill="#EB996E"/>
<path d="M154.151 191.331C154.151 191.271 155 191.386 156.354 191.362C157.145 191.349 157.929 191.197 158.675 190.912C159.586 190.548 160.46 190.084 161.283 189.526C162.176 188.954 163.025 188.383 163.84 187.939C164.655 187.495 165.385 187.13 165.97 186.753C166.601 186.356 167.178 185.864 167.684 185.294C167.603 185.493 167.486 185.672 167.341 185.823C166.969 186.258 166.544 186.637 166.077 186.948C165.515 187.349 164.756 187.744 163.964 188.164C163.171 188.583 162.334 189.191 161.429 189.769C160.589 190.337 159.693 190.803 158.759 191.161C157.985 191.435 157.174 191.569 156.36 191.556C155.816 191.549 155.274 191.505 154.735 191.423C154.538 191.424 154.341 191.393 154.151 191.331Z" fill="#EB996E"/>
<path d="M148.183 186.218C148.149 186.218 148.025 186.048 147.975 185.689C147.925 185.224 147.993 184.754 148.171 184.327C148.349 183.912 148.592 183.533 148.891 183.209C149.11 182.965 149.273 182.838 149.301 182.868C149.329 182.899 148.829 183.561 148.441 184.455C148.28 184.837 148.192 185.251 148.183 185.671C148.177 185.999 148.222 186.2 148.183 186.218Z" fill="#EB996E"/>
<path d="M149.132 190.304C149.132 190.334 148.986 190.304 148.834 190.176C148.635 189.995 148.493 189.75 148.43 189.477C148.359 189.207 148.371 188.919 148.464 188.656C148.537 188.456 148.632 188.37 148.66 188.389C148.688 188.407 148.576 188.869 148.711 189.398C148.846 189.927 149.177 190.225 149.132 190.304Z" fill="#EB996E"/>
<path d="M141.916 195.028H142.068L142.512 195.095L144.198 195.387C145.693 195.624 147.857 195.995 150.582 196.269C151.262 196.329 151.982 196.396 152.729 196.396C152.915 196.396 153.1 196.396 153.291 196.396C153.48 196.397 153.668 196.377 153.853 196.335C154.24 196.251 154.617 196.121 154.977 195.946C156.529 195.112 158.008 194.127 159.394 193.004C160.889 191.842 162.429 190.572 163.992 189.137C164.767 188.431 165.565 187.708 166.335 186.93C166.7 186.528 167.15 186.17 167.262 185.659C167.306 185.394 167.293 185.121 167.222 184.863C167.152 184.604 167.027 184.367 166.858 184.169L166.785 184.078L166.841 183.981C166.914 183.864 166.96 183.731 166.974 183.591C166.989 183.451 166.972 183.31 166.925 183.178C166.817 182.89 166.639 182.64 166.408 182.455L166.498 182.485L161.384 182.85L152.954 183.458L152.291 183.507L152.881 183.166C154.336 182.378 155.71 181.425 156.978 180.321C157.27 180.057 157.529 179.752 157.748 179.415C157.949 179.09 158.051 178.705 158.04 178.314C157.976 177.542 157.675 176.814 157.186 176.247H157.36L155.758 177.822C155.5 178.083 155.241 178.333 154.983 178.588C154.744 178.869 154.463 179.103 154.151 179.281C153.515 179.506 152.853 179.634 152.184 179.664C151.549 179.725 150.931 179.761 150.335 179.828C149.767 179.88 149.203 179.977 148.649 180.12C148.132 180.271 147.632 180.486 147.16 180.758C146.232 181.257 145.395 181.762 144.642 182.218C143.141 183.142 141.967 183.89 141.169 184.394L140.253 184.972L140.017 185.118L139.932 185.16L140.005 185.1L140.23 184.935L141.124 184.327C141.916 183.798 143.074 183.026 144.569 182.084C145.316 181.616 146.148 181.099 147.081 180.588C147.562 180.304 148.071 180.079 148.598 179.919C149.168 179.772 149.746 179.666 150.329 179.603C150.931 179.536 151.549 179.488 152.184 179.427C152.826 179.395 153.461 179.271 154.072 179.056C154.358 178.884 154.617 178.662 154.837 178.399L155.607 177.633L157.203 176.046L157.298 175.949L157.382 176.053C157.92 176.669 158.249 177.464 158.315 178.308C158.33 178.757 158.214 179.199 157.984 179.573C157.755 179.936 157.48 180.263 157.169 180.546C155.888 181.671 154.497 182.642 153.021 183.44L152.948 183.148L161.378 182.54L166.492 182.175H166.549L166.588 182.212C166.865 182.437 167.081 182.74 167.212 183.087C167.27 183.264 167.29 183.453 167.27 183.64C167.249 183.827 167.189 184.006 167.094 184.163V183.975C167.296 184.208 167.444 184.49 167.526 184.798C167.607 185.106 167.619 185.43 167.56 185.744C167.485 186.049 167.335 186.326 167.128 186.547C166.936 186.778 166.74 186.96 166.566 187.155C165.784 187.933 164.986 188.662 164.205 189.368C162.632 190.772 161.086 192.067 159.58 193.229C158.168 194.356 156.663 195.339 155.084 196.165C154.712 196.348 154.322 196.481 153.921 196.56C153.727 196.607 153.529 196.629 153.33 196.627C153.139 196.627 152.948 196.627 152.768 196.627C152.01 196.627 151.296 196.542 150.61 196.481C147.879 196.177 145.715 195.77 144.226 195.496L142.54 195.162L142.102 195.059L141.916 195.028Z" fill="#EB996E"/>
<path d="M149.048 198.986C149.048 198.986 185.623 188.893 189.602 189.167C193.581 189.44 206.4 191.988 201.404 208.142C196.408 224.297 174.035 265.337 174.035 265.337L155.208 256.776L166.448 227.246C166.448 227.246 142.9 234.913 133.211 235.521C123.522 236.129 115.587 221.312 115.587 221.312L149.048 198.986Z" fill="#263238"/>
<path d="M180.273 204.215C180.627 203.744 181.035 203.323 181.487 202.962C182.545 202.045 183.699 201.266 184.926 200.64C186.154 200.023 187.442 199.554 188.765 199.241C189.771 198.992 190.349 198.712 190.366 198.749C189.898 199.09 189.373 199.331 188.821 199.46C187.526 199.827 186.264 200.317 185.05 200.925C183.842 201.546 182.691 202.287 181.61 203.139C180.784 203.795 180.301 204.251 180.273 204.215Z" fill="#6C8997"/>
<path d="M173.237 217.196C173.276 216.984 173.342 216.779 173.433 216.588C173.579 216.217 173.799 215.688 174.08 215.043C175.536 211.656 177.344 208.46 179.469 205.516C179.879 204.95 180.211 204.494 180.447 204.19C180.557 204.019 180.69 203.865 180.84 203.734C180.763 203.925 180.661 204.103 180.537 204.263L179.638 205.65C178.879 206.811 177.822 208.422 176.772 210.276C175.721 212.131 174.878 213.876 174.265 215.14C173.984 215.748 173.742 216.223 173.534 216.642C173.458 216.84 173.358 217.026 173.237 217.196Z" fill="#6C8997"/>
<path d="M140.798 194.633C142.28 193.98 143.853 193.601 145.451 193.514C147.941 193.374 151.538 193.514 153.881 195.216C157.748 198.001 207.198 254.472 207.198 254.472L193.328 272.925C193.328 272.925 167.853 252.958 161.041 245.024C154.23 237.089 146.502 224.516 146.502 224.516C146.502 224.516 137.274 235.065 128.687 239.679C123.342 242.549 110.259 245.759 99.002 244.683C96.7188 244.47 94.4979 243.766 92.4701 242.611C90.4422 241.456 88.6483 239.874 87.1937 237.958C85.7391 236.043 84.6532 233.832 83.9999 231.455C83.3467 229.079 83.1391 226.585 83.3896 224.121C83.3896 224.048 83.3896 223.981 83.3896 223.914C83.6488 222.099 83.9996 220.301 84.4405 218.527L140.798 194.633Z" fill="#263238"/>
<path d="M140.798 194.633C140.798 194.633 140.461 194.791 139.798 195.077L136.853 196.342L125.579 201.157L84.508 218.613L84.5755 218.534C84.2045 220.078 83.8505 221.665 83.6088 223.288C83.5035 224.109 83.4379 224.935 83.4121 225.763C83.3925 226.18 83.3925 226.598 83.4121 227.015C83.4178 227.436 83.446 227.856 83.4964 228.274C83.5526 228.687 83.6088 229.107 83.6706 229.526C83.7325 229.946 83.8505 230.359 83.9404 230.773C84.1408 231.599 84.3886 232.411 84.6822 233.205C85.3342 234.817 86.1768 236.332 87.1888 237.71C88.252 239.097 89.4825 240.324 90.8474 241.358C92.2644 242.379 93.806 243.181 95.4277 243.741C97.1 244.261 98.8253 244.555 100.564 244.617C101.447 244.696 102.335 244.684 103.223 244.714C104.111 244.744 105.01 244.714 105.909 244.665C109.571 244.509 113.217 244.058 116.817 243.316C118.655 242.951 120.487 242.483 122.314 241.942C124.156 241.415 125.961 240.746 127.715 239.941C129.478 239.071 131.17 238.042 132.773 236.865C134.397 235.703 135.982 234.433 137.516 233.107C140.642 230.39 143.609 227.466 146.401 224.352L146.525 224.212L146.626 224.37C149.385 228.778 152.437 233.381 155.708 237.88C158.411 241.571 161.165 245.176 164.368 248.216C167.572 251.256 170.826 254.162 174.085 256.959C180.616 262.541 187.095 267.794 193.39 272.767H193.199L207.08 254.32V254.509C188.686 233.527 173.147 215.944 162.053 203.777C160.663 202.257 159.34 200.829 158.085 199.491C157.467 198.818 156.856 198.176 156.253 197.564C155.652 196.956 155.09 196.348 154.494 195.819L154.061 195.417C153.925 195.281 153.774 195.162 153.612 195.065C153.458 194.957 153.298 194.86 153.134 194.773C152.976 194.682 152.813 194.603 152.651 194.53C152.025 194.245 151.376 194.025 150.712 193.873C149.552 193.611 148.372 193.475 147.188 193.466C146.25 193.433 145.311 193.474 144.378 193.587C143.702 193.677 143.034 193.819 142.377 194.013C141.815 194.165 141.45 194.317 141.186 194.414L140.787 194.572C141.297 194.325 141.826 194.122 142.366 193.964C143.023 193.76 143.694 193.61 144.372 193.514C145.305 193.395 146.244 193.346 147.182 193.368C148.373 193.371 149.561 193.501 150.728 193.758C151.4 193.909 152.057 194.129 152.69 194.414C152.853 194.487 153.021 194.566 153.179 194.657C153.348 194.743 153.511 194.84 153.668 194.949C153.832 195.049 153.985 195.169 154.123 195.308L154.561 195.709C155.168 196.232 155.73 196.846 156.337 197.454C156.944 198.062 157.557 198.701 158.181 199.376C159.439 200.709 160.764 202.128 162.154 203.632C173.287 215.792 188.849 233.32 207.266 254.284L207.344 254.369L207.271 254.466L193.401 272.931L193.317 273.041L193.21 272.956C186.91 267.982 180.436 262.723 173.894 257.148C170.629 254.351 167.347 251.475 164.16 248.386C160.974 245.298 158.169 241.698 155.466 238.008C152.19 233.496 149.132 228.888 146.373 224.48H146.598C143.8 227.633 140.825 230.598 137.69 233.357C136.145 234.7 134.554 235.965 132.919 237.132C131.302 238.314 129.6 239.351 127.827 240.233C126.059 241.04 124.241 241.713 122.387 242.246C120.549 242.787 118.711 243.249 116.874 243.614C113.259 244.362 109.598 244.813 105.92 244.963C105.015 245.012 104.116 245 103.223 245.012C102.329 245.024 101.435 245.012 100.553 244.915C98.7914 244.845 97.044 244.545 95.349 244.021C93.7037 243.445 92.1397 242.627 90.7013 241.589C87.9292 239.539 85.7615 236.668 84.4574 233.32C84.1568 232.51 83.9053 231.679 83.7044 230.833C83.6144 230.414 83.4908 230 83.429 229.569L83.2604 228.298C83.2046 227.875 83.1764 227.448 83.1761 227.021C83.1565 226.598 83.1565 226.174 83.1761 225.751C83.2379 224.905 83.2435 224.066 83.3784 223.246C83.6257 221.604 83.9797 220.017 84.3563 218.461V218.4H84.4125L125.517 201.048L136.819 196.293L139.775 195.077L140.798 194.633Z" fill="#6C8997"/>
<path d="M191.316 178.606C187.916 180.023 183.74 181.433 180.34 182.576C179.882 182.682 179.457 182.917 179.109 183.257C178.941 183.433 178.839 183.671 178.825 183.925C178.81 184.178 178.884 184.428 179.031 184.625C179.183 184.741 179.356 184.822 179.539 184.863C179.722 184.904 179.91 184.904 180.093 184.862L182.594 184.674C180.685 185.274 178.879 186.209 177.249 187.44C176.817 187.769 176.356 188.206 176.367 188.784C176.393 189.052 176.5 189.303 176.672 189.497C176.844 189.692 177.071 189.82 177.317 189.86C177.807 189.944 178.308 189.909 178.783 189.757C181.874 189.015 184.951 188.188 188.012 187.276C188.372 187.192 188.717 187.047 189.034 186.844C189.447 186.506 189.786 186.074 190.029 185.58C190.501 184.769 190.977 183.948 191.457 183.117C191.799 182.615 192.03 182.035 192.131 181.421C192.195 180.916 192.155 180.402 192.014 179.915C191.873 179.429 191.635 178.982 191.316 178.606Z" fill="#FFBE9D"/>
<path d="M127.743 113.817L131.446 71.7435C138.421 68.661 143.332 76.2002 144.271 78.9848C145.21 81.7694 145.153 84.8216 145.097 87.7886C145.041 90.7557 145.002 93.8018 145.968 96.5742C146.873 99.1765 148.587 101.329 149.902 103.718C151.217 106.108 152.15 109.038 151.229 111.622C150.588 113.477 149.048 115.27 149.61 117.143C149.895 117.815 150.229 118.462 150.61 119.076C150.899 119.764 151.038 120.514 151.015 121.269C150.993 122.024 150.81 122.763 150.481 123.43C149.816 124.758 148.836 125.872 147.643 126.658C145.622 128.094 143.269 128.885 140.852 128.941C138.435 128.997 136.052 128.316 133.976 126.976C131.901 125.635 130.216 123.689 129.114 121.361C128.013 119.033 127.539 116.417 127.748 113.811L127.743 113.817Z" fill="black"/>
<path d="M93.41 106.235C93.691 104.63 94.742 103.323 95.8772 102.253C97.0125 101.183 98.2713 100.247 99.2155 98.982C100.677 97.0242 101.233 94.4646 101.559 91.9718C101.885 89.479 103.121 86.6639 103.948 84.311C104.774 81.958 106.819 79.6233 108.146 78.0425L109.27 127.23C107.187 127.283 105.118 126.864 103.194 125.999C101.271 125.134 99.5363 123.842 98.1027 122.208C96.7285 120.613 95.7545 118.665 95.2734 116.548C94.7924 114.431 94.8203 112.216 95.3545 110.114C93.899 109.731 93.1347 107.834 93.41 106.235Z" fill="black"/>
<path d="M112.653 80.0669L131.609 74.8381C137.679 74.1328 141.725 82.2071 142.13 88.8221C142.574 96.1181 142.844 105.104 142.051 110.57C140.461 121.569 132.677 122.986 132.677 122.986C132.677 122.986 132.722 126.445 132.733 131.358C132.735 134.351 131.663 137.229 129.742 139.384C127.821 141.538 125.203 142.803 122.437 142.91C119.631 143.009 116.902 141.908 114.84 139.846C112.779 137.784 111.551 134.927 111.422 131.893L109.466 84.0189C109.443 83.0479 109.757 82.1027 110.347 81.3707C110.937 80.6386 111.76 80.1733 112.653 80.0669Z" fill="#FFBE9D"/>
<path d="M139.511 98.6538C139.516 99.0221 139.386 99.3777 139.151 99.6438C138.915 99.91 138.592 100.065 138.252 100.076C138.086 100.092 137.92 100.072 137.762 100.016C137.603 99.9606 137.457 99.8711 137.332 99.753C137.207 99.635 137.105 99.4908 137.032 99.3291C136.959 99.1674 136.917 98.9914 136.909 98.8118C136.906 98.4453 137.034 98.0917 137.266 97.8253C137.499 97.5588 137.818 97.4003 138.157 97.383C138.323 97.3681 138.491 97.3894 138.649 97.4455C138.808 97.5017 138.955 97.5916 139.081 97.7099C139.207 97.8283 139.31 97.9728 139.384 98.1349C139.458 98.297 139.501 98.4734 139.511 98.6538Z" fill="#263238"/>
<path d="M139.758 93.0239C139.601 93.2063 138.634 92.4159 137.207 92.4159C135.779 92.4159 134.779 93.188 134.627 93.0239C134.554 92.9448 134.717 92.6104 135.189 92.2578C135.794 91.8025 136.515 91.5605 137.252 91.5647C137.981 91.5563 138.693 91.8038 139.281 92.2699C139.691 92.6165 139.837 92.9509 139.758 93.0239Z" fill="#263238"/>
<path d="M125.433 98.654C125.438 99.0174 125.312 99.3686 125.083 99.6339C124.853 99.8992 124.537 100.058 124.202 100.077C124.036 100.093 123.87 100.072 123.712 100.016C123.553 99.9609 123.407 99.8714 123.282 99.7533C123.157 99.6353 123.054 99.4911 122.982 99.3293C122.909 99.1676 122.867 98.9917 122.859 98.8121C122.856 98.4456 122.984 98.092 123.216 97.8256C123.449 97.5591 123.768 97.4006 124.106 97.3833C124.438 97.3617 124.764 97.4834 125.013 97.7217C125.261 97.96 125.413 98.2953 125.433 98.654Z" fill="#263238"/>
<path d="M125.719 93.3828C125.557 93.5652 124.595 92.7747 123.168 92.7747C121.741 92.7747 120.74 93.5469 120.588 93.3828C120.515 93.3037 120.673 92.9693 121.15 92.6167C121.758 92.1613 122.48 91.9193 123.219 91.9235C123.948 91.9152 124.659 92.1627 125.247 92.6288C125.652 92.9632 125.798 93.2976 125.719 93.3828Z" fill="#263238"/>
<path d="M131.092 105.019C131.092 104.934 131.958 104.77 133.368 104.569C133.722 104.527 134.065 104.454 134.121 104.186C134.151 103.786 134.066 103.385 133.88 103.037L132.818 100.095C131.339 95.8993 130.266 92.4459 130.423 92.3851C130.581 92.3243 131.907 95.6744 133.385 99.8696C133.739 100.903 134.082 101.888 134.402 102.831C134.631 103.297 134.698 103.835 134.593 104.351C134.544 104.484 134.469 104.604 134.371 104.702C134.274 104.8 134.158 104.873 134.031 104.916C133.832 104.977 133.626 105.01 133.419 105.013C131.98 105.098 131.098 105.104 131.092 105.019Z" fill="#263238"/>
<path d="M132.677 122.968C127.706 123.087 122.798 121.74 118.481 119.071C118.481 119.071 122.51 126.792 132.677 125.759V122.968Z" fill="#EB996E"/>
<path d="M130.508 108.68C130.243 108.319 129.897 108.037 129.504 107.861C129.111 107.684 128.683 107.619 128.26 107.67C127.951 107.7 127.65 107.798 127.377 107.957C127.104 108.115 126.863 108.332 126.669 108.595C126.481 108.85 126.369 109.162 126.35 109.488C126.331 109.815 126.405 110.139 126.562 110.419C126.787 110.691 127.083 110.885 127.41 110.974C127.738 111.062 128.083 111.043 128.4 110.917C129.062 110.659 129.671 110.265 130.193 109.756C130.349 109.632 130.484 109.48 130.592 109.306C130.644 109.222 130.672 109.124 130.672 109.023C130.672 108.922 130.644 108.824 130.592 108.741" fill="#EB996E"/>
<path d="M126.697 90.2147C126.563 90.6221 125.163 90.4336 123.516 90.6525C121.87 90.8714 120.543 91.3578 120.324 90.9869C120.229 90.8106 120.459 90.4215 120.993 90.0202C121.705 89.5225 122.516 89.2142 123.359 89.1203C124.2 89.0076 125.054 89.1139 125.849 89.4304C126.45 89.6919 126.759 90.0141 126.697 90.2147Z" fill="#4C0AE1"/>
<path d="M139.696 87.2843C139.393 87.6309 138.196 87.2843 136.751 87.2843C135.307 87.2843 134.093 87.5215 133.812 87.1627C133.689 86.9864 133.88 86.6459 134.414 86.3176C135.15 85.9061 135.974 85.7091 136.802 85.7461C137.627 85.7482 138.437 85.9852 139.151 86.4331C139.663 86.7615 139.831 87.1141 139.696 87.2843Z" fill="#4C0AE1"/>
<path d="M101.042 109.324C100.986 102.928 102.559 96.5562 103.357 90.2452C103.678 87.6916 104.015 85.0954 105.01 82.7486C106.415 79.4289 109.034 76.8874 111.81 74.8081C114.997 72.4186 118.554 70.473 122.392 69.8407C126.231 69.2084 130.362 69.9866 133.419 72.5646C133.933 72.9166 134.304 73.4663 134.459 74.1028C134.841 75.6714 134.127 76.322 133.306 77.6778C132.422 78.9888 131.372 80.1593 130.187 81.1556L124.742 86.202C123.47 87.4264 122.129 88.5655 120.729 89.6129C119.459 90.4866 118.146 91.2843 116.795 92.0023L112.597 94.3249C112.229 94.4836 111.908 94.7486 111.669 95.091C111.531 95.39 111.452 95.7174 111.439 96.0516C110.989 100.308 111.023 105.032 110.776 109.324C110.495 114.219 114.148 127.807 114.148 127.807L107.404 127.084C104.42 126.348 101.48 122.354 101.059 119.07C100.649 116 101.065 111.811 101.042 109.324Z" fill="black"/>
<path d="M111.889 99.0491C111.782 96.7144 109.427 95.1518 107.556 96.3253C106.527 96.9333 105.74 98.2587 105.836 100.739C106.089 107.36 112.181 105.725 112.181 105.53C112.181 105.336 112.018 101.785 111.889 99.0491Z" fill="#FFBE9D"/>
<path d="M110.22 103.104C110.191 103.104 110.113 103.195 109.939 103.293C109.688 103.418 109.403 103.435 109.14 103.341C108.483 103.116 107.898 102.028 107.82 100.836C107.785 100.269 107.866 99.7004 108.056 99.1705C108.107 98.9618 108.203 98.7694 108.337 98.6096C108.471 98.4498 108.639 98.3273 108.826 98.2524C108.947 98.2157 109.076 98.2239 109.192 98.2757C109.308 98.3275 109.405 98.4199 109.466 98.5381C109.556 98.7205 109.523 98.8543 109.556 98.8665C109.59 98.8786 109.68 98.7509 109.624 98.4773C109.583 98.3154 109.492 98.1736 109.365 98.0761C109.28 98.01 109.183 97.9631 109.081 97.938C108.979 97.9129 108.873 97.9103 108.77 97.9301C108.52 97.9949 108.291 98.1279 108.103 98.3164C107.915 98.5048 107.775 98.7424 107.696 99.0063C107.456 99.5903 107.354 100.23 107.398 100.867C107.488 102.198 108.163 103.42 109.084 103.657C109.25 103.703 109.423 103.707 109.591 103.669C109.759 103.631 109.916 103.552 110.051 103.439C110.214 103.268 110.236 103.116 110.22 103.104Z" fill="#EB996E"/>
<path d="M108.146 105.974C108.145 106.232 108.214 106.484 108.346 106.699C108.477 106.914 108.665 107.081 108.884 107.181C109.104 107.28 109.346 107.307 109.579 107.257C109.813 107.208 110.028 107.084 110.197 106.903C110.366 106.721 110.481 106.489 110.527 106.236C110.574 105.984 110.551 105.722 110.46 105.484C110.369 105.246 110.215 105.042 110.017 104.899C109.819 104.756 109.586 104.679 109.348 104.679C109.03 104.679 108.725 104.815 108.5 105.058C108.275 105.301 108.147 105.63 108.146 105.974Z" fill="#263238"/>
<path d="M139.236 102.266C140.41 102.126 141.866 101.864 142.298 101.42C142.945 100.758 143.614 98.3075 144.187 95.9971C144.26 95.6992 144.305 95.4986 144.327 95.4438L143.878 95.2554C143.814 95.455 143.76 95.6579 143.715 95.8634C143.411 97.0794 142.591 100.399 141.961 101.05C141.208 101.816 134.936 102.211 134.352 101.773C133.992 101.457 133.143 98.5082 132.666 96.5139L132.626 96.3315L130.126 96.2586L130.064 96.4288C129.575 97.7786 128.057 101.427 126.961 102.101C125.585 102.947 120.217 102.539 119.83 101.962C119.442 101.384 118.554 98.0218 118.009 95.833L117.964 95.6445L110.349 95.9728V96.4714L117.57 96.1552C117.846 97.2435 118.947 101.572 119.419 102.235C120.066 103.165 125.804 103.366 127.192 102.509C128.58 101.652 130.103 97.6448 130.44 96.7511L132.227 96.8058C132.503 97.9306 133.458 101.639 134.037 102.138C134.616 102.636 137.718 102.369 138.078 102.339C138.438 102.308 138.814 102.32 139.236 102.266Z" fill="#6C8997"/>
<path d="M129.968 97.1461L130.457 96.2828C127.164 94.325 121.296 93.5164 117.57 95.614L118.026 96.4895C121.353 94.6169 126.883 95.3161 129.968 97.1461Z" fill="#6C8997"/>
<path d="M144.024 95.9607L144.389 95.0305C140.393 93.3889 135.24 93.9239 132.137 96.3073L132.699 97.1038C135.515 94.9514 140.376 94.4589 144.024 95.9607Z" fill="#6C8997"/>
<path d="M131.559 109.835C131.273 110.032 130.942 110.139 130.603 110.145C129.782 110.24 128.954 110.046 128.243 109.592C127.532 109.136 126.978 108.443 126.664 107.616C126.509 107.289 126.437 106.924 126.456 106.558C126.506 106.558 126.579 106.953 126.849 107.525C127.191 108.275 127.725 108.904 128.387 109.335C129.05 109.766 129.813 109.982 130.586 109.957C131.182 109.908 131.547 109.787 131.559 109.835Z" fill="#263238"/>
<path d="M101.576 113.793C100.964 113.404 100.407 112.921 99.9237 112.358C98.5699 110.826 97.6815 108.883 97.3778 106.789C97.1806 105.341 97.2745 103.865 97.6532 102.46C98.0833 100.843 98.868 99.3619 99.9405 98.1431C101.165 96.8495 102.615 95.8326 104.206 95.1518C105.83 94.3979 107.578 93.8385 109.32 93.1332C112.598 91.8066 115.709 90.0419 118.582 87.8801C119.833 86.9351 121.037 85.9204 122.19 84.8401C123.258 83.8126 124.236 82.8276 125.068 81.867C126.398 80.3644 127.636 78.7679 128.771 77.0881C129.181 76.4801 129.462 76.0119 129.676 75.7019L129.918 75.3431C129.974 75.2641 130.002 75.2215 130.008 75.2276C129.992 75.276 129.969 75.3212 129.94 75.3614C129.884 75.4587 129.816 75.5863 129.727 75.7383C129.53 76.0606 129.266 76.5591 128.861 77.1611C127.76 78.8778 126.543 80.5036 125.219 82.0251C124.388 82.9979 123.421 84.0011 122.347 85.0651C121.193 86.1467 119.987 87.1614 118.734 88.1051C115.86 90.2973 112.738 92.0812 109.444 93.4129C107.696 94.1303 105.948 94.6836 104.341 95.4254C102.782 96.0862 101.361 97.0762 100.16 98.3377C99.1789 99.4416 98.4399 100.77 97.9973 102.224C97.5547 103.679 97.4198 105.222 97.6026 106.74C97.8862 108.801 98.7315 110.723 100.03 112.261C100.379 112.675 100.755 113.061 101.154 113.416L101.475 113.684C101.542 113.757 101.582 113.787 101.576 113.793Z" fill="#263238"/>
<path d="M78.9382 119.254L73.8409 109.526C76.9864 103.997 78.1064 97.3938 76.9806 91.016C75.8549 84.6381 72.5649 78.9464 67.7572 75.0595C62.9495 71.1726 56.9718 69.3716 50.9991 70.0106C45.0264 70.6495 39.4906 73.6822 35.4796 78.5125C31.4687 83.3427 29.2728 89.6213 29.3235 96.1142C29.3742 102.607 31.6678 108.845 35.7535 113.601C39.8393 118.357 45.4217 121.288 51.4035 121.818C57.3853 122.348 63.334 120.438 68.0804 116.464L78.9382 119.254Z" fill="#FAFAFA"/>
<path d="M78.9385 119.253L68.0863 116.426L68.12 116.523C68.1259 116.518 68.1306 116.512 68.1338 116.504C68.1371 116.497 68.1388 116.489 68.1388 116.481C68.1388 116.473 68.1371 116.465 68.1338 116.457C68.1306 116.45 68.1259 116.443 68.12 116.438C68.1107 116.429 68.0987 116.424 68.0863 116.424C68.0738 116.424 68.0618 116.429 68.0525 116.438C66.5308 117.699 64.8786 118.764 63.1294 119.612C61.0434 120.608 58.8369 121.277 56.5765 121.6C55.3254 121.785 54.0616 121.851 52.7999 121.795C52.1536 121.752 51.4904 121.734 50.8272 121.673L48.8153 121.339C42.8295 120.058 37.5176 116.363 33.956 111.003C31.9839 108.034 30.618 104.645 29.9489 101.062C29.2671 97.2733 29.365 93.3686 30.2356 89.6255C30.3536 89.1452 30.4547 88.6649 30.584 88.1906C30.7133 87.7164 30.8987 87.2604 31.0617 86.7983C31.3806 85.8607 31.7561 84.9467 32.1857 84.0623C32.3895 83.6088 32.6204 83.1701 32.877 82.749C33.1186 82.3173 33.3547 81.8796 33.6076 81.454L34.4506 80.238L34.8721 79.63C35.0126 79.4293 35.1868 79.253 35.3385 79.0584L36.3108 77.9033C36.6255 77.5141 37.0077 77.1919 37.3561 76.8392L37.8844 76.3164C38.0611 76.1366 38.2489 75.9701 38.4464 75.8178L39.5704 74.8997C39.7505 74.7395 39.9381 74.5893 40.1324 74.4498L40.7337 74.0546L41.942 73.2581L43.2009 72.5954C43.614 72.3642 44.0401 72.1612 44.4766 71.9874C47.8675 70.5351 51.5172 69.9283 55.1546 70.212C58.5878 70.46 61.9284 71.5229 64.9391 73.325C70.3485 76.5805 74.3991 81.9549 76.2578 88.3426C76.9951 91.0457 77.3494 93.8542 77.3087 96.6722C77.2557 99.1356 76.8772 101.578 76.1847 103.926C75.596 105.875 74.8001 107.744 73.813 109.495C73.8075 109.504 73.8045 109.515 73.8045 109.525C73.8045 109.536 73.8075 109.547 73.813 109.556L78.9554 119.241L73.8974 109.513V109.574C74.8981 107.819 75.7054 105.944 76.3027 103.986C77.0149 101.628 77.4086 99.1706 77.4717 96.6905C77.5276 93.8344 77.1769 90.986 76.432 88.2453C74.5734 81.797 70.4949 76.3681 65.0402 73.0818C61.9992 71.2566 58.6243 70.1772 55.1546 69.9202C51.488 69.6465 47.8114 70.27 44.398 71.7442C43.9574 71.9168 43.5275 72.1199 43.111 72.3522C42.6895 72.5772 42.2567 72.796 41.8352 73.0271L40.6213 73.8236L40.0087 74.2248C39.8008 74.3525 39.621 74.5288 39.4467 74.6748L38.3227 75.6111C38.1241 75.7618 37.9363 75.9285 37.7607 76.1096L37.2268 76.6325C36.8784 76.9973 36.4962 77.3196 36.1703 77.7087L35.1924 78.876C35.035 79.0706 34.8608 79.2469 34.7203 79.484L34.2932 80.092C34.0122 80.5055 33.7312 80.9128 33.4446 81.308C33.158 81.7032 32.95 82.1836 32.7027 82.6153C32.437 83.0285 32.1949 83.459 31.9778 83.9042C31.5493 84.7976 31.1739 85.7195 30.8538 86.6645L30.348 88.0873C30.2131 88.5676 30.1119 89.054 29.9939 89.5343C29.1141 93.3153 29.0162 97.2597 29.7073 101.086C30.3851 104.703 31.7684 108.121 33.7649 111.112C37.3553 116.519 42.7149 120.244 48.7535 121.527L50.7823 121.862C51.4567 121.922 52.1198 121.941 52.7718 121.983C54.0431 122.032 55.3161 121.963 56.5765 121.777C58.8479 121.44 61.0637 120.756 63.1575 119.746C64.9128 118.886 66.5689 117.806 68.0919 116.529L68.0132 116.438C68.0025 116.451 67.9966 116.467 67.9966 116.484C67.9966 116.501 68.0025 116.517 68.0132 116.529L78.9385 119.253Z" fill="#4C0AE1"/>
<path d="M44.1226 98.0585L46.6853 95.0367L52.0468 99.773L61.775 88.75L64.377 91.5346L51.8838 105.379L44.1226 98.0585Z" fill="#4C0AE1"/>
<path d="M168.892 174.636C168.971 174.636 169.033 174.983 169.022 175.402C169.01 175.822 168.943 176.156 168.859 176.156C168.774 176.156 168.724 175.816 168.729 175.396C168.735 174.977 168.808 174.63 168.892 174.636Z" fill="#4C0AE1"/>
<path d="M169.673 168.678C169.731 169.184 169.69 169.697 169.555 170.186C169.514 170.695 169.376 171.189 169.151 171.639C169.094 171.133 169.134 170.619 169.269 170.131C169.311 169.622 169.449 169.127 169.673 168.678Z" fill="#4C0AE1"/>
<path d="M171.466 162.981C171.437 163.49 171.311 163.987 171.095 164.44C170.966 164.931 170.746 165.388 170.449 165.784C170.477 165.275 170.603 164.778 170.82 164.325C170.949 163.834 171.169 163.377 171.466 162.981Z" fill="#4C0AE1"/>
<path d="M174.22 157.752C174.096 158.244 173.884 158.705 173.596 159.108C173.192 159.807 172.798 160.324 172.731 160.293C172.847 159.8 173.058 159.338 173.349 158.938C173.759 158.232 174.147 157.697 174.22 157.752Z" fill="#4C0AE1"/>
<path d="M177.845 153.216C177.901 153.283 177.519 153.824 176.991 154.432C176.462 155.04 175.985 155.472 175.923 155.417C175.861 155.362 176.243 154.809 176.777 154.201C177.311 153.593 177.789 153.131 177.845 153.216Z" fill="#4C0AE1"/>
<path d="M182.285 149.568C182.33 149.647 181.824 150.043 181.161 150.499C180.798 150.823 180.385 151.076 179.941 151.246C179.896 151.173 180.351 150.705 180.998 150.237C181.371 149.906 181.813 149.677 182.285 149.568Z" fill="#4C0AE1"/>
<path d="M187.427 147.343C187.015 147.578 186.574 147.748 186.118 147.848C185.689 148.048 185.234 148.171 184.769 148.212C185.132 147.878 185.567 147.648 186.033 147.544C186.473 147.343 186.954 147.274 187.427 147.343Z" fill="#4C0AE1"/>
<path d="M192.766 148.492C192.324 148.337 191.899 148.134 191.496 147.884C191.055 147.735 190.628 147.541 190.22 147.307C190.701 147.242 191.188 147.342 191.614 147.592C192.074 147.758 192.476 148.072 192.766 148.492Z" fill="#4C0AE1"/>
<path d="M195.183 153.624C195.07 153.142 194.988 152.652 194.935 152.158C194.784 151.689 194.668 151.207 194.587 150.717C194.933 151.087 195.157 151.57 195.222 152.091C195.371 152.592 195.357 153.133 195.183 153.624Z" fill="#4C0AE1"/>
<path d="M191.704 157.867C191.704 157.776 192.266 157.551 192.901 157.132C193.536 156.712 193.991 156.256 194.053 156.317C194.115 156.378 193.738 156.925 193.053 157.399C192.664 157.713 192.189 157.878 191.704 157.867Z" fill="#4C0AE1"/>
<path d="M186.674 156.201C186.741 156.14 187.18 156.609 187.798 157.071C188.416 157.533 188.978 157.776 188.956 157.867C188.468 157.866 187.996 157.674 187.629 157.326C186.977 156.864 186.618 156.256 186.674 156.201Z" fill="#4C0AE1"/>
<path d="M184.786 150.663C184.935 151.137 185.031 151.629 185.072 152.128C185.202 152.61 185.274 153.109 185.286 153.611C184.791 152.728 184.613 151.679 184.786 150.663Z" fill="#4C0AE1"/>
<path d="M186.421 145.014C186.278 145.493 186.078 145.949 185.825 146.37C185.658 146.839 185.435 147.283 185.162 147.689C185.168 147.172 185.308 146.666 185.567 146.23C185.921 145.47 186.359 144.96 186.421 145.014Z" fill="#4C0AE1"/>
<path d="M190.675 141.221C190.715 141.3 190.181 141.652 189.551 142.09C188.922 142.528 188.399 142.905 188.343 142.832C188.287 142.759 188.737 142.273 189.394 141.823C189.767 141.507 190.208 141.3 190.675 141.221Z" fill="#4C0AE1"/>
<path d="M196.014 139.597C195.59 139.815 195.133 139.949 194.666 139.992C194.217 140.136 193.75 140.198 193.283 140.175C193.684 139.896 194.141 139.727 194.615 139.682C195.069 139.537 195.548 139.508 196.014 139.597Z" fill="#4C0AE1"/>
<path d="M201.573 139.232C201.127 139.4 200.655 139.468 200.185 139.433C199.718 139.501 199.243 139.464 198.791 139.324C199.234 139.155 199.704 139.085 200.173 139.117C200.642 139.049 201.119 139.088 201.573 139.232Z" fill="#4C0AE1"/>
<path d="M207.131 138.928C206.231 139.215 205.285 139.294 204.354 139.159C205.255 138.872 206.201 138.794 207.131 138.928Z" fill="#4C0AE1"/>
<path d="M212.503 137.408C212.503 137.445 212.391 137.548 212.166 137.682L211.767 137.901L211.25 138.089C210.815 138.29 210.346 138.391 209.873 138.387C210.257 138.091 210.693 137.884 211.155 137.779L211.666 137.621C211.823 137.56 211.964 137.505 212.088 137.469C212.324 137.408 212.487 137.408 212.503 137.408Z" fill="#4C0AE1"/>
<path d="M217.016 133.955C217.073 134.016 216.69 134.563 216.1 135.104C215.51 135.645 214.976 135.986 214.909 135.913C214.841 135.84 215.33 135.402 215.909 134.867C216.488 134.332 216.96 133.894 217.016 133.955Z" fill="#4C0AE1"/>
<path d="M220.169 129.024C220.106 129.533 219.928 130.017 219.652 130.434C219.264 131.164 218.848 131.681 218.781 131.65C218.92 131.166 219.129 130.709 219.399 130.295C219.59 129.829 219.85 129.399 220.169 129.024Z" fill="#4C0AE1"/>
<path d="M221.462 124.725C221.54 124.725 221.535 125.09 221.462 125.504C221.389 125.917 221.237 126.227 221.158 126.203C221.08 126.178 221.085 125.832 221.158 125.431C221.231 125.029 221.383 124.707 221.462 124.725Z" fill="#4C0AE1"/>
<path d="M211.638 101.688C211.565 101.688 209.272 94.3189 206.518 85.1685C203.764 76.0181 201.601 68.5823 201.674 68.5519C201.747 68.5215 204.045 75.9208 206.799 85.0712C209.553 94.2216 211.717 101.657 211.638 101.688Z" fill="#6C8997"/>
<path d="M244.504 61.0249C244.582 61.0249 242.7 70.1449 240.3 81.3929C237.9 92.6409 235.883 101.706 235.804 101.688C235.725 101.67 237.614 92.568 240.013 81.32C242.413 70.072 244.425 61.0067 244.504 61.0249Z" fill="#6C8997"/>
<path d="M218.337 20.5384C218.337 20.5384 198.442 24.685 195.857 45.0043C195.088 51.621 196.268 58.3316 199.229 64.1806C202.904 71.6469 210.278 81.9829 223.575 84.4574C223.575 84.4574 239.047 81.1195 245.734 56.3861C252.422 31.6526 230.617 19.1035 218.337 20.5384Z" fill="#4C0AE1"/>
<g opacity="0.6">
<path opacity="0.6" d="M218.337 20.5386C218.337 20.5386 196.065 30.9536 203.079 56.9395C210.092 82.9254 223.547 84.4576 223.547 84.4576C223.547 84.4576 216.179 75.6173 213.02 60.7456C209.935 46.2083 211.509 30.5402 218.337 20.5386Z" fill="#6C8997"/>
</g>
<g opacity="0.6">
<path opacity="0.6" d="M220.355 20.3257C220.355 20.3257 231.904 29.014 230.42 53.9177C228.936 78.8214 223.53 84.4575 223.53 84.4575C223.53 84.4575 231.876 82.0255 236.388 67.8166C240.901 53.6076 241.177 44.4511 237.911 36.8086C234.646 29.166 226.745 21.0431 220.355 20.3257Z" fill="#6C8997"/>
</g>
<path d="M197.296 48.7193C197.225 48.5399 197.183 48.3486 197.172 48.1539C197.087 47.6314 197.037 47.1032 197.02 46.5731C196.869 43.0517 197.739 39.5672 199.51 36.6079C199.774 36.1621 200.065 35.7356 200.381 35.3311C200.606 35.0454 200.735 34.8934 200.752 34.9116C200.769 34.9299 200.314 35.5865 199.684 36.7356C198.874 38.2145 198.248 39.8031 197.824 41.4598C197.407 43.1244 197.201 44.8424 197.211 46.567C197.262 47.8924 197.346 48.7132 197.296 48.7193Z" fill="white"/>
<path d="M197.481 51.8626C197.397 51.8626 197.335 51.6133 197.245 51.3215C197.155 51.0297 197.071 50.7865 197.138 50.7135C197.206 50.6405 197.419 50.8533 197.521 51.206C197.622 51.5586 197.56 51.8687 197.481 51.8626Z" fill="white"/>
<path d="M203.483 47.4669C203.331 47.0405 203.238 46.5916 203.208 46.1354C203.072 45.0449 203.055 43.9409 203.157 42.8461C203.256 41.7489 203.471 40.6676 203.798 39.6237C203.908 39.1915 204.08 38.781 204.31 38.4077C203.925 39.8736 203.636 41.3669 203.444 42.8765C203.358 44.4058 203.371 45.9396 203.483 47.4669Z" fill="white"/>
<path d="M214.319 49.9897C214.147 49.6251 214.031 49.233 213.976 48.8284C213.779 47.8681 213.681 46.8874 213.684 45.9039C213.683 44.9228 213.779 43.9444 213.97 42.9855C214.025 42.5806 214.14 42.1882 214.313 41.8242C214.137 43.1771 214.025 44.5387 213.976 45.9039C213.97 48.1717 214.409 49.9653 214.319 49.9897Z" fill="white"/>
<path d="M231.937 48.409C231.888 47.89 231.875 47.3676 231.898 46.8464C231.883 45.5952 231.795 44.3463 231.634 43.1072C231.472 41.8763 231.237 40.6578 230.931 39.4592C230.78 38.964 230.66 38.4582 230.572 37.9453C230.817 38.3991 231.006 38.8855 231.134 39.3924C231.86 41.7959 232.19 44.3192 232.106 46.8464C232.112 47.373 232.056 47.8982 231.937 48.409Z" fill="white"/>
<path d="M241.334 41.8186C241.119 40.4897 240.803 39.1821 240.39 37.9092C239.881 36.6758 239.276 35.4919 238.58 34.3706C238.882 34.6158 239.139 34.9187 239.339 35.2644C240.426 36.8312 241.11 38.6813 241.323 40.6269C241.389 41.0206 241.393 41.4235 241.334 41.8186Z" fill="white"/>
<path d="M221.344 83.904C220.442 83.5916 219.57 83.1843 218.742 82.688C216.476 81.3206 214.425 79.572 212.666 77.5078C210.082 74.4331 207.95 70.9471 206.344 67.1718C205.872 66.1139 205.473 64.9891 205.018 63.8704C204.562 62.7517 204.225 61.5417 203.849 60.3318C203.472 59.1219 203.135 57.8998 202.831 56.6048C202.691 55.9968 202.517 55.3219 202.399 54.6653C202.281 54.0086 202.157 53.352 202.062 52.6832C201.675 50.07 201.592 47.4147 201.814 44.7792C202.028 42.327 202.542 39.9163 203.343 37.6109C204.742 33.7243 206.885 30.2019 209.632 27.2749C211.465 25.295 213.501 23.5488 215.701 22.0704C216.482 21.5475 217.101 21.1705 217.528 20.9273L218.017 20.6598C218.07 20.6245 218.126 20.5959 218.185 20.5747C218.137 20.6173 218.084 20.654 218.028 20.6841L217.556 20.9821C217.14 21.2435 216.533 21.6387 215.763 22.1981C213.603 23.6825 211.597 25.413 209.778 27.36C207.076 30.2845 204.97 33.7889 203.596 37.6473C202.809 39.9303 202.306 42.3164 202.101 44.7427C201.881 47.3481 201.966 49.9731 202.354 52.5555C202.444 53.2182 202.579 53.8688 202.685 54.5254C202.792 55.1821 202.972 55.8083 203.112 56.4467C203.416 57.7113 203.793 58.9395 204.124 60.1555C204.456 61.3715 204.9 62.5267 205.276 63.6758C205.653 64.825 206.125 65.9133 206.591 66.9651C208.17 70.7325 210.27 74.2178 212.818 77.3011C214.55 79.3664 216.567 81.1282 218.798 82.5238C219.59 83.0102 220.237 83.3325 220.675 83.5453L221.175 83.7763L221.344 83.904Z" fill="#4C0AE1"/>
<path d="M218.343 20.6055C218.322 20.6595 218.296 20.7105 218.264 20.7575L218.011 21.1952C217.792 21.5843 217.421 22.1255 217.022 22.8733C215.883 24.9742 214.931 27.187 214.178 29.4823C212.239 35.2765 211.048 43.8979 212.015 53.2672C212.451 57.6675 213.306 62.0074 214.566 66.2176C215.614 69.6481 216.93 72.9757 218.5 76.1645C219.56 78.3157 220.746 80.3912 222.052 82.3783C222.513 83.0835 222.895 83.5943 223.176 83.9712L223.474 84.3786L223.569 84.5184C223.569 84.5184 223.524 84.4819 223.446 84.3968C223.367 84.3117 223.266 84.184 223.131 84.0077C222.856 83.6611 222.462 83.1443 222.007 82.4512C220.659 80.4874 219.44 78.4232 218.36 76.2739C216.755 73.0857 215.412 69.7512 214.347 66.3088C213.063 62.0822 212.195 57.7211 211.756 53.2976C210.784 43.8858 212.02 35.2096 214.004 29.4093C214.773 27.1077 215.754 24.8956 216.932 22.8064C217.348 22.0707 217.736 21.5357 217.972 21.1587L218.253 20.7392L218.343 20.6055Z" fill="#4C0AE1"/>
<path d="M220.355 20.3257C221.022 20.815 221.64 21.3796 222.198 22.0098C224.8 24.9021 226.816 28.35 228.116 32.133C228.685 33.9172 229.125 35.7468 229.431 37.605C230.177 41.8458 230.587 46.1479 230.656 50.4642C230.732 54.7803 230.477 59.0957 229.892 63.366C229.417 66.8606 228.715 70.3146 227.79 73.702C227.694 74.0607 227.599 74.4134 227.509 74.7599C227.419 75.1065 227.301 75.4287 227.205 75.751C227.009 76.359 226.823 76.967 226.643 77.575C226.256 78.6937 225.93 79.6604 225.637 80.4386L224.935 82.2201L224.744 82.6761C224.704 82.7794 224.676 82.8342 224.671 82.8281C224.68 82.771 224.697 82.7158 224.721 82.6639L224.884 82.1958C225.036 81.758 225.255 81.1561 225.536 80.3718C225.817 79.5874 226.098 78.6146 226.492 77.4959C226.66 76.9244 226.84 76.3225 227.026 75.6719L227.318 74.6809C227.408 74.3343 227.498 73.9817 227.593 73.623C228.483 70.2468 229.162 66.81 229.628 63.3356C230.192 59.0735 230.438 54.7691 230.364 50.4642C230.295 46.1654 229.895 41.8804 229.167 37.6537C228.867 35.8114 228.439 33.9963 227.885 32.2242C227.375 30.6896 226.742 29.2064 225.991 27.7919C224.923 25.729 223.623 23.8174 222.119 22.101C221.557 21.493 221.136 21.0614 220.827 20.7695L220.473 20.4473C220.429 20.4116 220.39 20.3708 220.355 20.3257Z" fill="#4C0AE1"/>
<path d="M221.209 20.3442H221.383L221.895 20.4719C222.119 20.5327 222.4 20.5996 222.726 20.703L223.85 21.1468C226.133 22.239 228.232 23.7349 230.06 25.573C231.34 26.8144 232.543 28.1447 233.663 29.5554C234.982 31.151 236.145 32.8912 237.13 34.7478C238.125 36.8508 238.911 39.0621 239.474 41.3446C240.12 43.7868 240.498 46.3031 240.598 48.8412C240.545 51.3807 240.238 53.9064 239.682 56.3743C239.165 58.7638 238.558 61.0438 237.923 63.1839C236.783 66.9797 235.362 70.6701 233.674 74.2191C233.018 75.5823 232.239 76.8715 231.347 78.0678C230.665 78.9594 229.913 79.7854 229.099 80.5362C228.431 81.1442 227.874 81.5942 227.503 81.886L227.071 82.2143C227.021 82.2535 226.968 82.2881 226.913 82.3177C226.956 82.27 227.003 82.2272 227.054 82.19L227.464 81.8374C227.829 81.5273 228.369 81.0774 229.026 80.445C229.823 79.6836 230.56 78.8518 231.229 77.9583C232.099 76.7585 232.861 75.4719 233.505 74.1158C235.159 70.5638 236.555 66.8784 237.681 63.0927C238.327 60.9586 238.901 58.6847 239.412 56.3014C239.962 53.8595 240.266 51.3601 240.317 48.8473C240.215 46.3354 239.837 43.8454 239.193 41.4297C238.638 39.1646 237.858 36.9711 236.866 34.8876C235.897 33.0461 234.754 31.3183 233.455 29.7318C232.352 28.3207 231.163 26.9903 229.897 25.7494C228.098 23.9094 226.032 22.3999 223.783 21.2806L222.704 20.8063L221.883 20.557L221.377 20.3929L221.209 20.3442Z" fill="#4C0AE1"/>
<path d="M202.933 56.4164C202.71 56.7331 202.418 56.9857 202.084 57.1521C201.31 57.605 200.441 57.8353 199.561 57.8209C198.68 57.8109 197.816 57.5599 197.049 57.0913C196.721 56.9194 196.435 56.6651 196.217 56.3495C196.251 56.307 196.565 56.5866 197.144 56.8906C197.9 57.2797 198.724 57.4871 199.561 57.4986C200.399 57.506 201.228 57.3194 201.994 56.9514C202.579 56.6474 202.882 56.3738 202.933 56.4164Z" fill="#4C0AE1"/>
<path d="M211.908 56.9151C211.859 57.0631 211.786 57.2009 211.694 57.3224C211.459 57.664 211.185 57.9724 210.879 58.2405C209.867 59.1627 208.576 59.6479 207.254 59.603C205.931 59.5581 204.67 58.9863 203.714 57.9973C203.427 57.708 203.174 57.3812 202.961 57.0245C202.815 56.7691 202.753 56.6171 202.77 56.605C203.112 57.0296 203.474 57.4355 203.854 57.821C204.809 58.7043 206.01 59.2159 207.266 59.2741C208.521 59.2985 209.749 58.8708 210.756 58.0581C211.526 57.4379 211.874 56.8786 211.908 56.9151Z" fill="#4C0AE1"/>
<path d="M230.336 55.3282C230.172 55.5546 229.983 55.7587 229.774 55.9362C229.248 56.4567 228.684 56.9304 228.088 57.3529C226.12 58.7695 223.859 59.6383 221.506 59.8823C219.153 60.1262 216.781 59.7377 214.6 58.7513C213.943 58.4622 213.309 58.1144 212.706 57.7116C212.479 57.5725 212.266 57.4074 212.071 57.2191C212.105 57.1644 213.015 57.8575 214.673 58.5446C216.842 59.4614 219.18 59.8131 221.497 59.5713C223.815 59.3294 226.048 58.5007 228.015 57.1522C229.521 56.1186 230.296 55.2492 230.336 55.3282Z" fill="#4C0AE1"/>
<path d="M239.485 54.6775C239.485 54.6775 239.423 54.8234 239.255 55.0301C239.011 55.3272 238.74 55.5962 238.445 55.8327C237.462 56.6236 236.281 57.0731 235.056 57.122C233.832 57.1708 232.623 56.8167 231.589 56.1063C231.28 55.8931 230.992 55.6466 230.729 55.3706C230.549 55.176 230.465 55.0483 230.476 55.0362C230.487 55.024 230.915 55.4375 231.696 55.9117C232.723 56.5379 233.889 56.8471 235.068 56.8055C236.238 56.747 237.372 56.3479 238.35 55.6503C239.075 55.1091 239.446 54.6349 239.485 54.6775Z" fill="#4C0AE1"/>
<path d="M245.718 53.0058C245.6 53.3347 245.407 53.6256 245.156 53.8509C244.596 54.4406 243.898 54.8528 243.137 55.0425C242.376 55.2323 241.581 55.1923 240.84 54.927C240.527 54.8373 240.241 54.6637 240.008 54.4224C240.308 54.5021 240.605 54.5995 240.896 54.7142C241.611 54.8967 242.356 54.8967 243.071 54.7142C243.789 54.5394 244.46 54.1878 245.032 53.6867C245.465 53.2915 245.673 52.9693 245.718 53.0058Z" fill="#4C0AE1"/>
<path d="M231.971 82.5664C231.701 82.0435 231.033 82.007 230.476 82.0314L218.298 82.6394L216.932 82.688C216.728 82.6486 216.519 82.66 216.32 82.7213C216.121 82.7826 215.938 82.8921 215.784 83.0416C215.63 83.1911 215.51 83.3766 215.432 83.584C215.354 83.7914 215.322 84.0152 215.336 84.2384C215.385 84.6287 215.534 84.9964 215.766 85.2995C215.999 85.6026 216.305 85.829 216.651 85.953C217.345 86.1865 218.073 86.2753 218.798 86.2144L229.251 86.0442C230.19 86.0442 231.291 85.9165 231.797 85.0592C232.042 84.5291 232.141 83.9341 232.084 83.3446C232.107 83.0791 232.069 82.8114 231.971 82.5664Z" fill="#4C0AE1"/>
<path d="M231.111 82.0804C230.928 82.1333 230.739 82.1598 230.549 82.1594L228.964 82.2567L223.727 82.506L218.5 82.7796L216.91 82.8525C216.723 82.8786 216.534 82.8786 216.348 82.8525C216.529 82.7884 216.718 82.7516 216.91 82.7431C217.28 82.6945 217.82 82.6337 218.489 82.5668C219.826 82.4391 221.675 82.2992 223.721 82.202C225.767 82.1047 227.621 82.056 228.959 82.0439C229.633 82.0439 230.173 82.0439 230.549 82.0439C230.737 82.0287 230.926 82.041 231.111 82.0804Z" fill="#4C0AE1"/>
<path d="M208.502 97.0491L209.772 113.198C209.795 113.475 209.914 113.734 210.106 113.92C210.298 114.106 210.549 114.206 210.806 114.201L237.726 113.52C237.859 113.517 237.989 113.485 238.111 113.427C238.232 113.369 238.342 113.286 238.433 113.182C238.524 113.078 238.596 112.955 238.643 112.821C238.691 112.687 238.713 112.545 238.71 112.401L238.44 99.8094C238.432 99.5186 238.319 99.2428 238.124 99.0422C237.929 98.8417 237.669 98.7328 237.4 98.7393L220.849 99.2744C220.717 99.2783 220.586 99.254 220.462 99.2029C220.339 99.1517 220.226 99.0748 220.13 98.9765L217.185 95.9851C216.992 95.7891 216.736 95.6822 216.471 95.6872L209.491 95.8635C209.353 95.8672 209.217 95.9012 209.092 95.9636C208.966 96.026 208.854 96.1154 208.761 96.2263C208.669 96.3372 208.598 96.4674 208.553 96.6089C208.509 96.7503 208.491 96.9001 208.502 97.0491Z" fill="#4C0AE1"/>
<g opacity="0.3">
<path opacity="0.3" d="M208.502 97.0491L209.772 113.198C209.795 113.475 209.914 113.734 210.106 113.92C210.298 114.106 210.549 114.206 210.806 114.201L237.726 113.52C237.859 113.517 237.989 113.485 238.111 113.427C238.232 113.369 238.342 113.286 238.433 113.182C238.524 113.078 238.596 112.955 238.643 112.821C238.691 112.687 238.713 112.545 238.71 112.401L238.44 99.8094C238.432 99.5186 238.319 99.2428 238.124 99.0422C237.929 98.8417 237.669 98.7328 237.4 98.7393L220.849 99.2744C220.717 99.2783 220.586 99.254 220.462 99.2029C220.339 99.1517 220.226 99.0748 220.13 98.9765L217.185 95.9851C216.992 95.7891 216.736 95.6822 216.471 95.6872L209.491 95.8635C209.353 95.8672 209.217 95.9012 209.092 95.9636C208.966 96.026 208.854 96.1154 208.761 96.2263C208.669 96.3372 208.598 96.4674 208.553 96.6089C208.509 96.7503 208.491 96.9001 208.502 97.0491Z" fill="#4C0AE1"/>
</g>
<path d="M212.846 115.052C212.459 112.425 211.194 102.503 210.823 99.5783C210.81 99.4751 210.816 99.37 210.843 99.2698C210.87 99.1697 210.915 99.0767 210.977 98.9969C211.04 98.9172 211.116 98.8525 211.203 98.8071C211.29 98.7616 211.384 98.7364 211.481 98.7332L237.85 97.6631C237.948 97.6591 238.047 97.678 238.138 97.7185C238.229 97.7591 238.311 97.8203 238.379 97.898C238.447 97.9758 238.498 98.0683 238.53 98.1694C238.562 98.2704 238.573 98.3777 238.563 98.4839L237.164 114.912C237.149 115.099 237.069 115.272 236.941 115.398C236.813 115.524 236.646 115.594 236.473 115.593L213.566 115.709C213.391 115.718 213.22 115.655 213.087 115.533C212.953 115.411 212.867 115.239 212.846 115.052Z" fill="#E0E0E0"/>
<path d="M211.273 116.274C210.891 113.714 209.587 103.585 209.233 100.703C209.222 100.606 209.229 100.508 209.256 100.415C209.282 100.322 209.325 100.236 209.384 100.162C209.443 100.088 209.515 100.028 209.597 99.9863C209.678 99.9445 209.766 99.9215 209.856 99.9189L236.304 99.1771C236.395 99.174 236.486 99.192 236.57 99.2298C236.654 99.2676 236.73 99.3243 236.792 99.3962C236.854 99.4681 236.901 99.5536 236.931 99.6468C236.96 99.7401 236.971 99.8391 236.962 99.9371L235.551 116.128C235.531 116.296 235.454 116.451 235.337 116.563C235.219 116.674 235.067 116.736 234.91 116.736L211.913 116.852C211.761 116.853 211.613 116.795 211.495 116.69C211.378 116.584 211.299 116.437 211.273 116.274Z" fill="#F5F5F5"/>
<path d="M206.816 101.938L209.474 121.096C209.494 121.267 209.572 121.425 209.694 121.538C209.816 121.65 209.972 121.709 210.132 121.704L238.794 120.98C238.956 120.98 239.111 120.914 239.229 120.794C239.348 120.674 239.419 120.51 239.429 120.336L240.457 101.086C240.461 100.991 240.447 100.896 240.415 100.807C240.383 100.718 240.334 100.637 240.272 100.569C240.21 100.502 240.135 100.449 240.053 100.415C239.97 100.38 239.882 100.365 239.794 100.369L207.451 101.184C207.362 101.183 207.274 101.203 207.193 101.241C207.111 101.28 207.039 101.337 206.979 101.408C206.919 101.479 206.873 101.563 206.845 101.654C206.817 101.745 206.807 101.842 206.816 101.938Z" fill="#4C0AE1"/>
<path d="M229.954 112.632L218.129 112.869L217.736 108.261L230.038 108.018L229.954 112.632Z" fill="#FAFAFA"/>
<path d="M229.954 112.632V112.31C229.954 112.067 229.954 111.763 229.954 111.392C229.954 110.559 229.954 109.422 229.993 108.011L230.032 108.054L217.966 108.315H217.73L217.786 108.249C217.927 109.854 218.056 111.41 218.18 112.857L218.123 112.803L226.587 112.663L229.054 112.626H229.948H229.729H229.077L226.621 112.693L218.123 112.894H218.056V112.839C217.932 111.392 217.797 109.835 217.657 108.23V108.224H217.96L230.027 108.005H230.066V108.054C230.032 109.471 230.004 110.62 229.982 111.453C229.982 111.824 229.982 112.122 229.982 112.359C229.982 112.596 229.954 112.632 229.954 112.632Z" fill="#4C0AE1"/>
<path d="M228.453 109.994C228.453 110.03 226.486 110.115 224.058 110.194C221.63 110.273 219.658 110.298 219.658 110.261C219.658 110.225 221.625 110.14 224.053 110.067C226.48 109.994 228.447 109.957 228.453 109.994Z" fill="#4C0AE1"/>
<path d="M228.599 110.972C228.599 111.009 226.626 111.094 224.199 111.173C221.771 111.252 219.804 111.276 219.804 111.24C219.804 111.203 221.771 111.118 224.199 111.045C226.626 110.972 228.594 110.936 228.599 110.972Z" fill="#4C0AE1"/>
<path d="M206.76 101.579L206.67 100.661C206.661 100.561 206.671 100.46 206.699 100.364C206.728 100.269 206.775 100.181 206.836 100.106C206.898 100.031 206.974 99.9707 207.058 99.9291C207.143 99.8875 207.235 99.8655 207.327 99.8643L214.892 99.7488C215.037 99.7448 215.18 99.7926 215.298 99.8849C215.416 99.9772 215.502 100.109 215.544 100.259L215.892 101.476L206.76 101.579Z" fill="#4C0AE1"/>
</svg>
