<svg width="24" height="24" viewBox="0 0 24 24" fill="none" xmlns="http://www.w3.org/2000/svg">
<path d="M19.5609 9.28241L18.7897 9.18641C18.6243 8.6368 18.4004 8.10656 18.1217 7.60481L18.5985 7.00081C18.7987 6.7579 18.9015 6.44922 18.8869 6.13475C18.8722 5.82027 18.7412 5.52247 18.5193 5.29921L17.3745 4.16241C16.9057 3.70161 16.1745 3.66161 15.6889 4.05841L15.0689 4.55201C14.5697 4.2681 14.0388 4.0439 13.4873 3.88401L13.3993 3.15281C13.3695 2.83652 13.2224 2.54282 12.9871 2.32948C12.7517 2.11614 12.4449 1.99861 12.1273 2.00001H10.5377C9.86966 2.00001 9.32966 2.49281 9.27366 3.11281L9.17766 3.88401C8.6299 4.04742 8.1021 4.27147 7.60406 4.55201L6.99206 4.08321C6.49926 3.66161 5.76006 3.70161 5.29846 4.16241L4.15446 5.29921C3.69286 5.76001 3.65286 6.49921 4.05046 6.99281L4.54326 7.60481C4.26203 8.10432 4.04051 8.63517 3.88326 9.18641L3.14406 9.27441C2.48406 9.33841 2.00006 9.87841 2.00006 10.5384V12.136C2.00006 12.796 2.48406 13.344 3.11206 13.392L3.88326 13.496C4.04326 14.052 4.27286 14.584 4.54326 15.0776L4.07446 15.6816C3.87241 15.9238 3.76853 16.2329 3.78334 16.548C3.79815 16.863 3.93058 17.1611 4.15446 17.3832L5.29846 18.5032C5.75926 18.9808 6.49046 19.0208 6.98406 18.6152L7.60406 18.1304C8.10007 18.4136 8.62877 18.6353 9.17846 18.7904L9.26566 19.5296C9.32966 20.1896 9.86966 20.6816 10.5377 20.6816H12.1273C12.7873 20.6816 13.3353 20.1896 13.3913 19.5696L13.4873 18.7904C13.5033 18.7824 13.5273 18.7824 13.5433 18.7744L13.0097 18.0272C12.7321 18.0672 12.4457 18.0832 12.1593 18.0832C10.996 18.0888 9.85785 17.7452 8.89206 17.0968C6.85686 15.7128 5.88726 13.2808 6.42006 10.888C6.52821 10.4006 6.80019 9.96504 7.19065 9.65393C7.58111 9.34281 8.06643 9.17498 8.56566 9.17841C8.79686 9.17841 9.02726 9.21841 9.24966 9.29041C9.11172 8.87097 9.10059 8.42015 9.21766 7.99441C9.32265 7.62048 9.52531 7.28125 9.80482 7.01158C10.0843 6.74191 10.4306 6.55153 10.8081 6.46001C11.2486 6.35656 11.6995 6.30316 12.1521 6.30081C12.9984 6.29978 13.8351 6.48095 14.6053 6.83203C15.3754 7.1831 16.0609 7.69585 16.6153 8.33543C17.1696 8.97501 17.5798 9.72643 17.8179 10.5386C18.056 11.3508 18.1165 12.2048 17.9953 13.0424L18.7577 13.5832C18.7737 13.5512 18.7817 13.5272 18.7897 13.4952L19.5209 13.4C19.8368 13.3732 20.131 13.2281 20.3446 12.9938C20.5582 12.7594 20.6754 12.4531 20.6729 12.136V10.5384C20.6729 9.87841 20.1809 9.33841 19.5609 9.28241Z" fill="black"/>
<path d="M20.0697 16.4685L16.1897 13.7101C16.4797 12.9363 16.5409 12.0953 16.3662 11.2877C16.1914 10.48 15.788 9.7396 15.2041 9.15488C14.6857 8.63835 14.0449 8.26168 13.3414 8.06007C12.638 7.85847 11.8949 7.83852 11.1817 8.00208C10.7281 8.11328 10.5697 8.69328 10.9033 9.02768L12.2313 10.3557C12.4722 10.6124 12.6038 10.9527 12.5982 11.3048C12.5927 11.6568 12.4503 11.9928 12.2013 12.2417C11.9523 12.4906 11.6162 12.6328 11.2642 12.6383C10.9122 12.6437 10.5718 12.512 10.3153 12.2709L8.99526 10.9509C8.66166 10.6173 8.07286 10.7765 7.97766 11.2373C7.60406 12.8829 8.20006 14.7117 9.78246 15.7765C10.9265 16.5477 12.4065 16.6989 13.6857 16.2221C16.2433 19.8125 16.4649 20.1853 16.7225 20.4437C17.2123 20.9294 17.8747 21.2013 18.5645 21.1998C19.2544 21.1983 19.9155 20.9236 20.4033 20.4357C20.6715 20.1677 20.878 19.8445 21.0083 19.4885C21.1387 19.1325 21.1897 18.7524 21.158 18.3746C21.1262 17.9968 21.0124 17.6305 20.8244 17.3013C20.6364 16.9721 20.3788 16.6879 20.0697 16.4685ZM18.6225 19.4973C18.5185 19.4969 18.4157 19.4759 18.3199 19.4357C18.224 19.3955 18.137 19.3368 18.0639 19.2629C17.9908 19.1891 17.933 19.1015 17.8937 19.0053C17.8545 18.909 17.8346 18.806 17.8353 18.7021C17.8353 18.2653 18.1857 17.9077 18.6225 17.9077C19.0601 17.9077 19.4257 18.2653 19.4257 18.7021C19.4257 19.1397 19.0601 19.4973 18.6225 19.4973Z" fill="black"/>
</svg>
