<svg width="63" height="69" viewBox="0 0 63 69" fill="none" xmlns="http://www.w3.org/2000/svg">
<path d="M60.5904 27.8212L59.2173 26.2571L54.3981 12.2815C53.5769 9.92087 51.4769 8.35677 49.1346 8.34229H14.7135C12.3712 8.34229 10.2712 9.92087 9.45 12.2815L4.69808 26.0833L2.71923 28.0529C0.996154 29.6315 0 31.9486 0 34.3817V54.744C0.0134615 58.075 2.53077 60.7687 5.62692 60.7687H9.18077C12.2769 60.7687 14.7942 58.075 14.8077 54.744V51.7896H48.1923V54.744C48.2058 58.075 50.7231 60.7687 53.8192 60.7687H57.3731C60.4692 60.7687 62.9865 58.075 63 54.744V33.8458C62.9865 31.5721 62.125 29.3997 60.5904 27.8212ZM11.9808 13.2663C12.4115 12.0353 13.5019 11.2388 14.7135 11.2388H49.1481C50.3596 11.2388 51.45 12.0498 51.8808 13.2663L56.0808 25.4316H52.9442C52.2038 20.0006 47.5058 16.2497 42.4577 17.0607C38.4327 17.6979 35.2692 21.1013 34.6769 25.4316H7.78077L11.9808 13.2663ZM50.1981 25.4316H37.3962C38.1365 21.6227 41.6096 19.1896 45.15 19.9862C47.6808 20.5655 49.6596 22.6944 50.1981 25.4316ZM12.1154 54.744C12.1019 56.4819 10.7962 57.8722 9.18077 57.8722H5.62692C4.01154 57.8722 2.70577 56.4819 2.69231 54.744V50.9496C3.5 51.5144 4.56346 51.7896 5.62692 51.7896H12.1154V54.744ZM60.3077 54.744C60.2942 56.4819 58.9885 57.8722 57.3731 57.8722H53.8192C52.2038 57.8722 50.8981 56.4674 50.8846 54.744V51.7896H57.3731C58.4365 51.7896 59.5 51.5144 60.3077 50.9496V54.744ZM57.3731 48.8931H5.62692C4.025 48.9076 2.70577 47.5317 2.69231 45.7939V34.3817C2.69231 32.7886 3.35192 31.268 4.48269 30.2397C4.49615 30.2252 4.52308 30.1963 4.53654 30.1818L6.36731 28.328H57.3462L58.6385 29.8197C58.6519 29.8487 58.6923 29.8632 58.7058 29.8921C59.7154 30.9204 60.2942 32.3542 60.2942 33.8458V45.7939H60.3077C60.2942 47.5173 58.975 48.9076 57.3731 48.8931Z" fill="#A6A6A6"/>
<path d="M17.7692 34.1211H7.67306C6.93267 34.1211 6.3269 34.7728 6.3269 35.5693V43.1002C6.3269 43.8967 6.93267 44.5484 7.67306 44.5484H17.7692C18.5096 44.5484 19.1154 43.8967 19.1154 43.1002V35.5693C19.1154 34.7728 18.5096 34.1211 17.7692 34.1211ZM16.4231 41.652H9.01921V37.0176H16.4231V41.652Z" fill="#A6A6A6"/>
<path d="M55.3268 34.1211H45.2307C44.4903 34.1211 43.8845 34.7728 43.8845 35.5693V43.1002C43.8845 43.8967 44.4903 44.5484 45.2307 44.5484H55.3268C56.0672 44.5484 56.673 43.8967 56.673 43.1002V35.5693C56.673 34.7728 56.0672 34.1211 55.3268 34.1211ZM53.9807 41.652H46.5768V37.0176H53.9807V41.652Z" fill="#A6A6A6"/>
<path d="M38.0019 40.2036H24.998C24.2576 40.2036 23.6519 40.8553 23.6519 41.6519C23.6519 42.4484 24.2576 43.1001 24.998 43.1001H38.0019C38.7423 43.1001 39.348 42.4484 39.348 41.6519C39.348 40.8553 38.7423 40.2036 38.0019 40.2036Z" fill="#A6A6A6"/>
<path d="M38.0019 35.7139H24.998C24.2576 35.7139 23.6519 36.3656 23.6519 37.1621C23.6519 37.9586 24.2576 38.6104 24.998 38.6104H38.0019C38.7423 38.6104 39.348 37.9586 39.348 37.1621C39.348 36.3656 38.7423 35.7139 38.0019 35.7139Z" fill="#A6A6A6"/>
</svg>
